<svg width="68" height="17" viewBox="0 0 68 17" fill="none" xmlns="http://www.w3.org/2000/svg">
<path fill-rule="evenodd" clip-rule="evenodd" d="M10.4355 12.8735H7.4741C2.85487 12.8735 6.21076 4.109 10.0997 4.109H14.7785C15.5284 4.109 16.8511 4.23225 17.5027 2.57475L18.5095 0H12.0936C8.61914 0 5.91459 1.09325 3.96029 2.9275C0.58446 6.0665 -0.560298 10.969 0.248958 13.3142C1.01888 15.4835 3.11142 16.9117 6.38835 16.947L8.93498 16.9648H12.0739L12.8438 14.9015C13.4162 13.4377 12.1329 12.8735 10.4355 12.8735ZM46.4822 9.24075L47.4497 6.43675H37.1252C35.4078 6.43675 34.6378 6.86 34.3417 7.74175L33.3742 10.5458H43.699C45.4164 10.5458 46.1863 10.1225 46.4822 9.24075ZM31.8347 14.1785L30.8672 16.9822H41.1917C42.8895 16.9822 43.679 16.5592 43.9752 15.6775L44.9427 12.8735H34.6179C32.9204 12.8735 32.1505 13.2967 31.8347 14.1785ZM48.8909 2.8215L49.8581 0.0177498H39.5336C37.8161 0.0177498 37.0462 0.440748 36.7501 1.3225L35.7826 4.1265H46.1074C47.8051 4.1265 48.5748 3.70325 48.8909 2.8215ZM33.2953 3.386C32.8611 0.776002 31.3016 0.0177498 27.5113 0.0177498H20.602L16.5749 10.5458H19.1215C20.6414 10.5458 21.4113 10.5633 22.2208 8.6235L23.8986 4.109H26.4649C28.6564 4.109 28.1627 6.56025 27.0573 8.94075C26.0701 11.0395 24.3527 12.891 22.2798 12.891H17.9961C16.2787 12.891 15.4891 13.3142 15.1733 14.196L14.1072 17H17.2459L20.3255 16.9822C23.0498 16.9647 25.2805 16.7885 27.8865 14.6898C30.65 12.4503 33.8483 6.70125 33.2953 3.386ZM68 0H62.0185L56.3922 5.34325C55.7409 5.9605 55.0696 6.57775 54.4183 7.30075H54.359L57.1621 0H52.2861L45.7126 16.9822H50.5883L52.6809 11.639L54.8524 9.999L56.5701 14.831C57.1029 16.33 57.6559 16.9822 58.8402 16.9822H62.5712L58.7416 7.49475L68 0Z" fill="#00B33C"/>
</svg>
