<svg width="77" height="76" viewBox="0 0 77 76" fill="none" xmlns="http://www.w3.org/2000/svg">
<circle cx="38.5" cy="38" r="37" fill="#070707" stroke="url(#paint0_linear_3023_3724)" stroke-width="2"/>
<path d="M53.5 37.5C53.5 43.0258 48.2828 49 38 49C27.7172 49 22.5 43.0258 22.5 37.5C22.5 31.9742 27.7172 26 38 26C48.2828 26 53.5 31.9742 53.5 37.5Z" stroke="#FFCB00" stroke-width="7"/>
<path d="M10.558 35.5V40H9.544V35.938L10.006 36.4H6.52L6.982 35.938V40H5.962V35.5H10.558ZM11.3624 40V36.586H12.3464V39.472L12.1004 39.406L14.1584 36.586H15.4484V40H14.4644V37.06L14.7104 37.132L12.6164 40H11.3624ZM16.2022 36.586H17.2042V37.672L17.1622 37.804V38.626L17.2042 38.872V40.99H16.2022V36.586ZM16.8562 38.296C16.9242 37.932 17.0422 37.616 17.2102 37.348C17.3822 37.076 17.5962 36.866 17.8522 36.718C18.1122 36.57 18.4002 36.496 18.7162 36.496C19.0522 36.496 19.3462 36.572 19.5982 36.724C19.8542 36.872 20.0542 37.082 20.1982 37.354C20.3422 37.622 20.4142 37.936 20.4142 38.296C20.4142 38.652 20.3422 38.966 20.1982 39.238C20.0542 39.506 19.8542 39.716 19.5982 39.868C19.3462 40.016 19.0522 40.09 18.7162 40.09C18.3962 40.09 18.1082 40.016 17.8522 39.868C17.6002 39.72 17.3882 39.512 17.2162 39.244C17.0442 38.972 16.9242 38.656 16.8562 38.296ZM19.4002 38.296C19.4002 38.096 19.3582 37.92 19.2742 37.768C19.1942 37.612 19.0822 37.492 18.9382 37.408C18.7942 37.32 18.6282 37.276 18.4402 37.276C18.2522 37.276 18.0742 37.32 17.9062 37.408C17.7382 37.492 17.5902 37.612 17.4622 37.768C17.3382 37.92 17.2402 38.096 17.1682 38.296C17.2402 38.496 17.3382 38.672 17.4622 38.824C17.5902 38.976 17.7382 39.096 17.9062 39.184C18.0742 39.268 18.2522 39.31 18.4402 39.31C18.6282 39.31 18.7942 39.268 18.9382 39.184C19.0822 39.096 19.1942 38.976 19.2742 38.824C19.3582 38.672 19.4002 38.496 19.4002 38.296ZM24.919 38.608C24.879 38.9 24.765 39.158 24.577 39.382C24.393 39.606 24.155 39.78 23.863 39.904C23.571 40.028 23.245 40.09 22.885 40.09C22.477 40.09 22.117 40.016 21.805 39.868C21.497 39.716 21.255 39.504 21.079 39.232C20.907 38.96 20.821 38.648 20.821 38.296C20.821 37.94 20.907 37.628 21.079 37.36C21.255 37.088 21.497 36.876 21.805 36.724C22.117 36.572 22.477 36.496 22.885 36.496C23.245 36.496 23.571 36.56 23.863 36.688C24.155 36.812 24.393 36.986 24.577 37.21C24.765 37.43 24.879 37.688 24.919 37.984H23.917C23.865 37.752 23.745 37.574 23.557 37.45C23.373 37.322 23.149 37.258 22.885 37.258C22.673 37.258 22.487 37.3 22.327 37.384C22.171 37.464 22.051 37.582 21.967 37.738C21.883 37.89 21.841 38.076 21.841 38.296C21.841 38.512 21.883 38.698 21.967 38.854C22.051 39.006 22.171 39.124 22.327 39.208C22.487 39.288 22.673 39.328 22.885 39.328C23.153 39.328 23.379 39.262 23.563 39.13C23.751 38.998 23.869 38.824 23.917 38.608H24.919ZM25.46 40V36.586H26.444V39.472L26.198 39.406L28.256 36.586H29.546V40H28.562V37.06L28.808 37.132L26.714 40H25.46ZM30.2999 36.586H31.2959V40H30.2999V36.586ZM33.1619 36.586H34.1579V40H33.1619V36.586ZM30.8699 37.882H33.5519V38.638H30.8699V37.882ZM37.7432 36.586V37.354H35.4512L35.9132 36.898V40H34.9112V36.586H37.7432ZM44.7742 39.052V38.224H47.8942V39.052H44.7742ZM47.0122 35.5L49.1182 40H48.0322L46.1902 35.914H46.5262L44.6842 40H43.5982L45.7042 35.5H47.0122ZM50.0826 36.934H51.0846V40H50.0826V36.934ZM48.7266 36.586H52.4406V37.354H48.7266V36.586ZM54.6966 40.09C54.2926 40.09 53.9306 40.016 53.6106 39.868C53.2946 39.716 53.0446 39.504 52.8606 39.232C52.6806 38.96 52.5906 38.644 52.5906 38.284C52.5906 37.928 52.6766 37.616 52.8486 37.348C53.0246 37.08 53.2646 36.872 53.5686 36.724C53.8726 36.572 54.2186 36.496 54.6066 36.496C55.0026 36.496 55.3426 36.584 55.6266 36.76C55.9106 36.932 56.1286 37.176 56.2806 37.492C56.4366 37.808 56.5146 38.18 56.5146 38.608H53.3946V37.942H55.9746L55.5846 38.182C55.5686 37.982 55.5186 37.812 55.4346 37.672C55.3546 37.532 55.2446 37.424 55.1046 37.348C54.9646 37.272 54.8006 37.234 54.6126 37.234C54.4086 37.234 54.2306 37.276 54.0786 37.36C53.9306 37.44 53.8146 37.554 53.7306 37.702C53.6506 37.846 53.6106 38.016 53.6106 38.212C53.6106 38.448 53.6626 38.65 53.7666 38.818C53.8706 38.986 54.0226 39.114 54.2226 39.202C54.4226 39.29 54.6646 39.334 54.9486 39.334C55.2046 39.334 55.4626 39.298 55.7226 39.226C55.9826 39.15 56.2166 39.044 56.4246 38.908V39.58C56.2006 39.74 55.9386 39.866 55.6386 39.958C55.3426 40.046 55.0286 40.09 54.6966 40.09ZM57.6418 36.586H61.1698V40H60.1678V36.886L60.6298 37.342H58.1398L58.5718 36.97C58.5918 37.214 58.6078 37.44 58.6198 37.648C58.6358 37.852 58.6438 38.036 58.6438 38.2C58.6438 38.856 58.5458 39.332 58.3498 39.628C58.1578 39.924 57.8458 40.072 57.4138 40.072C57.2938 40.072 57.1778 40.058 57.0658 40.03C56.9578 40.006 56.8518 39.964 56.7478 39.904V39.178C56.8198 39.206 56.8898 39.228 56.9578 39.244C57.0298 39.256 57.0958 39.262 57.1558 39.262C57.3598 39.262 57.5058 39.17 57.5938 38.986C57.6858 38.798 57.7318 38.49 57.7318 38.062C57.7318 37.87 57.7238 37.65 57.7078 37.402C57.6958 37.154 57.6738 36.882 57.6418 36.586ZM61.9229 40V36.586H62.9189V39.742L62.5949 39.28H63.9269C64.1109 39.28 64.2529 39.236 64.3529 39.148C64.4529 39.056 64.5029 38.932 64.5029 38.776C64.5029 38.612 64.4529 38.486 64.3529 38.398C64.2529 38.306 64.1109 38.26 63.9269 38.26H62.6009V37.57H64.0769C64.3689 37.57 64.6209 37.622 64.8329 37.726C65.0489 37.826 65.2169 37.968 65.3369 38.152C65.4569 38.332 65.5169 38.544 65.5169 38.788C65.5169 39.028 65.4569 39.24 65.3369 39.424C65.2169 39.608 65.0509 39.75 64.8389 39.85C64.6269 39.95 64.3769 40 64.0889 40H61.9229ZM67.9329 40.09C67.5289 40.09 67.1669 40.016 66.8469 39.868C66.5309 39.716 66.2809 39.504 66.0969 39.232C65.9169 38.96 65.8269 38.644 65.8269 38.284C65.8269 37.928 65.9129 37.616 66.0849 37.348C66.2609 37.08 66.5009 36.872 66.8049 36.724C67.1089 36.572 67.4549 36.496 67.8429 36.496C68.2389 36.496 68.5789 36.584 68.8629 36.76C69.1469 36.932 69.3649 37.176 69.5169 37.492C69.6729 37.808 69.7509 38.18 69.7509 38.608H66.6309V37.942H69.2109L68.8209 38.182C68.8049 37.982 68.7549 37.812 68.6709 37.672C68.5909 37.532 68.4809 37.424 68.3409 37.348C68.2009 37.272 68.0369 37.234 67.8489 37.234C67.6449 37.234 67.4669 37.276 67.3149 37.36C67.1669 37.44 67.0509 37.554 66.9669 37.702C66.8869 37.846 66.8469 38.016 66.8469 38.212C66.8469 38.448 66.8989 38.65 67.0029 38.818C67.1069 38.986 67.2589 39.114 67.4589 39.202C67.6589 39.29 67.9009 39.334 68.1849 39.334C68.4409 39.334 68.6989 39.298 68.9589 39.226C69.2189 39.15 69.4529 39.044 69.6609 38.908V39.58C69.4369 39.74 69.1749 39.866 68.8749 39.958C68.5789 40.046 68.2649 40.09 67.9329 40.09Z" fill="white"/>
<defs>
<linearGradient id="paint0_linear_3023_3724" x1="10.2111" y1="62.9111" x2="64.6778" y2="10.9778" gradientUnits="userSpaceOnUse">
<stop stop-color="#FFCA00"/>
<stop offset="0.520632" stop-color="#FF2748"/>
<stop offset="1" stop-color="#D300C5"/>
</linearGradient>
</defs>
</svg>
