<svg width="49" height="48" viewBox="0 0 49 48" fill="none" xmlns="http://www.w3.org/2000/svg">
<circle cx="24.5" cy="24" r="24" fill="white"/>
<g clip-path="url(#clip0_49_744)">
<g filter="url(#filter0_d_49_744)">
<path d="M18.875 15.375C15.7689 15.375 13.25 17.868 13.25 20.9437C13.25 23.4266 14.2344 29.3194 23.924 35.2763C24.0976 35.3819 24.2968 35.4377 24.5 35.4377C24.7032 35.4377 24.9024 35.3819 25.076 35.2763C34.7656 29.3194 35.75 23.4266 35.75 20.9437C35.75 17.868 33.2311 15.375 30.125 15.375C27.0189 15.375 24.5 18.75 24.5 18.75C24.5 18.75 21.9811 15.375 18.875 15.375Z" fill="#FC003C"/>
</g>
</g>
<defs>
<filter id="filter0_d_49_744" x="9.25" y="15.375" width="30.5" height="28.0627" filterUnits="userSpaceOnUse" color-interpolation-filters="sRGB">
<feFlood flood-opacity="0" result="BackgroundImageFix"/>
<feColorMatrix in="SourceAlpha" type="matrix" values="0 0 0 0 0 0 0 0 0 0 0 0 0 0 0 0 0 0 127 0" result="hardAlpha"/>
<feOffset dy="4"/>
<feGaussianBlur stdDeviation="2"/>
<feComposite in2="hardAlpha" operator="out"/>
<feColorMatrix type="matrix" values="0 0 0 0 0.992157 0 0 0 0 0.52549 0 0 0 0 0.164706 0 0 0 0.41 0"/>
<feBlend mode="normal" in2="BackgroundImageFix" result="effect1_dropShadow_49_744"/>
<feBlend mode="normal" in="SourceGraphic" in2="effect1_dropShadow_49_744" result="shape"/>
</filter>
<clipPath id="clip0_49_744">
<rect width="27" height="27" fill="white" transform="translate(11 12)"/>
</clipPath>
</defs>
</svg>
