<svg width="108" height="39" viewBox="0 0 108 39" fill="none" xmlns="http://www.w3.org/2000/svg">
<path d="M36 20.0701C36 25.8025 31.1194 32 21.5 32C11.8806 32 7 25.8025 7 20.0701C7 14.3377 11.8806 7 21.5 7C31.1194 7 36 14.3377 36 20.0701Z" stroke="#EABB00" stroke-width="12.9076"/>
<path d="M58.1395 11.1674V17.1318H56.1924V11.7325L57.0822 12.6219H52.319L53.2089 11.7325V17.1318H51.2722V11.1674H58.1395ZM59.7137 17.1318V11.1674H61.6189V16.0854L61.1792 15.9598L64.5397 11.1674H67.0415V17.1318H65.1256V12.0987L65.5762 12.2347L62.1423 17.1318H59.7137ZM68.605 11.1674H70.5417V12.9672L70.4683 13.2183V14.767L70.5417 15.2274V18.8583H68.605V11.1674ZM69.9028 14.1496C70.0079 13.5078 70.2065 12.9532 70.4999 12.4858C70.7928 12.0185 71.1627 11.6557 71.6094 11.3976C72.0629 11.1325 72.5656 11 73.1169 11C73.7033 11 74.2162 11.1325 74.6556 11.3976C75.1024 11.6627 75.4513 12.0324 75.7024 12.5068C75.954 12.9741 76.0795 13.5218 76.0795 14.1496C76.0795 14.7774 75.954 15.3285 75.7024 15.8029C75.4513 16.2702 75.1024 16.6365 74.6556 16.9015C74.2162 17.1666 73.7033 17.2992 73.1169 17.2992C72.5583 17.2992 72.0561 17.1701 71.6094 16.912C71.1695 16.647 70.8035 16.2807 70.5101 15.8133C70.2172 15.339 70.0147 14.7844 69.9028 14.1496ZM74.1116 14.1496C74.1116 13.8287 74.0449 13.5462 73.9126 13.302C73.7797 13.0509 73.5948 12.8556 73.3578 12.7161C73.1272 12.5696 72.862 12.4963 72.5622 12.4963C72.2551 12.4963 71.9617 12.5696 71.6829 12.7161C71.4035 12.8556 71.1593 13.0509 70.95 13.302C70.7476 13.5462 70.5904 13.8287 70.479 14.1496C70.5904 14.4705 70.7476 14.7565 70.95 15.0076C71.1593 15.2518 71.4035 15.4471 71.6829 15.5936C71.9617 15.7331 72.2551 15.8029 72.5622 15.8029C72.862 15.8029 73.1272 15.7331 73.3578 15.5936C73.5948 15.4471 73.7797 15.2518 73.9126 15.0076C74.0449 14.7565 74.1116 14.4705 74.1116 14.1496ZM84.3458 14.6518C84.2898 15.175 84.0942 15.6354 83.7594 16.0331C83.4314 16.4307 83.0056 16.7411 82.482 16.9643C81.9657 17.1875 81.3832 17.2992 80.734 17.2992C80.0153 17.2992 79.3798 17.1666 78.8284 16.9015C78.2771 16.6365 77.8479 16.2667 77.5408 15.7924C77.2338 15.3181 77.0805 14.7704 77.0805 14.1496C77.0805 13.5287 77.2338 12.9812 77.5408 12.5068C77.8479 12.0324 78.2771 11.6627 78.8284 11.3976C79.3798 11.1325 80.0153 11 80.734 11C81.3832 11 81.9657 11.1116 82.482 11.3348C83.0056 11.5581 83.4314 11.8685 83.7594 12.2661C84.0942 12.6568 84.2898 13.1171 84.3458 13.6473H82.409C82.3321 13.2637 82.1404 12.9707 81.8333 12.7684C81.5331 12.5661 81.1667 12.4649 80.734 12.4649C80.392 12.4649 80.0917 12.5312 79.8338 12.6637C79.5822 12.7963 79.3871 12.9881 79.2474 13.2392C79.1078 13.4904 79.0382 13.7938 79.0382 14.1496C79.0382 14.5053 79.1078 14.8088 79.2474 15.0599C79.3871 15.3111 79.5822 15.5029 79.8338 15.6354C80.0917 15.768 80.392 15.8342 80.734 15.8342C81.1735 15.8342 81.5433 15.7296 81.8435 15.5204C82.1438 15.3041 82.3321 15.0146 82.409 14.6518H84.3458ZM85.5594 17.1318V11.1674H87.4645V16.0854L87.0251 15.9598L90.3852 11.1674H92.8875V17.1318H90.9716V12.0987L91.4217 12.2347L87.9881 17.1318H85.5594ZM94.451 11.1674H96.3872V17.1318H94.451V11.1674ZM99.4233 11.1674H101.36V17.1318H99.4233V11.1674ZM95.5605 13.3648H100.166V14.8193H95.5605V13.3648ZM108 11.1674V12.6428H103.98L104.87 11.7534V17.1318H102.933V11.1674H108ZM56.6948 27.8326L56.4331 25.6666L56.7158 24.8504L56.4331 24.0447L56.6948 21.8682H58.7153L58.3489 24.8504L58.7153 27.8326H56.6948ZM57.1764 24.8504C57.0717 25.4852 56.8729 26.0398 56.5797 26.5141C56.2866 26.9815 55.9167 27.3478 55.4701 27.6128C55.0234 27.871 54.5209 28 53.9626 28C53.3764 28 52.8599 27.8675 52.4132 27.6024C51.9736 27.3373 51.6281 26.9711 51.3768 26.5037C51.1256 26.0293 51 25.4783 51 24.8504C51 24.2226 51.1256 23.675 51.3768 23.2076C51.6281 22.7332 51.9736 22.3635 52.4132 22.0984C52.8599 21.8334 53.3764 21.7008 53.9626 21.7008C54.5209 21.7008 55.0234 21.8334 55.4701 22.0984C55.9167 22.3565 56.2866 22.7193 56.5797 23.1867C56.8798 23.6541 57.0787 24.2086 57.1764 24.8504ZM52.9681 24.8504C52.9681 25.1713 53.0344 25.4573 53.167 25.7084C53.2996 25.9526 53.481 26.1479 53.7114 26.2944C53.9486 26.4339 54.2208 26.5037 54.5279 26.5037C54.835 26.5037 55.1246 26.4339 55.3968 26.2944C55.676 26.1479 55.9202 25.9526 56.1296 25.7084C56.3389 25.4573 56.496 25.1713 56.6006 24.8504C56.496 24.5295 56.3389 24.247 56.1296 24.0029C55.9202 23.7517 55.676 23.5564 55.3968 23.4169C55.1246 23.2704 54.835 23.1971 54.5279 23.1971C54.2208 23.1971 53.9486 23.2704 53.7114 23.4169C53.481 23.5564 53.2996 23.7517 53.167 24.0029C53.0344 24.247 52.9681 24.5295 52.9681 24.8504ZM61.9648 22.5379H63.912V27.8326H61.9648V22.5379ZM59.6512 21.8682H66.2361V23.3436H59.6512V21.8682ZM70.5456 28C69.8337 28 69.1953 27.8675 68.6303 27.6024C68.0716 27.3373 67.6322 26.9676 67.3111 26.4932C66.9899 26.0189 66.8293 25.4643 66.8293 24.8295C66.8293 24.2087 66.9831 23.6645 67.2901 23.1971C67.5972 22.7297 68.0196 22.3635 68.5568 22.0984C69.1013 21.8334 69.7155 21.7008 70.3992 21.7008C71.097 21.7008 71.6975 21.8543 72.1997 22.1612C72.7023 22.4682 73.0897 22.9007 73.3617 23.4587C73.6342 24.0168 73.77 24.6725 73.77 25.4259H68.3894V24.2016H72.7023L72.0011 24.6412C71.9802 24.3133 71.8999 24.0377 71.7602 23.8145C71.6274 23.5843 71.4498 23.4099 71.2264 23.2913C71.0031 23.1658 70.7379 23.103 70.4308 23.103C70.0955 23.103 69.806 23.1693 69.5617 23.3018C69.3174 23.4343 69.1257 23.6192 68.986 23.8563C68.8532 24.0935 68.787 24.3691 68.787 24.683C68.787 25.0806 68.8741 25.419 69.0488 25.698C69.2303 25.977 69.4887 26.1898 69.8235 26.3363C70.1656 26.4828 70.5807 26.556 71.0692 26.556C71.516 26.556 71.9627 26.4967 72.4094 26.3781C72.8556 26.2526 73.2571 26.0782 73.6133 25.8549V27.121C73.2084 27.4001 72.7442 27.6163 72.2206 27.7698C71.7043 27.9232 71.1461 28 70.5456 28ZM75.9968 21.8682H82.32V27.8326H80.3832V22.4333L81.2727 23.3227H76.9705L77.7973 22.5798C77.8391 23.0053 77.8708 23.3925 77.8917 23.7413C77.9126 24.0831 77.9228 24.3935 77.9228 24.6725C77.9228 25.8236 77.7486 26.6606 77.3997 27.1838C77.0508 27.7 76.4853 27.9582 75.7038 27.9582C75.4873 27.9582 75.278 27.9338 75.0756 27.8849C74.8732 27.843 74.6775 27.7663 74.4892 27.6547V26.263C74.6148 26.3118 74.7369 26.3502 74.8556 26.3781C74.9812 26.3991 75.0931 26.4095 75.1909 26.4095C75.5398 26.4095 75.7875 26.2561 75.934 25.9491C76.0873 25.6352 76.1642 25.119 76.1642 24.4005C76.1642 24.0656 76.1506 23.6889 76.1223 23.2704C76.0946 22.8449 76.0527 22.3775 75.9968 21.8682ZM83.8932 27.8326V21.8682H85.8193V27.3408L85.2119 26.4513H87.4314C87.7244 26.4513 87.9511 26.3816 88.1117 26.2421C88.2723 26.1026 88.3526 25.9038 88.3526 25.6457C88.3526 25.3875 88.2723 25.1887 88.1117 25.0492C87.9511 24.9027 87.7244 24.8295 87.4314 24.8295H85.2119V23.5111H87.7453C88.2621 23.5111 88.7122 23.6017 89.0957 23.7831C89.4796 23.9575 89.7765 24.2086 89.9857 24.5365C90.2023 24.8574 90.3103 25.2341 90.3103 25.6666C90.3103 26.0991 90.2023 26.4793 89.9857 26.8072C89.7765 27.135 89.4796 27.3896 89.0957 27.571C88.719 27.7454 88.2757 27.8326 87.7662 27.8326H83.8932ZM94.8685 28C94.1566 28 93.5181 27.8675 92.9527 27.6024C92.3945 27.3373 91.9546 26.9676 91.6334 26.4932C91.3127 26.0189 91.1522 25.4643 91.1522 24.8295C91.1522 24.2087 91.3054 23.6645 91.6125 23.1971C91.9196 22.7297 92.3419 22.3635 92.8792 22.0984C93.4237 21.8334 94.0378 21.7008 94.7215 21.7008C95.4198 21.7008 96.0198 21.8543 96.5225 22.1612C97.0247 22.4682 97.4121 22.9007 97.6846 23.4587C97.9566 24.0168 98.0928 24.6725 98.0928 25.4259H92.7118V24.2016H97.0247L96.3235 24.6412C96.3026 24.3133 96.2223 24.0377 96.0826 23.8145C95.9503 23.5843 95.7721 23.4099 95.5488 23.2913C95.3254 23.1658 95.0602 23.103 94.7532 23.103C94.4184 23.103 94.1283 23.1693 93.884 23.3018C93.6403 23.4343 93.448 23.6192 93.3084 23.8563C93.176 24.0935 93.1098 24.3691 93.1098 24.683C93.1098 25.0806 93.1969 25.419 93.3711 25.698C93.5527 25.977 93.8111 26.1898 94.1459 26.3363C94.488 26.4828 94.903 26.556 95.3916 26.556C95.8383 26.556 96.285 26.4967 96.7318 26.3781C97.1785 26.2526 97.5795 26.0782 97.9357 25.8549V27.121C97.5308 27.4001 97.0666 27.6163 96.5434 27.7698C96.0267 27.9232 95.4685 28 94.8685 28Z" fill="white"/>
</svg>
