<svg width="141" height="37" viewBox="0 0 141 37" fill="none" xmlns="http://www.w3.org/2000/svg">
<path d="M41.0756 18.4963C41.0756 24.759 34.9604 31.5299 22.9076 31.5299C10.8547 31.5299 4.7395 24.759 4.7395 18.4963C4.7395 12.2335 10.8547 5.46264 22.9076 5.46264C34.9604 5.46264 41.0756 12.2335 41.0756 18.4963Z" stroke="#FFCD66" stroke-width="9.47899"/>
<path d="M65.421 7.69283V16.6979H62.4825V8.54594L63.8253 9.8888H56.6371L57.98 8.54594V16.6979H55.0573V7.69283H65.421ZM67.7965 16.6979V7.69283H70.6718V15.118L70.0083 14.9285L75.0795 7.69283H78.8553V16.6979H75.9643V9.09888L76.6436 9.30426L71.4617 16.6979H67.7965ZM81.2146 7.69283H84.1373V10.4101L84.0267 10.7893V13.1275L84.1373 13.8226V19.3046H81.2146V7.69283ZM83.1736 12.1954C83.3316 11.2264 83.6317 10.3891 84.0741 9.68342C84.5165 8.97776 85.0747 8.43009 85.7487 8.0404C86.4333 7.64017 87.1916 7.44006 88.0237 7.44006C88.9084 7.44006 89.6825 7.64017 90.346 8.0404C91.0201 8.44062 91.5467 8.99883 91.9259 9.71502C92.305 10.4207 92.4946 11.2475 92.4946 12.1954C92.4946 13.1433 92.305 13.9753 91.9259 14.6915C91.5467 15.3971 91.0201 15.9501 90.346 16.3503C89.6825 16.7505 88.9084 16.9506 88.0237 16.9506C87.1811 16.9506 86.4228 16.7558 85.7487 16.3661C85.0852 15.9659 84.5322 15.4129 84.0899 14.7073C83.6475 13.9911 83.3421 13.1538 83.1736 12.1954ZM89.5245 12.1954C89.5245 11.7109 89.4245 11.2843 89.2244 10.9157C89.0242 10.5365 88.7451 10.2416 88.387 10.031C88.0395 9.80981 87.6393 9.69922 87.1864 9.69922C86.7229 9.69922 86.2806 9.80981 85.8593 10.031C85.438 10.2416 85.0694 10.5365 84.7534 10.9157C84.448 11.2843 84.211 11.7109 84.0425 12.1954C84.211 12.6798 84.448 13.1117 84.7534 13.4908C85.0694 13.8594 85.438 14.1543 85.8593 14.3755C86.2806 14.5862 86.7229 14.6915 87.1864 14.6915C87.6393 14.6915 88.0395 14.5862 88.387 14.3755C88.7451 14.1543 89.0242 13.8594 89.2244 13.4908C89.4245 13.1117 89.5245 12.6798 89.5245 12.1954ZM104.969 12.9537C104.885 13.7436 104.59 14.4387 104.085 15.0391C103.59 15.6394 102.947 16.1081 102.157 16.4451C101.378 16.7821 100.498 16.9506 99.5188 16.9506C98.434 16.9506 97.4756 16.7505 96.6435 16.3503C95.8115 15.9501 95.1637 15.3919 94.7003 14.6757C94.2369 13.9595 94.0052 13.1327 94.0052 12.1954C94.0052 11.258 94.2369 10.4312 94.7003 9.71502C95.1637 8.99883 95.8115 8.44062 96.6435 8.0404C97.4756 7.64017 98.434 7.44006 99.5188 7.44006C100.498 7.44006 101.378 7.60858 102.157 7.94561C102.947 8.28264 103.59 8.75132 104.085 9.35166C104.59 9.94146 104.885 10.6366 104.969 11.437H102.047C101.931 10.8578 101.641 10.4154 101.178 10.11C100.725 9.80454 100.172 9.65183 99.5188 9.65183C99.0027 9.65183 98.5498 9.75188 98.1601 9.95199C97.781 10.1521 97.4861 10.4417 97.2754 10.8209C97.0648 11.2001 96.9595 11.6582 96.9595 12.1954C96.9595 12.7325 97.0648 13.1906 97.2754 13.5698C97.4861 13.949 97.781 14.2386 98.1601 14.4387C98.5498 14.6388 99.0027 14.7389 99.5188 14.7389C100.182 14.7389 100.741 14.5809 101.193 14.2649C101.646 13.9384 101.931 13.5013 102.047 12.9537H104.969ZM106.801 16.6979V7.69283H109.676V15.118L109.013 14.9285L114.084 7.69283H117.86V16.6979H114.969V9.09888L115.648 9.30426L110.466 16.6979H106.801ZM120.219 7.69283H123.142V16.6979H120.219V7.69283ZM127.723 7.69283H130.646V16.6979H127.723V7.69283ZM121.894 11.0105H128.845V13.2064H121.894V11.0105ZM140.667 7.69283V9.9204H134.6L135.943 8.57754V16.6979H133.02V7.69283H140.667ZM63.2408 32.6979L62.8458 29.4276L63.2724 28.1954L62.8458 26.9789L63.2408 23.6928H66.2899L65.7369 28.1954L66.2899 32.6979H63.2408ZM63.9675 28.1954C63.8095 29.1538 63.5094 29.9911 63.067 30.7073C62.6247 31.4129 62.0665 31.9659 61.3924 32.3661C60.7183 32.7558 59.96 32.9506 59.1174 32.9506C58.2327 32.9506 57.4534 32.7505 56.7793 32.3503C56.1158 31.9501 55.5944 31.3971 55.2153 30.6915C54.8361 29.9753 54.6465 29.1433 54.6465 28.1954C54.6465 27.2475 54.8361 26.4207 55.2153 25.715C55.5944 24.9988 56.1158 24.4406 56.7793 24.0404C57.4534 23.6402 58.2327 23.4401 59.1174 23.4401C59.96 23.4401 60.7183 23.6402 61.3924 24.0404C62.0665 24.4301 62.6247 24.9778 63.067 25.6834C63.5199 26.3891 63.8201 27.2264 63.9675 28.1954ZM57.6166 28.1954C57.6166 28.6798 57.7167 29.1117 57.9168 29.4908C58.1169 29.8594 58.3907 30.1543 58.7383 30.3755C59.0964 30.5862 59.5071 30.6915 59.9706 30.6915C60.434 30.6915 60.8711 30.5862 61.2818 30.3755C61.7031 30.1543 62.0717 29.8594 62.3877 29.4908C62.7037 29.1117 62.9406 28.6798 63.0986 28.1954C62.9406 27.7109 62.7037 27.2843 62.3877 26.9157C62.0717 26.5365 61.7031 26.2416 61.2818 26.031C60.8711 25.8098 60.434 25.6992 59.9706 25.6992C59.5071 25.6992 59.0964 25.8098 58.7383 26.031C58.3907 26.2416 58.1169 26.5365 57.9168 26.9157C57.7167 27.2843 57.6166 27.7109 57.6166 28.1954ZM71.1938 24.7039H74.1323V32.6979H71.1938V24.7039ZM67.7023 23.6928H77.6395V25.9204H67.7023V23.6928ZM84.1436 32.9506C83.0693 32.9506 82.1056 32.7505 81.2525 32.3503C80.4099 31.9501 79.7464 31.3919 79.2619 30.6757C78.7774 29.9595 78.5352 29.1222 78.5352 28.1638C78.5352 27.2264 78.7669 26.4049 79.2303 25.6992C79.6937 24.9936 80.3309 24.4406 81.1419 24.0404C81.9634 23.6402 82.8903 23.4401 83.9224 23.4401C84.9756 23.4401 85.8814 23.6718 86.6397 24.1352C87.398 24.5986 87.9826 25.2516 88.3933 26.0942C88.8041 26.9368 89.0095 27.9268 89.0095 29.0643H80.8891V27.2159H87.398L86.3396 27.8794C86.308 27.3844 86.1868 26.9684 85.9762 26.6313C85.7761 26.2838 85.5075 26.0205 85.1705 25.8414C84.8334 25.6518 84.4332 25.557 83.9698 25.557C83.4643 25.557 83.0272 25.6571 82.6585 25.8572C82.2899 26.0573 82.0003 26.3364 81.7896 26.6945C81.5895 27.0526 81.4895 27.4686 81.4895 27.9426C81.4895 28.5429 81.6211 29.0537 81.8844 29.475C82.1583 29.8963 82.548 30.2175 83.0535 30.4387C83.5696 30.6599 84.1962 30.7705 84.9335 30.7705C85.6076 30.7705 86.2816 30.681 86.9557 30.5019C87.6297 30.3123 88.2354 30.049 88.7725 29.712V31.6236C88.1616 32.0449 87.4612 32.3714 86.6713 32.6031C85.8919 32.8348 85.0494 32.9506 84.1436 32.9506ZM92.3698 23.6928H101.912V32.6979H98.9893V24.5459L100.332 25.8888H93.8391L95.0871 24.7671C95.1503 25.4096 95.1977 25.9941 95.2293 26.5207C95.2609 27.0368 95.2767 27.5055 95.2767 27.9268C95.2767 29.6646 95.0134 30.9285 94.4868 31.7184C93.9602 32.4978 93.1071 32.8875 91.9275 32.8875C91.601 32.8875 91.285 32.8506 90.9796 32.7769C90.6741 32.7137 90.3792 32.5978 90.0949 32.4293V30.3281C90.2844 30.4019 90.4688 30.4598 90.6478 30.5019C90.8374 30.5335 91.0059 30.5493 91.1534 30.5493C91.68 30.5493 92.0539 30.3176 92.275 29.8542C92.5067 29.3802 92.6226 28.6008 92.6226 27.516C92.6226 27.0105 92.6015 26.4417 92.5594 25.8098C92.5173 25.1673 92.4541 24.4617 92.3698 23.6928ZM104.286 32.6979V23.6928H107.193V31.9554L106.277 30.6125H109.626C110.069 30.6125 110.411 30.5072 110.653 30.2965C110.895 30.0859 111.016 29.7857 111.016 29.396C111.016 29.0063 110.895 28.7062 110.653 28.4955C110.411 28.2743 110.069 28.1638 109.626 28.1638H106.277V26.1732H110.1C110.879 26.1732 111.559 26.3101 112.138 26.5839C112.717 26.8472 113.165 27.2264 113.481 27.7214C113.807 28.2059 113.971 28.7746 113.971 29.4276C113.971 30.0806 113.807 30.6546 113.481 31.1496C113.165 31.6447 112.717 32.0291 112.138 32.3029C111.569 32.5662 110.901 32.6979 110.132 32.6979H104.286ZM120.849 32.9506C119.775 32.9506 118.811 32.7505 117.958 32.3503C117.116 31.9501 116.452 31.3919 115.968 30.6757C115.483 29.9595 115.241 29.1222 115.241 28.1638C115.241 27.2264 115.473 26.4049 115.936 25.6992C116.4 24.9936 117.037 24.4406 117.848 24.0404C118.669 23.6402 119.596 23.4401 120.628 23.4401C121.681 23.4401 122.587 23.6718 123.346 24.1352C124.104 24.5986 124.688 25.2516 125.099 26.0942C125.51 26.9368 125.715 27.9268 125.715 29.0643H117.595V27.2159H124.104L123.045 27.8794C123.014 27.3844 122.893 26.9684 122.682 26.6313C122.482 26.2838 122.213 26.0205 121.876 25.8414C121.539 25.6518 121.139 25.557 120.676 25.557C120.17 25.557 119.733 25.6571 119.364 25.8572C118.996 26.0573 118.706 26.3364 118.495 26.6945C118.295 27.0526 118.195 27.4686 118.195 27.9426C118.195 28.5429 118.327 29.0537 118.59 29.475C118.864 29.8963 119.254 30.2175 119.759 30.4387C120.275 30.6599 120.902 30.7705 121.639 30.7705C122.313 30.7705 122.987 30.681 123.661 30.5019C124.336 30.3123 124.941 30.049 125.478 29.712V31.6236C124.867 32.0449 124.167 32.3714 123.377 32.6031C122.598 32.8348 121.755 32.9506 120.849 32.9506Z" fill="#111111"/>
</svg>
