<svg width="322" height="377" viewBox="0 0 322 377" fill="none" xmlns="http://www.w3.org/2000/svg">
<g opacity="0.2">
<g opacity="0.2" filter="url(#filter0_d_3020_5971)">
<path d="M142.457 4C175.996 4 208.161 20.2883 231.876 49.2817C255.591 78.2751 268.914 117.599 268.914 158.601C268.914 199.604 255.591 238.928 231.876 267.921C208.161 296.914 175.996 313.203 142.457 313.203H31.8072C27.6226 313.203 23.6087 311.174 20.6456 307.562C17.6824 303.949 16.0118 299.048 16 293.932V158.601C16 117.599 29.3231 78.2751 53.0385 49.2817C76.7538 20.2883 108.919 4 142.457 4Z" fill="white"/>
</g>
<g style="mix-blend-mode:soft-light">
<path d="M195.198 67.5708C228.737 67.5708 260.902 83.8591 284.617 112.852C308.332 141.846 321.656 181.169 321.656 222.172V357.503C321.656 362.628 319.99 367.544 317.026 371.168C314.061 374.792 310.041 376.828 305.848 376.828H195.198C161.654 376.828 129.483 360.537 105.764 331.538C82.0442 302.54 68.7188 263.21 68.7188 222.199C68.7188 181.189 82.0442 141.859 105.764 112.86C129.483 83.862 161.654 67.5708 195.198 67.5708Z" fill="white"/>
</g>
<g style="mix-blend-mode:exclusion" opacity="0.2">
<path d="M92.3548 312.439C78.8309 289.409 70.7646 262.265 69.0432 233.993C67.3218 205.721 72.0121 177.416 82.598 152.192C93.1839 126.968 109.255 105.803 129.044 91.0234C148.834 76.2442 171.573 68.4242 194.763 68.4235H195.596C216.046 68.3868 236.194 74.4589 254.287 86.1117C264.464 109.6 269.5 135.905 268.908 162.475C268.315 189.044 262.114 214.975 250.906 237.751C239.698 260.526 223.864 279.371 204.941 292.458C186.018 305.545 164.649 312.428 142.908 312.439H92.3548Z" fill="#0A1C8F"/>
</g>
</g>
<defs>
<filter id="filter0_d_3020_5971" x="0" y="0" width="284.914" height="341.203" filterUnits="userSpaceOnUse" color-interpolation-filters="sRGB">
<feFlood flood-opacity="0" result="BackgroundImageFix"/>
<feColorMatrix in="SourceAlpha" type="matrix" values="0 0 0 0 0 0 0 0 0 0 0 0 0 0 0 0 0 0 127 0" result="hardAlpha"/>
<feOffset dy="12"/>
<feGaussianBlur stdDeviation="8"/>
<feColorMatrix type="matrix" values="0 0 0 0 0.137255 0 0 0 0 0.0431373 0 0 0 0 0.627451 0 0 0 0.239 0"/>
<feBlend mode="normal" in2="BackgroundImageFix" result="effect1_dropShadow_3020_5971"/>
<feBlend mode="normal" in="SourceGraphic" in2="effect1_dropShadow_3020_5971" result="shape"/>
</filter>
</defs>
</svg>
