<svg width="200" height="144" viewBox="0 0 200 144" fill="none" xmlns="http://www.w3.org/2000/svg">
<path d="M80.4831 68.5063L83.8526 73.6461C72.6463 80.991 69.5075 96.074 76.8524 107.279C84.1889 118.471 99.2719 121.612 110.477 114.267L113.846 119.406C99.8138 128.604 80.9097 124.68 71.7126 110.647C62.5141 96.6159 66.4506 77.7034 80.4831 68.5063Z" fill="#CDD3F5"/>
<path d="M76.8553 107.279C84.1919 118.472 99.2749 121.612 110.48 114.267L112.593 117.492C99.1957 123.903 83.2095 120.199 75.3769 108.248C67.5443 96.2966 70.5164 80.1464 81.7408 70.4199L83.8542 73.645C72.6493 80.9912 69.5104 96.0742 76.8553 107.279Z" fill="#B4BDE6"/>
<path d="M86.5017 63L81.248 85.2556L73.3224 79.2446L69.4498 76.3086L66.4805 74.0479L86.5017 63Z" fill="#CDD3F5"/>
<path d="M86.5011 63L73.3218 79.2446L69.4492 76.3086L86.5011 63Z" fill="#EAECFF"/>
<path d="M86.5004 63L78.3398 83.0519L81.2467 85.2556L86.5004 63Z" fill="#B2BCF5"/>
<path d="M106.712 108.917C111.849 108.158 116.626 111.707 117.381 116.822C118.14 121.959 114.591 126.736 109.454 127.493C108.745 127.598 108.046 127.61 107.358 127.553C103.08 127.234 99.4578 123.99 98.8047 119.562C98.1544 115.156 100.686 111.004 104.691 109.463C105.331 109.212 106.004 109.023 106.712 108.917Z" fill="#A1ADE6"/>
<path d="M104.689 109.464C108.967 109.784 112.59 113.027 113.24 117.433C113.893 121.861 111.362 126.013 107.358 127.554C103.08 127.235 99.4578 123.992 98.8047 119.563C98.1544 115.157 100.686 111.005 104.689 109.464Z" fill="#CDD3F5"/>
<path d="M102.124 115.63C103.522 115.424 104.878 116.771 105.153 118.638C105.428 120.506 104.519 122.187 103.122 122.394C101.724 122.6 100.368 121.253 100.092 119.386C99.8159 117.517 100.726 115.836 102.124 115.63Z" fill="#EAECFF"/>
<path d="M33.6279 47.8288L35.8657 52.1967C35.1324 52.5766 34.3692 52.8855 33.5707 53.1426C29.9731 54.3137 25.8572 54.267 22.0679 53.0979C20.0611 52.4787 18.1421 51.5375 16.4366 50.3032C13.0803 47.8607 10.8917 44.5652 9.97188 40.6861C9.97417 40.6769 9.96576 40.6738 9.96576 40.6738C9.35964 38.1445 9.27739 35.3759 9.76697 32.4252C10.8455 25.8641 13.4626 16.7471 23.6623 13.2881C25.8512 12.5554 28.4763 12.5022 31.0846 13.0395L31.1224 13.0512C33.3993 13.5276 35.6575 14.4703 37.5562 15.8062C39.5819 17.2325 41.1096 19.0076 42.087 21.036C42.8588 22.6297 43.2741 24.3815 43.3037 26.2195C43.3156 26.7476 43.2928 27.254 43.2322 27.7488C42.5743 33.8121 37.3681 37.1688 33.2364 38.607C32.3399 38.9155 31.5006 39.1402 30.771 39.2742L30.0538 35.4372L29.8642 34.4538C30.1603 34.3913 36.2297 33.1705 37.9411 28.8496C37.9411 28.8496 37.9474 28.8311 37.9652 28.8057C38.2521 28.0725 38.4175 27.2395 38.3966 26.3081C38.338 23.0339 36.3762 20.9694 34.7376 19.8168C31.9422 17.8552 27.8651 17.0501 25.2404 17.935C19.2965 19.954 16.0236 24.6666 14.6089 33.2198C14.551 33.572 14.5063 33.9173 14.4647 34.2541C13.7387 40.7381 16.6688 44.3953 19.327 46.3351C22.4616 48.6275 26.6934 49.5316 30.3738 48.8896C30.7632 48.825 31.1496 48.738 31.5323 48.6311C32.2689 48.437 32.968 48.1695 33.6279 47.8288Z" fill="#ADB7F2"/>
<path d="M37.9619 28.8056C38.2488 28.0724 38.4142 27.2393 38.3933 26.308C38.3347 23.0338 36.3729 20.9692 34.7343 19.8167C31.9389 17.8551 27.8618 17.0499 25.2371 17.9349C19.2932 19.9538 16.0203 24.6665 14.6056 33.2197C14.5477 33.5719 14.503 33.9171 14.4614 34.2539C13.7587 32.7328 14.877 24.7147 17.3948 21.4126C19.9089 18.0889 26.497 13.5867 34.1786 17.528C41.5095 21.3005 38.2647 28.1887 37.9619 28.8056Z" fill="#8796E3"/>
<path d="M33.5684 53.1433C29.9708 54.3144 25.8549 54.2677 22.0655 53.0986C20.0588 52.4794 18.1398 51.5382 16.4343 50.3039C13.078 47.8614 10.8894 44.5659 9.96953 40.6868C10.302 41.2411 14.9705 48.8865 21.6692 51.1171C28.6307 53.4294 30.3697 48.8904 30.3697 48.8904L31.5283 48.6318L33.5684 53.1433Z" fill="#8796E3"/>
<path d="M36.1704 54.3176C33.4187 54.3703 31.145 52.1836 31.0917 49.4427C31.039 46.6909 33.2257 44.4172 35.9792 44.3645C36.3591 44.3576 36.7275 44.3968 37.0843 44.4738C39.3124 44.9297 40.9998 46.8787 41.0448 49.2514C41.0896 51.6125 39.4787 53.6248 37.2705 54.1662C36.9175 54.2558 36.5503 54.3108 36.1704 54.3176Z" fill="#26AECF"/>
<path d="M37.2738 54.1641C35.0457 53.7083 33.3583 51.7593 33.3135 49.3982C33.2685 47.0255 34.8785 45.0124 37.0876 44.4718C39.3157 44.9276 41.0031 46.8767 41.0481 49.2494C41.0937 51.6112 39.4829 53.6236 37.2738 54.1641Z" fill="#50C5E0"/>
<path d="M33.2363 38.6057L34.7201 33.7932C34.7201 33.7932 37.2133 35.3291 40.0789 33.0734C42.1943 31.4081 42.6531 29.7584 43.2314 27.7484C42.5734 33.8116 37.3672 37.1684 33.2363 38.6057Z" fill="#8796E3"/>
<path d="M35.2873 37.2621C34.7421 39.9607 32.115 41.7058 29.4274 41.1628C26.7289 40.6176 24.9837 37.9905 25.529 35.292C25.604 34.9203 25.7236 34.5684 25.8753 34.2357C26.8029 32.1587 29.0716 30.935 31.3975 31.4045C33.7126 31.8717 35.328 33.8807 35.3775 36.1549C35.3882 36.5206 35.3623 36.8904 35.2873 37.2621Z" fill="#9BA8F2"/>
<path d="M35.3755 36.1542C34.4478 38.2313 32.1792 39.455 29.8641 38.9878C27.5382 38.5183 25.9219 36.5101 25.8725 34.2359C26.8001 32.1589 29.0688 30.9352 31.3947 31.4046C33.7106 31.8726 35.3269 33.8808 35.3755 36.1542Z" fill="#CCD4FF"/>
<path d="M32.7641 33.7694C32.6164 34.5037 31.7002 34.9385 30.719 34.7405C29.7377 34.5425 29.0631 33.7868 29.2108 33.0525C29.3585 32.3182 30.2747 31.8834 31.2559 32.0814C32.2372 32.2793 32.9118 33.0351 32.7641 33.7694Z" fill="#ECEFFF"/>
<path d="M40.2841 51.9922L39.8087 52.7605C39.8087 52.7605 37.9713 53.5928 37.3564 49.4868C36.7424 45.3816 39.1217 45.3706 39.1217 45.3706L40.0024 46.2126L40.2841 51.9922Z" fill="#26AECF"/>
<path d="M42.0847 21.0356C42.0847 21.0356 36.2217 14.5322 31.1201 13.0508C33.397 13.5272 35.6552 14.4699 37.5539 15.8058C39.5796 17.2322 41.1082 19.0081 42.0847 21.0356Z" fill="#CCD4FF"/>
<path d="M39.0885 51.8459C38.8125 51.5821 38.5634 51.1793 38.3719 50.6685C38.2056 50.2405 38.0936 49.7455 38.0332 49.2067C37.9708 48.5847 38 47.9898 38.1029 47.4899C38.2754 46.5984 38.675 45.9826 39.208 45.9298C39.376 45.9143 39.5448 45.9697 39.7085 46.0561L39.7082 46.0444L44.1875 48.6133L40.2862 51.9949L40.2916 51.9772C40.1556 52.082 40.0197 52.1509 39.8701 52.1726C39.6006 52.1936 39.333 52.0796 39.0885 51.8459Z" fill="#94F2F2"/>
<path d="M38.099 47.4889C38.2715 46.5974 38.6711 45.9816 39.2041 45.9288C39.3722 45.9134 39.5409 45.9688 39.7046 46.0551L39.7043 46.0434L44.1836 48.6123L38.099 47.4889Z" fill="#BAFFFF"/>
<path d="M39.0855 51.8458C38.8095 51.5819 38.5604 51.1791 38.3689 50.6684L44.1836 48.6123L39.0855 51.8458Z" fill="#BAFFFF"/>
<path d="M44.1836 48.6118L38.2167 50.1995L38.3689 50.6679L44.1836 48.6118Z" fill="#4AE6E6"/>
<path d="M183.158 112.914L178.969 114.957L191.834 141.348L196.023 139.306L183.158 112.914Z" fill="#9EA9EB"/>
<path d="M183.159 112.914L181.383 113.78L194.248 140.171L196.024 139.305L183.159 112.914Z" fill="#6F83E6"/>
<path d="M199.442 138.474C199.787 139.181 197.743 140.886 194.89 142.277C192.024 143.674 189.423 144.233 189.078 143.527C189.03 143.429 189.034 143.311 189.075 143.178C189.316 142.355 191.173 140.926 193.643 139.721C196.102 138.523 198.371 137.94 199.168 138.257C199.299 138.307 199.394 138.377 199.442 138.474Z" fill="#9EABF5"/>
<path d="M176.733 118.041L187.057 113.239L176.48 104L176.733 118.041Z" fill="#CDD3F5"/>
<path d="M179.003 116.985L176.48 104L181.34 115.898L179.003 116.985Z" fill="#EAECFF"/>
<path d="M185.241 114.083L176.48 104L187.057 113.239L185.241 114.083Z" fill="#B2BCF5"/>
<path d="M138.253 13.9385L135.723 16.6782L163.992 42.7847L166.522 40.045L138.253 13.9385Z" fill="#CDD3F5"/>
<path d="M138.255 13.9382L137.594 14.6538L165.863 40.7603L166.524 40.0447L138.255 13.9382Z" fill="#B4BDE6"/>
<path d="M137.013 8.1462C140.18 9.01852 142.039 12.2924 141.17 15.4463C140.298 18.6136 137.024 20.4731 133.856 19.6003C133.42 19.4796 133.011 19.3085 132.628 19.1005C130.234 17.8234 128.964 15.0208 129.716 12.2907C130.465 9.57375 132.99 7.81685 135.701 7.94714C136.137 7.96388 136.576 8.02606 137.013 8.1462Z" fill="#AFB3D4"/>
<path d="M135.701 7.94665C138.097 9.22339 139.365 12.0258 138.617 14.7427C137.865 17.4728 135.339 19.2297 132.628 19.1C130.234 17.823 128.964 15.0203 129.716 12.2902C130.464 9.57354 132.99 7.81636 135.701 7.94665Z" fill="#E2E4F7"/>
<path d="M132.644 10.8605C133.506 11.0982 133.947 12.224 133.63 13.3755C133.313 14.5269 132.356 15.2682 131.495 15.0311C130.634 14.7933 130.192 13.6676 130.509 12.5161C130.827 11.3638 131.782 10.6228 132.644 10.8605Z" fill="#ECEFFF"/>
<path d="M166.808 37.268C169.268 37.9457 170.712 40.4881 170.037 42.9369C169.36 45.3968 166.817 46.8407 164.358 46.1627C164.019 46.0694 163.702 45.9365 163.404 45.7744C161.544 44.7832 160.558 42.6063 161.143 40.4864C161.724 38.3767 163.685 37.0118 165.791 37.1131C166.129 37.1265 166.469 37.1747 166.808 37.268Z" fill="#AFB3D4"/>
<path d="M165.791 37.1123C167.651 38.1036 168.637 40.2805 168.055 42.3901C167.471 44.5109 165.509 45.8753 163.404 45.7742C161.544 44.783 160.559 42.6061 161.143 40.4862C161.724 38.376 163.686 37.0113 165.791 37.1123Z" fill="#E2E4F7"/>
<path d="M163.416 39.3752C164.085 39.5594 164.428 40.4343 164.182 41.3287C163.935 42.2231 163.193 42.7985 162.524 42.6143C161.854 42.4301 161.511 41.5553 161.758 40.6609C162.005 39.7662 162.747 39.1908 163.416 39.3752Z" fill="#ECEFFF"/>
</svg>
