<svg width="187" height="192" viewBox="0 0 187 192" fill="none" xmlns="http://www.w3.org/2000/svg">
<path d="M63.3956 57.0426L57.7545 54.6036C63.0732 42.3056 57.3982 27.9828 45.1009 22.6653C32.8176 17.3536 18.494 23.0275 13.1764 35.3247L7.53533 32.8857C14.1955 17.4863 32.1413 10.3651 47.5407 17.0253C62.9404 23.6835 70.0558 41.6432 63.3956 57.0426Z" fill="#CDD3F5"/>
<path d="M45.0993 22.6655C32.8159 17.3539 18.4923 23.0277 13.1748 35.3249L9.63586 33.7941C17.2981 21.0706 32.6863 15.3711 45.8013 21.0435C58.9162 26.7159 65.3174 41.8383 61.2937 56.1351L57.7547 54.6043C63.0715 42.3059 57.3965 27.9831 45.0993 22.6655Z" fill="#B4BDE6"/>
<path d="M61.3968 64.9512L53.5426 43.475L63.468 44.1354L68.317 44.4573L72.0403 44.712L61.3968 64.9512Z" fill="#CDD3F5"/>
<path d="M61.3961 64.9517L63.4673 44.1359L68.3163 44.4578L61.3961 64.9517Z" fill="#EAECFF"/>
<path d="M61.3997 64.9501L57.1853 43.7155L53.5456 43.474L61.3997 64.9501Z" fill="#B2BCF5"/>
<path d="M19.2629 37.72C15.3901 41.1792 9.4486 40.8431 6.00513 36.9866C2.54595 33.1139 2.88201 27.1724 6.75552 23.7144C7.29001 23.2376 7.86685 22.8427 8.47259 22.5119C12.2213 20.4255 17.0303 21.1415 20.0115 24.4805C22.9782 27.8025 23.1476 32.6623 20.6509 36.1519C20.2543 36.7143 19.7966 37.242 19.2629 37.72Z" fill="#A1ADE6"/>
<path d="M20.6493 36.1501C16.9006 38.2364 12.0915 37.5205 9.12488 34.1986C6.14368 30.8595 5.97423 25.9996 8.46979 22.5108C12.2185 20.4244 17.0275 21.1404 20.0087 24.4794C22.9754 27.8014 23.1448 32.6612 20.6493 36.1501Z" fill="#CDD3F5"/>
<path d="M19.4031 29.5902C18.3488 30.5308 16.4757 30.1523 15.2187 28.7441C13.9617 27.3358 13.7958 25.4319 14.8493 24.4901C15.9036 23.5495 17.7767 23.9279 19.0337 25.3362C20.2926 26.7448 20.4573 28.6496 19.4031 29.5902Z" fill="#EAECFF"/>
<path d="M39.1865 175.531L41.4242 179.899C40.691 180.279 39.9278 180.588 39.1293 180.845C35.5317 182.016 31.4158 181.969 27.6264 180.8C25.6197 180.181 23.7007 179.24 21.9952 178.005C18.6389 175.563 16.4503 172.267 15.5305 168.388C15.5328 168.379 15.5244 168.376 15.5244 168.376C14.9182 165.847 14.836 163.078 15.3256 160.127C16.4041 153.566 19.0212 144.449 29.2209 140.99C31.4098 140.258 34.0349 140.204 36.6432 140.742L36.681 140.753C38.9579 141.23 41.2161 142.172 43.1148 143.508C45.1405 144.935 46.6682 146.71 47.6456 148.738C48.4174 150.332 48.8326 152.084 48.8623 153.922C48.8742 154.45 48.8514 154.956 48.7908 155.451C48.1329 161.514 42.9267 164.871 38.795 166.309C37.8984 166.618 37.0592 166.842 36.3296 166.976L35.6124 163.139L35.4227 162.156C35.7189 162.093 41.7883 160.873 43.4997 156.552C43.4997 156.552 43.506 156.533 43.5238 156.508C43.8107 155.775 43.9761 154.942 43.9552 154.01C43.8966 150.736 41.9348 148.672 40.2962 147.519C37.5008 145.557 33.4237 144.752 30.799 145.637C24.8551 147.656 21.5822 152.369 20.1675 160.922C20.1096 161.274 20.0649 161.619 20.0233 161.956C19.2972 168.44 22.2274 172.097 24.8856 174.037C28.0202 176.33 32.252 177.234 35.9323 176.592C36.3218 176.527 36.7082 176.44 37.0909 176.333C37.8275 176.139 38.5266 175.872 39.1865 175.531Z" fill="#ADB7F2"/>
<path d="M43.5205 156.508C43.8073 155.775 43.9728 154.941 43.9519 154.01C43.8933 150.736 41.9315 148.671 40.2928 147.519C37.4975 145.557 33.4204 144.752 30.7957 145.637C24.8518 147.656 21.5789 152.369 20.1642 160.922C20.1063 161.274 20.0616 161.619 20.02 161.956C19.3173 160.435 20.4356 152.417 22.9534 149.115C25.4675 145.791 32.0556 141.289 39.7371 145.23C47.0681 149.003 43.8233 155.891 43.5205 156.508Z" fill="#8796E3"/>
<path d="M39.127 180.845C35.5294 182.017 31.4135 181.97 27.6241 180.801C25.6174 180.182 23.6984 179.24 21.9929 178.006C18.6366 175.564 16.448 172.268 15.5281 168.389C15.8606 168.943 20.5291 176.589 27.2278 178.819C34.1893 181.132 35.9283 176.593 35.9283 176.593L37.0869 176.334L39.127 180.845Z" fill="#8796E3"/>
<path d="M41.729 182.02C38.9773 182.072 36.7036 179.886 36.6503 177.145C36.5976 174.393 38.7843 172.119 41.5377 172.067C41.9177 172.06 42.2861 172.099 42.6429 172.176C44.871 172.632 46.5584 174.581 46.6034 176.954C46.6482 179.315 45.0373 181.327 42.8291 181.868C42.4761 181.958 42.1089 182.013 41.729 182.02Z" fill="#26AECF"/>
<path d="M42.8324 181.866C40.6043 181.41 38.9169 179.461 38.8721 177.1C38.8271 174.728 40.4371 172.715 42.6462 172.174C44.8743 172.63 46.5617 174.579 46.6067 176.952C46.6523 179.313 45.0414 181.326 42.8324 181.866Z" fill="#50C5E0"/>
<path d="M38.7949 166.308L40.2786 161.495C40.2786 161.495 42.7719 163.031 45.6375 160.776C47.7529 159.11 48.2117 157.461 48.79 155.451C48.132 161.514 42.9258 164.871 38.7949 166.308Z" fill="#8796E3"/>
<path d="M40.8459 164.964C40.3007 167.663 37.6736 169.408 34.986 168.865C32.2875 168.32 30.5423 165.693 31.0876 162.994C31.1625 162.622 31.2822 162.271 31.4339 161.938C32.3615 159.861 34.6302 158.637 36.9561 159.107C39.2712 159.574 40.8866 161.583 40.936 163.857C40.9468 164.223 40.9209 164.593 40.8459 164.964Z" fill="#9BA8F2"/>
<path d="M40.9341 163.856C40.0064 165.933 37.7377 167.157 35.4227 166.69C33.0968 166.22 31.4805 164.212 31.4311 161.938C32.3587 159.861 34.6274 158.637 36.9533 159.107C39.2692 159.575 40.8854 161.583 40.9341 163.856Z" fill="#CCD4FF"/>
<path d="M38.3227 161.472C38.175 162.206 37.2588 162.641 36.2776 162.443C35.2963 162.245 34.6217 161.489 34.7694 160.755C34.9171 160.02 35.8333 159.586 36.8145 159.783C37.7958 159.981 38.4704 160.737 38.3227 161.472Z" fill="#ECEFFF"/>
<path d="M45.8427 179.694L45.3673 180.463C45.3673 180.463 43.5299 181.295 42.915 177.189C42.301 173.084 44.6803 173.073 44.6803 173.073L45.561 173.915L45.8427 179.694Z" fill="#26AECF"/>
<path d="M47.6433 148.738C47.6433 148.738 41.7803 142.234 36.6787 140.753C38.9556 141.229 41.2138 142.172 43.1125 143.508C45.1382 144.934 46.6668 146.71 47.6433 148.738Z" fill="#CCD4FF"/>
<path d="M44.6471 179.548C44.3711 179.284 44.122 178.881 43.9305 178.371C43.7642 177.943 43.6522 177.448 43.5918 176.909C43.5294 176.287 43.5586 175.692 43.6615 175.192C43.834 174.301 44.2336 173.685 44.7666 173.632C44.9346 173.616 45.1034 173.672 45.267 173.758L45.2668 173.747L49.7461 176.315L45.8448 179.697L45.8502 179.679C45.7142 179.784 45.5783 179.853 45.4287 179.875C45.1592 179.896 44.8916 179.782 44.6471 179.548Z" fill="#94F2F2"/>
<path d="M43.6576 175.191C43.8301 174.3 44.2297 173.684 44.7627 173.631C44.9307 173.616 45.0995 173.671 45.2631 173.757L45.2629 173.746L49.7422 176.314L43.6576 175.191Z" fill="#BAFFFF"/>
<path d="M44.6441 179.548C44.3681 179.284 44.119 178.881 43.9275 178.371L49.7422 176.314L44.6441 179.548Z" fill="#BAFFFF"/>
<path d="M49.7422 176.314L43.7752 177.902L43.9275 178.37L49.7422 176.314Z" fill="#4AE6E6"/>
<path d="M145.979 135.657L147.62 130.945C154.304 133.271 161.789 131.477 166.689 126.376C173.621 119.159 173.389 107.647 166.172 100.714C158.954 93.7811 147.443 94.0141 140.511 101.231C135.726 106.213 134.186 113.356 136.491 119.873L131.787 121.538C128.847 113.23 130.811 104.125 136.911 97.7737C145.75 88.5718 160.428 88.2765 169.629 97.1147C178.832 105.954 179.126 120.631 170.287 129.833C164.041 136.337 154.499 138.623 145.979 135.657Z" fill="#CDD3F5"/>
<path d="M146.389 134.48L147.21 132.122C154.353 134.609 162.352 132.692 167.588 127.241C174.997 119.528 174.749 107.224 167.036 99.815C159.323 92.4064 147.02 92.654 139.611 100.367C134.497 105.691 132.851 113.324 135.316 120.29L132.963 121.121C130.182 113.261 132.041 104.646 137.811 98.6381C146.174 89.9321 160.059 89.6534 168.765 98.0153C177.471 106.378 177.75 120.264 169.388 128.969C163.477 135.123 154.45 137.284 146.389 134.48Z" fill="#DEE4FF"/>
<path d="M153.872 135.002C153.035 137.82 150.074 139.427 147.267 138.594C144.448 137.757 142.842 134.796 143.678 131.977C143.793 131.588 143.954 131.226 144.147 130.886C145.331 128.766 147.862 127.679 150.292 128.4C152.71 129.117 154.237 131.408 154.073 133.831C154.05 134.222 153.987 134.613 153.872 135.002Z" fill="#A4ADE6"/>
<path d="M154.073 133.834C152.889 135.954 150.359 137.041 147.941 136.324C145.511 135.603 143.983 133.312 144.147 130.889C145.331 128.768 147.862 127.681 150.292 128.402C152.709 129.119 154.237 131.41 154.073 133.834Z" fill="#B1BAF7"/>
<path d="M151.521 131.045C151.293 131.812 150.277 132.187 149.253 131.883C148.228 131.578 147.582 130.711 147.809 129.944C148.036 129.177 149.053 128.802 150.077 129.106C151.101 129.41 151.748 130.278 151.521 131.045Z" fill="#ECEFFF"/>
<path d="M139.43 121.13C138.594 123.95 135.632 125.556 132.825 124.723C130.007 123.886 128.4 120.925 129.236 118.105C129.352 117.717 129.512 117.354 129.706 117.015C130.89 114.895 133.42 113.808 135.85 114.529C138.268 115.246 139.796 117.537 139.632 119.96C139.609 120.352 139.546 120.742 139.43 121.13Z" fill="#A4ADE6"/>
<path d="M139.632 119.963C138.448 122.083 135.917 123.17 133.499 122.453C131.069 121.732 129.541 119.441 129.706 117.018C130.89 114.897 133.42 113.81 135.85 114.531C138.268 115.248 139.796 117.539 139.632 119.963Z" fill="#B1BAF7"/>
<path d="M137.079 117.174C136.852 117.941 135.836 118.316 134.811 118.012C133.786 117.707 133.14 116.84 133.368 116.073C133.595 115.305 134.611 114.93 135.636 115.234C136.66 115.539 137.307 116.407 137.079 117.174Z" fill="#ECEFFF"/>
<path d="M104.331 143.641L101.801 146.38L130.07 172.487L132.6 169.747L104.331 143.641Z" fill="#CDD3F5"/>
<path d="M104.333 143.64L103.672 144.356L131.941 170.462L132.602 169.747L104.333 143.64Z" fill="#B4BDE6"/>
<path d="M103.091 137.848C106.258 138.721 108.118 141.995 107.248 145.148C106.376 148.316 103.102 150.175 99.9346 149.302C99.4977 149.182 99.0893 149.011 98.7065 148.803C96.3118 147.526 95.0421 144.723 95.7945 141.993C96.543 139.276 99.0686 137.519 101.779 137.649C102.216 137.666 102.654 137.728 103.091 137.848Z" fill="#AFB3D4"/>
<path d="M101.779 137.649C104.175 138.926 105.444 141.728 104.695 144.445C103.943 147.175 101.417 148.932 98.7065 148.802C96.3118 147.525 95.0421 144.722 95.7945 141.992C96.5425 139.276 99.0686 137.519 101.779 137.649Z" fill="#E2E4F7"/>
<path d="M98.7222 140.563C99.5837 140.8 100.025 141.926 99.7079 143.078C99.3906 144.229 98.4345 144.97 97.5732 144.733C96.7116 144.495 96.2702 143.37 96.5875 142.218C96.905 141.066 97.8606 140.325 98.7222 140.563Z" fill="#ECEFFF"/>
<path d="M132.886 166.97C135.346 167.648 136.79 170.19 136.115 172.639C135.438 175.099 132.895 176.543 130.436 175.865C130.097 175.772 129.78 175.639 129.482 175.477C127.622 174.485 126.637 172.308 127.221 170.189C127.802 168.079 129.763 166.714 131.869 166.815C132.207 166.829 132.547 166.877 132.886 166.97Z" fill="#AFB3D4"/>
<path d="M131.869 166.814C133.729 167.806 134.715 169.983 134.133 172.092C133.549 174.213 131.587 175.577 129.482 175.476C127.622 174.485 126.637 172.308 127.221 170.188C127.802 168.078 129.764 166.713 131.869 166.814Z" fill="#E2E4F7"/>
<path d="M129.494 169.077C130.164 169.262 130.506 170.136 130.26 171.031C130.013 171.925 129.271 172.501 128.602 172.316C127.932 172.132 127.59 171.257 127.836 170.363C128.083 169.468 128.825 168.893 129.494 169.077Z" fill="#ECEFFF"/>
</svg>
