<svg width="16" height="19" viewBox="0 0 16 19" fill="none" xmlns="http://www.w3.org/2000/svg">
<mask id="path-1-inside-1_702_4928" fill="white">
<path fill-rule="evenodd" clip-rule="evenodd" d="M0.87868 0.87868C0 1.75736 0 3.17157 0 6V18.3333L4.8 13.3974C4.9875 13.2322 5.1597 13.0804 5.31943 12.9413L8 9.87207L10.6806 12.9413C10.8403 13.0804 11.0125 13.2322 11.2 13.3974L16 18.3333V6C16 3.17157 16 1.75736 15.1213 0.87868C14.2426 0 12.8284 0 10 0H6C3.17157 0 1.75736 0 0.87868 0.87868Z"/>
</mask>
<path d="M0 18.3333H-2V23.2587L1.43381 19.7277L0 18.3333ZM4.8 13.3974L3.47755 11.8971L3.41983 11.9479L3.36619 12.0031L4.8 13.3974ZM5.31943 12.9413L6.63293 14.4495L6.73594 14.3598L6.82579 14.2569L5.31943 12.9413ZM8 9.87207L9.50637 8.55645L8 6.83168L6.49363 8.55645L8 9.87207ZM10.6806 12.9413L9.17421 14.2569L9.26406 14.3598L9.36707 14.4495L10.6806 12.9413ZM11.2 13.3974L12.6338 12.0031L12.5802 11.9479L12.5224 11.8971L11.2 13.3974ZM16 18.3333L14.5662 19.7277L18 23.2587V18.3333H16ZM15.1213 0.87868L16.5355 -0.535534V-0.535534L15.1213 0.87868ZM2 6C2 4.52925 2.00425 3.62738 2.092 2.97468C2.17202 2.37951 2.28709 2.29869 2.29289 2.29289L-0.535534 -0.535534C-1.40841 0.337344 -1.73268 1.40297 -1.87233 2.44169C-2.00425 3.42288 -2 4.64233 -2 6H2ZM2 18.3333V6H-2V18.3333H2ZM3.36619 12.0031L-1.43381 16.939L1.43381 19.7277L6.23381 14.7918L3.36619 12.0031ZM4.00592 11.4331C3.84085 11.5768 3.66395 11.7328 3.47755 11.8971L6.12245 14.8978C6.31106 14.7316 6.47855 14.5839 6.63293 14.4495L4.00592 11.4331ZM6.82579 14.2569L9.50637 11.1877L6.49363 8.55645L3.81306 11.6257L6.82579 14.2569ZM6.49363 11.1877L9.17421 14.2569L12.1869 11.6257L9.50637 8.55645L6.49363 11.1877ZM12.5224 11.8971C12.3361 11.7328 12.1591 11.5768 11.9941 11.4331L9.36707 14.4495C9.52145 14.5839 9.68894 14.7316 9.87755 14.8978L12.5224 11.8971ZM17.4338 16.939L12.6338 12.0031L9.76619 14.7918L14.5662 19.7277L17.4338 16.939ZM14 6V18.3333H18V6H14ZM13.7071 2.29289C13.7129 2.29869 13.828 2.37951 13.908 2.97468C13.9958 3.62738 14 4.52925 14 6H18C18 4.64233 18.0042 3.42287 17.8723 2.44169C17.7327 1.40297 17.4084 0.337344 16.5355 -0.535534L13.7071 2.29289ZM10 2C11.4708 2 12.3726 2.00425 13.0253 2.092C13.6205 2.17202 13.7013 2.28709 13.7071 2.29289L16.5355 -0.535534C15.6627 -1.40841 14.597 -1.73268 13.5583 -1.87233C12.5771 -2.00425 11.3577 -2 10 -2V2ZM6 2H10V-2H6V2ZM2.29289 2.29289C2.2987 2.28709 2.37951 2.17202 2.97468 2.092C3.62738 2.00425 4.52925 2 6 2V-2C4.64233 -2 3.42287 -2.00425 2.44169 -1.87233C1.40297 -1.73268 0.337344 -1.40841 -0.535534 -0.535534L2.29289 2.29289Z" fill="#BEBEBE" mask="url(#path-1-inside-1_702_4928)"/>
</svg>
