<svg width="164" height="97" viewBox="0 0 164 97" fill="none" xmlns="http://www.w3.org/2000/svg">
<path d="M81.6626 0.0177465C53.288 -0.444893 2.52339 7.98633 0.076868 43.1802C-2.36966 78.374 54.1864 98.79 83.7094 96.5831C113.232 94.3763 164 78.6864 164 46.3761C164 10.346 115.541 0.569457 81.6626 0.0177465Z" fill="#FFB591"/>
<path d="M17.207 44.365C17.207 44.365 36.64 72.1633 57.5462 76.7245C78.4525 81.2871 102.946 79.8779 111.244 75.6251C129.731 66.149 146.933 42.3376 146.933 42.3376L17.207 44.365Z" fill="#F5A27A"/>
<path d="M38.2111 38.8243L84.5813 42.1758L135.535 38.3962L145.399 42.9535L107.41 61.3022L38.2111 56.737L21.0195 45.3278L38.2111 38.8243Z" fill="#913D3B"/>
<path d="M26.6797 42.8551C26.6797 42.8551 65.5111 42.5334 69.8008 42.8551C74.089 43.1769 98.8686 42.2197 98.8686 42.2197L139.19 41.9671L104.88 30.2149L64.9946 29.1833L26.6797 42.8551Z" fill="#FF9492"/>
<path d="M99.0414 48.7965C99.0848 50.3732 97.7747 51.6534 96.1142 51.6534H87.2459C85.5645 51.6534 84.2529 50.3532 84.3188 48.7765L84.4281 46.1749L84.5808 42.1746C84.6467 40.0662 86.4808 38.3911 88.7088 38.3911H94.7367C96.0693 38.3911 97.2701 39.0026 98.0127 39.9479C98.5368 40.5594 98.8422 41.3663 98.8647 42.2145L99.0414 48.7965Z" fill="white"/>
<path d="M110.118 46.7276C110.205 48.206 109.266 49.5261 108.043 49.663L101.403 50.333C100.179 50.4713 99.1313 49.328 99.1089 47.8111L99.043 41.5442C99.043 40.934 99.1523 40.3424 99.3918 39.8106C99.8725 38.6288 100.855 37.7806 101.991 37.6623L106.49 37.189C107.714 37.0707 108.805 37.8191 109.331 39.0223C109.549 39.4557 109.679 39.9675 109.724 40.5006L110.118 46.7276Z" fill="white"/>
<path d="M68.9818 41.544L68.9384 47.8109C68.9175 49.3278 67.8679 50.4711 66.6236 50.3328L60.0058 49.6628C58.76 49.5246 57.8212 48.2044 57.9305 46.7274L58.3243 40.5004C58.3677 39.7905 58.5863 39.1604 58.8918 38.6485C59.4817 37.6634 60.4639 37.0918 61.5569 37.1901L66.0562 37.6634C67.0833 37.7618 67.9562 38.4518 68.4593 39.4369C68.8082 40.0471 68.9818 40.7756 68.9818 41.544Z" fill="white"/>
<path d="M57.9088 40.4604L57.8429 46.0958C57.8429 47.4558 56.9042 48.4808 55.7677 48.3625L49.8041 47.7523C48.7126 47.634 47.8607 46.4521 47.9475 45.1121L48.253 40.1852L48.2964 39.5152C48.4057 37.7018 49.6948 36.3818 51.2011 36.54L55.2646 36.9534C56.16 37.0517 56.946 37.6434 57.4267 38.5102C57.7336 39.0818 57.9088 39.7518 57.9088 40.4604Z" fill="white"/>
<path d="M47.9298 37.9969L47.9088 40.2822L47.8863 43.6323C47.8638 44.9724 46.9251 46.016 45.8111 45.899L39.8475 45.2875C39.2576 45.229 38.756 44.874 38.4281 44.3609C38.1227 43.8876 37.9475 43.2973 37.9909 42.6459L38.2305 38.8238L38.3398 37.0504C38.4491 35.237 39.7382 33.9169 41.2444 34.0751L45.308 34.4886C45.9189 34.5471 46.4654 34.8435 46.8801 35.2969C47.5374 35.9483 47.9522 36.9333 47.9298 37.9969Z" fill="white"/>
<path d="M120.073 45.1107C120.16 46.4508 119.309 47.6326 118.216 47.7509L112.232 48.3612C111.118 48.4795 110.179 47.4545 110.179 46.0945L110.113 40.4591C110.113 39.9659 110.2 39.5138 110.332 39.0791C110.747 37.9159 111.664 37.069 112.756 36.9507L116.82 36.5373C118.327 36.3791 119.615 37.7005 119.724 39.5125L119.768 40.3208L120.073 45.1107Z" fill="white"/>
<path d="M130.039 42.6476C130.062 42.9826 130.017 43.2977 129.93 43.5928C129.712 44.4995 129.035 45.1894 128.183 45.2878L122.219 45.8993C121.105 46.0177 120.166 44.9728 120.144 43.6327L120.101 40.3809L120.078 37.996C120.078 36.1826 121.236 34.6259 122.721 34.4889L125.363 34.2137L126.783 34.0755C127.503 33.997 128.181 34.2523 128.683 34.7654C129.25 35.2972 129.622 36.1055 129.688 37.0507L130.039 42.6476Z" fill="white"/>
<path d="M83.7304 48.7965C83.7739 50.3732 82.4638 51.6534 80.8033 51.6534H71.9125C70.2521 51.6534 68.942 50.3532 68.9854 48.7765L69.2474 42.1746C69.2908 41.1696 69.7281 40.2829 70.4048 39.6128C71.1475 38.8644 72.218 38.3911 73.3754 38.3911H79.4258C81.6537 38.3911 83.4879 40.0861 83.5538 42.2145L83.6631 46.1948L83.7304 48.7965Z" fill="white"/>
<path d="M47.9361 37.9979L47.9151 40.2832C46.6484 40.6581 45.3817 41.013 44.3112 41.2483C40.3584 42.1351 39.6158 44.4403 39.6158 44.4403L38.436 44.3619C38.1305 43.8886 37.9553 43.2983 37.9987 42.6469L38.2383 38.8248L46.888 35.2979C47.5438 35.9493 47.9586 36.9343 47.9361 37.9979Z" fill="#FAE5E5"/>
<path d="M57.4315 38.5106C56.9075 38.4708 56.4928 38.4322 56.2742 38.3923C55.0075 38.1955 51.5787 39.2391 48.2578 40.1857L48.3012 39.5157C48.4105 37.7023 49.6997 36.3822 51.2059 36.5404L55.2695 36.9539C56.1648 37.0522 56.9509 37.6439 57.4315 38.5106Z" fill="#FAE5E5"/>
<path d="M68.4659 39.4356C65.4519 39.1591 61.5201 38.864 58.8984 38.6473C59.4884 37.6622 60.4706 37.0905 61.5636 37.1889L66.0628 37.6622C67.0899 37.7606 67.9643 38.4505 68.4659 39.4356Z" fill="#FAE5E5"/>
<path d="M83.5591 42.2143L83.6684 46.1946C82.0948 46.2145 80.6319 46.0962 79.518 45.8994C76.5908 45.3677 73.5544 40.4408 72.7249 39.9875C72.5497 39.8692 71.6768 39.7508 70.4102 39.6126C71.1528 38.8641 72.2233 38.3909 73.3807 38.3909H79.4311C81.6591 38.3922 83.4932 40.0859 83.5591 42.2143Z" fill="#FAE5E5"/>
<path d="M98.0158 39.9489C96.2251 40.1258 94.8701 40.2441 94.4988 40.3624C93.6693 40.6376 93.9747 42.9242 90.9817 44.6578C89.3003 45.6229 86.8103 46.0762 84.4297 46.1746L84.5824 42.1744C84.6483 40.0659 86.4824 38.3909 88.7104 38.3909H94.7383C96.0724 38.3922 97.2732 39.0024 98.0158 39.9489Z" fill="#FAE5E5"/>
<path d="M109.333 39.0225C107.761 38.9042 106.45 38.9042 105.554 39.0624C103.611 39.3974 101.36 39.6141 99.3945 39.8109C99.8752 38.629 100.857 37.7809 101.994 37.6625L106.493 37.1892C107.718 37.0722 108.809 37.8207 109.333 39.0225Z" fill="#FAE5E5"/>
<path d="M119.732 39.5157L119.776 40.324C116.762 39.8307 113.245 39.3189 110.34 39.0823C110.755 37.919 111.672 37.0722 112.764 36.9539L116.827 36.5404C118.335 36.3822 119.623 37.7023 119.732 39.5157Z" fill="#FAE5E5"/>
<path d="M130.039 42.6474C130.062 42.9824 130.017 43.2974 129.93 43.5926L127.855 43.7694C127.855 43.7694 127.811 42.0544 126.392 41.621C125.846 41.4442 123.29 40.9311 120.101 40.3794L120.078 37.9944C120.078 36.181 121.236 34.6243 122.721 34.4873L125.363 34.2122L128.684 34.7639C129.252 35.2957 129.623 36.1039 129.689 37.0492L130.039 42.6474Z" fill="#FAE5E5"/>
<path d="M147.296 42.4509C147.296 42.4509 143.998 45.801 139.149 50.353C130.609 58.4119 117.285 70.196 109.312 73.3693C103.305 75.7928 83.2761 78.7481 59.4232 74.4727C46.2518 72.0691 30.9183 57.4468 22.9679 48.9544C22.9454 48.9544 22.9454 48.9345 22.9454 48.9345C19.5811 45.3477 17.5508 42.8657 17.5508 42.8657C17.5508 42.8657 22.3779 40.9938 36.4657 43.7723C49.0906 46.2557 68.859 52.8563 85.9173 52.601C104.374 52.3444 121.083 45.6056 133.797 41.9603C140.045 40.9925 147.296 42.4509 147.296 42.4509Z" fill="#F06461"/>
<path d="M64.8961 55.9378C75.5327 57.4507 90.5487 58.6232 103.448 56.0282C105.358 55.644 106.364 58.1473 104.738 59.1975C99.5921 62.5251 92.4532 64.6747 84.7842 64.5006C78.1843 64.3503 70.2683 62.1036 63.9169 59.3863C61.9361 58.5381 62.755 55.6333 64.8961 55.9378Z" fill="#FF9492"/>
<path d="M93.5399 35.692C93.5399 38.6087 91.9019 41.3672 89.2592 42.9825C89.1065 43.1008 88.9313 43.1992 88.7562 43.2976L87.6422 41.6026C89.0406 40.8342 90.1321 39.6909 90.7445 38.3707C91.1383 37.5239 91.3554 36.6172 91.3554 35.6906C91.3554 35.6122 91.3554 35.5524 91.333 35.4739C91.2237 31.7888 87.8593 28.8335 83.7313 28.8335C79.5375 28.8335 76.1088 31.9071 76.1088 35.6906C76.1088 35.7691 76.1088 35.8289 76.1312 35.9073C76.1312 36.6957 76.3064 37.4641 76.6343 38.1926C77.2242 39.5925 78.3382 40.7943 79.8459 41.6012L78.7095 43.2963C78.4909 43.178 78.2723 43.0596 78.0762 42.9014C75.4994 41.2662 73.9258 38.5462 73.9258 35.6893V35.551C74.0126 30.7425 78.3816 26.8606 83.7328 26.8606C88.8879 26.8606 93.1251 30.4474 93.4965 34.9993C93.5399 35.2386 93.5399 35.4553 93.5399 35.692Z" fill="#ACAFC7"/>
<path d="M78.0762 42.9046C75.4994 41.2694 73.9258 38.5494 73.9258 35.6925V35.5542L76.1312 35.9092C76.1312 36.6975 76.3064 37.4659 76.6343 38.1944C76.1537 38.1359 75.5638 38.2144 75.4111 38.7262C75.1491 39.6129 76.9622 41.4263 77.9444 42.0764C78.3382 42.3329 78.2723 42.6294 78.0762 42.9046Z" fill="#8F93AD"/>
<path d="M81.6333 43.9598C80.8697 44.7867 79.5072 44.8983 78.5938 44.2124C77.6775 43.5224 77.5532 42.294 78.3168 41.4671C78.4217 41.3528 78.5399 41.2544 78.6672 41.168C79.4487 40.6256 80.5672 40.6269 81.3577 41.2212C82.1438 41.8127 82.346 42.8045 81.8968 43.5955C81.8249 43.7231 81.7381 43.8454 81.6333 43.9598Z" fill="#606AA3"/>
<path d="M82.0223 42.1107C81.8935 42.9921 81.103 43.7047 80.0833 43.7884C79.0592 43.8722 78.1384 43.3005 77.8359 42.4537C77.9647 41.5723 78.7553 40.8597 79.7794 40.7759C80.8005 40.6922 81.7198 41.2652 82.0223 42.1107Z" fill="#C3C6D6"/>
<path d="M80.6408 41.5085C80.6707 41.801 80.3428 42.0655 79.9116 42.1014C79.4789 42.1373 79.1046 41.9286 79.0761 41.6374C79.0462 41.3463 79.3741 41.0804 79.8053 41.0445C80.238 41.0086 80.6123 41.2174 80.6408 41.5085Z" fill="#ECF1FF"/>
<path d="M93.542 35.6922C93.542 38.6089 91.9039 41.3675 89.2613 42.9827C89.131 42.6278 89.1744 42.2928 89.5667 42.0561C90.6373 41.426 92.9086 38.7844 91.9908 38.4308C91.5326 38.2739 91.073 38.2925 90.7451 38.3723C91.1388 37.5254 91.3559 36.6188 91.3559 35.6922C91.3559 35.6137 91.3559 35.5539 91.3335 35.4755L93.4955 35.0022C93.5419 35.2388 93.542 35.4555 93.542 35.6922Z" fill="#8F93AD"/>
<path d="M89.7043 42.8137C89.6414 43.8892 88.6263 44.7148 87.4389 44.659C86.2471 44.6031 85.3308 43.6858 85.3937 42.6103C85.4027 42.4614 85.4311 42.3192 85.4746 42.1822C85.7411 41.3261 86.6364 40.7212 87.6635 40.7704C88.6861 40.8182 89.5067 41.5029 89.6729 42.3803C89.7013 42.5212 89.7133 42.6648 89.7043 42.8137Z" fill="#606AA3"/>
<path d="M89.6734 42.3805C89.4084 43.2367 88.513 43.8416 87.4904 43.7924C86.4633 43.7446 85.6428 43.0599 85.4766 42.1825C85.7431 41.3263 86.6384 40.7214 87.6656 40.7706C88.6867 40.8185 89.5072 41.5031 89.6734 42.3805Z" fill="#C3C6D6"/>
<path d="M88.3978 41.6069C88.3814 41.8994 88.016 42.12 87.5833 42.1001C87.1506 42.0802 86.8122 41.8263 86.8287 41.5338C86.8452 41.2413 87.2105 41.0206 87.6447 41.0406C88.0774 41.0605 88.4143 41.3144 88.3978 41.6069Z" fill="#ECF1FF"/>
<path d="M149.328 42.826C147.733 43.0427 145.876 43.0627 143.824 42.9244C129.779 41.9978 107.04 33.9787 98.8279 35.6338C87.7751 37.8407 79.4324 38.3924 66.2819 35.0422C59.5113 33.3273 41.3376 42.9829 27.2498 44.993C25.0653 45.328 22.9692 45.4463 21.0242 45.328C20.5436 45.308 20.0405 45.2296 19.5165 45.1312H19.494C16.4141 44.5396 13.8389 43.6436 13.0273 42.9098C15.4469 42.9098 19.7126 42.8646 23.3599 40.2828C37.2081 30.489 53.8966 16.9714 62.4579 16.9714C74.3402 16.9714 78.5565 20.3016 84.4317 20.3016C90.3295 20.3016 96.2047 16.7148 101.316 16.9714C114.75 17.6015 132.705 32.7756 145.505 39.5929C149.371 41.6442 156.731 41.8409 149.328 42.826Z" fill="#F06461"/>
<path d="M146.335 39.9825C146.335 39.9825 109.043 20.2233 102.816 19.8697C96.5886 19.5161 89.8269 22.7266 84.1688 23.3368C78.4747 23.947 72.1024 19.6809 60.7531 19.8697C51.0539 20.0306 24.2109 39.6236 24.2109 39.6236C39.0847 26.2536 53.1021 15.9213 61.6784 15.9213C73.5637 15.9213 77.7635 19.2608 83.6357 19.2608C89.5424 19.2608 95.4147 15.6647 100.54 15.9213C113.955 16.5634 146.335 39.9825 146.335 39.9825Z" fill="#FA8683"/>
<path d="M149.329 42.8261L143.825 42.9245C129.781 41.9979 107.042 33.9788 98.8295 35.6339C87.7767 37.8407 79.4339 38.3925 66.2835 35.0423C59.5129 33.3273 41.3391 42.983 27.2514 44.9931L19.5195 45.1313C20.1095 45.0728 30.746 43.9096 35.4863 41.6429C40.3794 39.2978 59.8633 32.1256 62.7889 33.0907C65.7161 34.0359 78.7991 36.7759 84.3045 36.5193C89.8309 36.2826 98.1393 34.8349 103.023 34.0559C112.161 32.5988 134.717 40.8147 141.007 41.6429C147.297 42.4512 149.329 42.8261 149.329 42.8261Z" fill="#E84F4C"/>
<path d="M139.15 50.3534C130.61 58.4124 120.087 70.0315 109.313 73.3697C103.089 75.2974 83.2769 78.7486 59.4241 74.4731C46.2527 72.0695 30.9192 57.4472 22.9688 48.9548C29.675 54.117 52.3465 70.7095 67.6156 71.9712C85.7235 73.4681 98.3304 72.4843 106.649 70.5912C115.106 68.6675 130.545 56.6004 139.15 50.3534Z" fill="#E84F4C"/>
</svg>
