<svg width="142" height="115" viewBox="0 0 142 115" fill="none" xmlns="http://www.w3.org/2000/svg">
<path d="M71.3112 114.984C95.8851 115.534 140.221 102.048 141.971 60.1158C143.399 25.876 103.557 -0.150302 69.5379 0.000653312C43.8819 0.115061 0 17.8372 0 56.3085C0 99.2116 41.9703 114.326 71.3112 114.984Z" fill="#FFB591"/>
<path d="M99.7738 63.9025C99.1509 67.1123 99.0539 70.5255 97.5539 73.2395C95.8203 76.3762 93.2223 77.6887 90.5766 79.988C87.6163 82.5622 84.486 86.6856 80.7534 87.9632C78.4954 88.7354 75.8164 87.1147 73.39 87.3356C70.606 87.5882 67.517 89.5553 64.6346 88.9976C61.0228 88.2969 57.9067 84.8838 54.9321 83.085C52.7298 81.755 49.2197 81.1115 47.4495 79.3032C45.1439 76.9467 44.7403 73.2761 43.3038 70.3126C41.6767 66.955 37.8583 63.4703 37.5611 59.6488C37.3546 56.9856 40.2974 54.0603 40.8313 51.3097C41.7625 46.5078 40.755 40.5839 43.5517 36.9578C45.4807 34.4568 50.8055 33.8895 53.3781 32.1114C55.1053 30.9181 56.1223 27.686 58.064 26.8709C60.5429 25.8285 64.0085 27.3269 66.7257 26.9742C69.8703 26.5658 74.0256 25.1801 77.31 25.8173C82.0802 26.7421 85.4791 30.2046 89.0909 32.9726C90.8451 34.3169 95.9999 37.0452 97.4093 38.7185C99.2589 40.9145 97.9718 44.245 99.1397 46.8732C100.436 49.7938 101.647 51.7578 101.967 55.0137C102.248 57.8691 100.347 60.9406 99.7738 63.9025Z" fill="#FF917B"/>
<path d="M98.2524 58.0196C98.2524 61.0483 98.7657 64.1676 97.8806 66.9006C96.8573 70.058 94.7264 71.7089 92.7274 74.2672C90.4885 77.1306 88.3704 81.4321 85.2019 83.2499C83.284 84.3511 80.562 83.3499 78.3962 83.9776C75.9094 84.6974 73.4481 87.0316 70.7293 87.0316C67.3209 87.0316 63.8871 84.4766 60.8648 83.3674C58.6275 82.5459 55.3223 82.5809 53.3949 81.2493C50.8827 79.5141 49.8689 76.2471 48.0399 73.8064C45.9679 71.0399 41.881 68.5452 40.9371 65.1225C40.2793 62.7374 42.4403 59.5594 42.4403 56.9645C42.4403 52.4343 40.4795 47.2256 42.3831 43.4358C43.6956 40.8203 48.4372 39.3664 50.4632 37.2959C51.8234 35.9055 52.1777 32.7895 53.8001 31.7042C55.8705 30.3202 59.2853 31.0702 61.6942 30.2709C64.4813 29.3461 68.0169 27.3535 71.1138 27.3535C75.6155 27.3535 79.3147 29.9023 83.087 31.7821C84.9191 32.6942 90.0865 34.2673 91.6644 35.5401C93.7333 37.2101 93.1501 40.466 94.6756 42.6493C96.3694 45.0757 97.817 46.6488 98.6814 49.5519C99.4378 52.0975 98.2524 55.2262 98.2524 58.0196Z" fill="#FF7D66"/>
<path d="M56.3124 35.3751C56.4491 35.8534 56.0534 36.3857 55.4273 36.5652C54.8013 36.7448 54.1832 36.5033 54.0465 36.0266C53.9099 35.5499 54.3055 35.016 54.9316 34.8364C55.5576 34.6569 56.1742 34.8968 56.3124 35.3751Z" fill="#FFB591"/>
<path d="M59.1913 40.5455C59.328 41.0222 58.9323 41.5561 58.3063 41.7356C57.6802 41.9152 57.0621 41.6737 56.9254 41.197C56.7888 40.7187 57.1844 40.1864 57.8105 40.0068C58.4366 39.8273 59.0547 40.0672 59.1913 40.5455Z" fill="#FFB591"/>
<path d="M50.082 43.1627C50.2186 43.6394 49.823 44.1733 49.1969 44.3529C48.5708 44.5324 47.9527 44.2908 47.8161 43.8141C47.6794 43.3374 48.075 42.8036 48.7011 42.624C49.3272 42.4445 49.9453 42.6844 50.082 43.1627Z" fill="#FFB591"/>
<path d="M66.4101 35.3751C66.5468 35.8534 66.1511 36.3857 65.525 36.5652C64.899 36.7448 64.2808 36.5033 64.1442 36.0266C64.0075 35.5499 64.4032 35.016 65.0293 34.8364C65.6553 34.6569 66.2719 34.8968 66.4101 35.3751Z" fill="#FFB591"/>
<path d="M75.2526 31.3071C75.2526 31.8045 74.7251 32.2065 74.0736 32.2065C73.4221 32.2065 72.8945 31.8029 72.8945 31.3071C72.8945 30.8097 73.4221 30.4077 74.0736 30.4077C74.7251 30.4077 75.2526 30.8097 75.2526 31.3071Z" fill="#FFB591"/>
<path d="M83.6076 36.4046C83.3104 36.8035 82.6478 36.8114 82.1251 36.4221C81.6023 36.0328 81.4195 35.3956 81.7167 34.9967C82.0138 34.5979 82.678 34.59 83.1992 34.9793C83.7204 35.367 83.9031 36.0058 83.6076 36.4046Z" fill="#FFB591"/>
<path d="M79.9943 41.2113C79.6972 41.6101 79.0346 41.618 78.5118 41.2287C77.989 40.8394 77.8062 40.2022 78.1034 39.8034C78.4005 39.4045 79.0647 39.3966 79.5859 39.7859C80.1071 40.1736 80.2899 40.8124 79.9943 41.2113Z" fill="#FFB591"/>
<path d="M73.3474 36.9827C73.2314 37.4658 72.6244 37.7344 71.9904 37.5818C71.3579 37.4293 70.9384 36.9144 71.0544 36.4314C71.1704 35.9483 71.7774 35.6798 72.4114 35.8323C73.0439 35.9849 73.4634 36.4997 73.3474 36.9827Z" fill="#FFB591"/>
<path d="M87.4279 44.658C87.1308 45.0568 86.4681 45.0649 85.9454 44.6755C85.4226 44.2862 85.2398 43.649 85.537 43.2502C85.8341 42.8513 86.4983 42.8434 87.0195 43.2327C87.5407 43.6204 87.7235 44.2592 87.4279 44.658Z" fill="#FFB591"/>
<path d="M92.2209 42.8196C91.9237 43.2185 91.2611 43.2265 90.7383 42.8371C90.2155 42.4478 90.0328 41.8106 90.33 41.4118C90.6271 41.013 91.2897 41.005 91.8125 41.3943C92.3353 41.7836 92.518 42.4224 92.2209 42.8196Z" fill="#FFB591"/>
<path d="M93.5537 62.32C93.1167 62.0833 93.0134 61.427 93.3233 60.855C93.6331 60.283 94.2385 60.0096 94.6755 60.2464C95.1125 60.4832 95.2158 61.1394 94.9059 61.7115C94.5961 62.2851 93.9906 62.5568 93.5537 62.32Z" fill="#FFB591"/>
<path d="M87.8427 60.759C87.4058 60.5223 87.3025 59.8676 87.6123 59.294C87.9222 58.7219 88.5276 58.4486 88.9646 58.6854C89.4016 58.9221 89.5048 59.5768 89.195 60.1504C88.8851 60.7241 88.2797 60.9958 87.8427 60.759Z" fill="#FFB591"/>
<path d="M92.3466 52.4206C91.9097 52.1839 91.8064 51.5276 92.1162 50.9556C92.4261 50.3835 93.0315 50.1102 93.4685 50.347C93.9054 50.5838 94.0087 51.2384 93.6989 51.8121C93.389 52.3841 92.7836 52.6574 92.3466 52.4206Z" fill="#FFB591"/>
<path d="M87.831 68.9216C87.394 68.6848 87.2907 68.0286 87.6006 67.4566C87.9105 66.8845 88.5159 66.6112 88.9528 66.848C89.3898 67.0847 89.4931 67.7394 89.1832 68.313C88.8734 68.8867 88.268 69.1568 87.831 68.9216Z" fill="#FFB591"/>
<path d="M87.0107 77.2722C86.5737 77.0354 86.4704 76.3792 86.7803 75.8071C87.0902 75.2351 87.6956 74.9618 88.1325 75.1986C88.5695 75.4353 88.6728 76.0916 88.3629 76.6636C88.0531 77.2357 87.4477 77.509 87.0107 77.2722Z" fill="#FFB591"/>
<path d="M73.1137 80.7536C73.0215 80.2658 73.4648 79.7717 74.1052 79.6509C74.7456 79.5302 75.3383 79.8273 75.4304 80.3151C75.5226 80.8029 75.0793 81.2971 74.4389 81.4179C73.8001 81.5403 73.2058 81.2431 73.1137 80.7536Z" fill="#FFB591"/>
<path d="M70.7231 75.3397C70.6309 74.8519 71.0742 74.3576 71.7146 74.2369C72.355 74.1161 72.9477 74.4133 73.0398 74.9011C73.132 75.3889 72.6887 75.8831 72.0483 76.0038C71.4079 76.1246 70.8152 75.8275 70.7231 75.3397Z" fill="#FFB591"/>
<path d="M80.0395 73.5779C79.9473 73.09 80.3906 72.5959 81.031 72.4751C81.6714 72.3544 82.2641 72.6515 82.3562 73.1393C82.4484 73.6271 82.0051 74.1214 81.3647 74.2421C80.7243 74.3629 80.1316 74.0657 80.0395 73.5779Z" fill="#FFB591"/>
<path d="M64.3871 80.4851C64.295 79.9973 64.7383 79.5031 65.3787 79.3824C66.019 79.2616 66.6117 79.5587 66.7039 80.0465C66.7961 80.5344 66.3527 81.0286 65.7123 81.1493C65.072 81.2701 64.4793 80.9729 64.3871 80.4851Z" fill="#FFB591"/>
<path d="M54.0829 74.9157C54.3308 74.4851 54.9903 74.4009 55.5544 74.7266C56.1185 75.0524 56.3743 75.6641 56.1248 76.0947C55.8769 76.5253 55.2175 76.6096 54.6534 76.2838C54.0909 75.9581 53.8351 75.3447 54.0829 74.9157Z" fill="#FFB591"/>
<path d="M47.6099 67.4012C47.9642 67.0532 48.6205 67.1454 49.0781 67.6093C49.5357 68.0733 49.6184 68.7311 49.2656 69.0807C48.9113 69.4287 48.255 69.3366 47.7974 68.8726C47.3397 68.4086 47.2555 67.7492 47.6099 67.4012Z" fill="#FFB591"/>
<path d="M52.9967 63.1268C53.351 62.7788 54.0073 62.8709 54.4649 63.3349C54.9226 63.7989 55.0052 64.4567 54.6508 64.8063C54.2965 65.1559 53.6402 65.0621 53.1826 64.5982C52.7266 64.1342 52.6423 63.4764 52.9967 63.1268Z" fill="#FFB591"/>
<path d="M59.6523 69.8802C60.0066 69.5322 60.6629 69.6244 61.1205 70.0883C61.5781 70.5523 61.6608 71.2101 61.3064 71.5597C60.9521 71.9077 60.2958 71.8156 59.8382 71.3516C59.3821 70.8876 59.2995 70.2298 59.6523 69.8802Z" fill="#FFB591"/>
<path d="M45.1951 60.7342C45.5495 60.3862 46.2057 60.4784 46.6633 60.9424C47.121 61.4064 47.2036 62.0642 46.8508 62.4138C46.4965 62.7618 45.8402 62.6696 45.3826 62.2056C44.925 61.7417 44.8424 61.0838 45.1951 60.7342Z" fill="#FFB591"/>
<path d="M48.1145 55.7272C48.5928 55.5905 49.1251 55.9862 49.3047 56.6123C49.4842 57.2383 49.2427 57.8565 48.766 57.9931C48.2877 58.1298 47.7554 57.7341 47.5758 57.1081C47.3947 56.4836 47.6362 55.8654 48.1145 55.7272Z" fill="#FFB591"/>
<path d="M52.4341 49.8108C52.9299 49.8506 53.289 50.4098 53.2366 51.0582C53.1841 51.7065 52.7408 52.2007 52.245 52.161C51.7492 52.1213 51.3901 51.5619 51.4426 50.9136C51.495 50.2637 51.9383 49.7711 52.4341 49.8108Z" fill="#FFB591"/>
<path d="M45.6059 47.0128C46.0841 46.8762 46.6165 47.2718 46.796 47.8979C46.9756 48.524 46.7341 49.1421 46.2574 49.2788C45.7791 49.4154 45.2467 49.0198 45.0672 48.3937C44.8876 47.7676 45.1292 47.1495 45.6059 47.0128Z" fill="#FFB591"/>
<path d="M82.2617 57.1917C82.2617 60.0694 81.9232 63.3729 80.2786 65.4767C78.0111 68.3735 73.8384 69.5811 69.8738 69.5811C66.1158 69.5811 62.2117 68.8693 59.9394 66.2268C58.0739 64.0578 57.4844 60.2759 57.4844 57.1917C57.4844 54.1074 57.6035 50.3145 59.469 48.1455C61.7413 45.503 66.1174 44.8022 69.8738 44.8022C73.6763 44.8022 78.0063 46.3436 80.2786 49.0401C82.0948 51.1948 82.2617 54.1519 82.2617 57.1917Z" fill="#F56F58"/>
<path d="M60.1482 55.2104H53.6523V59.7265H60.1482V55.2104Z" fill="#DDDFF2"/>
<path d="M60.1482 57.1904H53.6523V59.7265H60.1482V57.1904Z" fill="#BCC2E3"/>
<path d="M85.8755 55.2056H79.3828V59.7216H85.8755V55.2056Z" fill="#DDDFF2"/>
<path d="M84.1208 57.1904H77.625V59.7265H84.1208V57.1904Z" fill="#BCC2E3"/>
<path d="M80.284 57.1968C80.284 62.9458 75.6139 67.5985 69.8649 67.5985C66.3293 67.5985 63.1847 65.8315 61.3065 63.0953C60.1529 61.4205 59.4648 59.3928 59.4648 57.1968C59.4648 51.4478 64.1349 46.7778 69.8665 46.7778C72.0625 46.7778 74.09 47.4659 75.7839 48.6195C78.4979 50.4993 80.284 53.6422 80.284 57.1968Z" fill="#D6472C"/>
<path d="M77.6239 54.5353C77.6239 60.2668 72.9539 64.9369 67.2049 64.9369C65.0089 64.9369 62.9813 64.2489 61.3065 63.0953C60.1529 61.4205 59.4648 59.3928 59.4648 57.1968C59.4648 51.4478 64.1349 46.7778 69.8664 46.7778C72.0624 46.7778 74.09 47.4659 75.7839 48.6195C76.9359 50.2943 77.6239 52.3218 77.6239 54.5353Z" fill="#E65336"/>
<path d="M57.1375 54.9024C58.3992 57.3446 57.4426 60.3447 55.0114 61.6C52.5691 62.8617 49.5691 61.9051 48.3074 59.4628C48.1342 59.1259 48.0071 58.7779 47.9181 58.4236C47.3429 56.2276 48.3455 53.8568 50.4494 52.7699C52.5437 51.6878 55.0575 52.2424 56.5162 53.9824C56.7529 54.2604 56.9643 54.5655 57.1375 54.9024Z" fill="#AFB3D4"/>
<path d="M56.5162 53.9824C57.0914 56.1784 56.0887 58.5491 53.9944 59.6312C51.889 60.7181 49.3768 60.1635 47.9181 58.4236C47.3429 56.2276 48.3455 53.8568 50.4494 52.7699C52.5453 51.6878 55.0575 52.2424 56.5162 53.9824Z" fill="#DDDFF2"/>
<path d="M52.9888 53.7567C53.332 54.4209 52.8902 55.3314 52.002 55.7907C51.1137 56.2499 50.1158 56.083 49.7726 55.4188C49.4294 54.7546 49.8711 53.8441 50.7594 53.3849C51.6476 52.9256 52.6455 53.0925 52.9888 53.7567Z" fill="#ECEFFF"/>
<path d="M91.2937 54.9024C92.5554 57.3446 91.5988 60.3447 89.1677 61.6C86.7254 62.8617 83.7253 61.9051 82.4636 59.4628C82.2904 59.1259 82.1633 58.7779 82.0743 58.4236C81.4991 56.2276 82.5018 53.8568 84.6056 52.7699C86.6999 51.6878 89.2137 52.2424 90.6724 53.9824C90.9092 54.2604 91.1189 54.5655 91.2937 54.9024Z" fill="#AFB3D4"/>
<path d="M90.6724 53.9824C91.2476 56.1784 90.245 58.5491 88.1507 59.6312C86.0453 60.7181 83.5331 60.1635 82.0743 58.4236C81.4991 56.2276 82.5018 53.8568 84.6056 52.7699C86.6999 51.6878 89.2137 52.2424 90.6724 53.9824Z" fill="#DDDFF2"/>
<path d="M87.145 53.7567C87.4882 54.4209 87.0465 55.3314 86.1582 55.7907C85.27 56.2499 84.2721 56.083 83.9289 55.4188C83.5856 54.7546 84.0274 53.8441 84.9156 53.3849C85.8039 52.9256 86.8018 53.0925 87.145 53.7567Z" fill="#ECEFFF"/>
<path d="M70.4367 50.7185C71.0548 51.9134 70.2603 53.5517 68.6618 54.378C67.0632 55.2026 65.2677 54.9039 64.6511 53.7074C64.033 52.5125 64.8275 50.8742 66.4261 50.048C68.023 49.2233 69.8186 49.5236 70.4367 50.7185Z" fill="#F26448"/>
</svg>
