<svg width="66" height="96" viewBox="0 0 66 96" fill="none" xmlns="http://www.w3.org/2000/svg">
<path d="M28.2873 22.533L25.5937 24.6363L8.10046 38.2703L4.92282 40.7371C4.87726 40.3736 4.83171 40.0263 4.78614 39.6779C4.63526 38.6491 4.48335 37.6648 4.34766 36.7423L8.46401 33.5343L17.7255 26.3162L25.1248 20.5503C25.9724 20.8986 26.7896 21.3675 27.5612 21.9427C27.8033 22.1249 28.0453 22.3214 28.2873 22.533Z" fill="#CDD3F5"/>
<path d="M28.2863 22.533L25.5927 24.6362L8.09948 38.2703L4.92184 40.7371C4.87627 40.3736 4.83072 40.0262 4.78516 39.6779L8.05393 37.1351L23.8672 24.8175L27.5592 21.9426C27.8023 22.1249 28.0443 22.3214 28.2863 22.533Z" fill="#B4BDE6"/>
<path d="M49.9865 5.55208L47.2929 7.65531L29.7997 21.2894L26.622 23.7562C26.5765 23.3926 26.5309 23.0453 26.4863 22.697C26.3345 21.6681 26.1836 20.6849 26.0469 19.7613L30.1632 16.5533L39.4248 9.33526L46.8241 3.56934C47.6716 3.91768 48.4888 4.38653 49.2604 4.96171C49.5014 5.14297 49.7445 5.33942 49.9865 5.55208Z" fill="#CDD3F5"/>
<path d="M49.9845 5.55204L47.2909 7.65528L29.7977 21.2894L26.6201 23.7561C26.5745 23.3926 26.5289 23.0453 26.4844 22.6969L29.7531 20.1542L45.5664 7.83655L49.2585 4.96167C49.4995 5.14293 49.7425 5.33939 49.9845 5.55204Z" fill="#B4BDE6"/>
<path d="M63.2487 49.3829C63.3338 35.838 65.7641 36.4121 64.55 24.2808C64.55 24.2808 50.28 5.24434 31.849 5.04789C13.4333 4.85144 6.51703 21.2703 8.09167 29.2903C9.6653 37.3255 8.56052 47.706 11.3908 55.7412C12.3133 58.3741 14.1756 62.5208 17.3988 66.8934C21.0605 71.9018 26.5084 77.2293 34.3472 80.9366C39.3253 83.297 41.1723 92.1495 48.0876 94.7074C59.2549 98.8389 64.5246 88.8219 64.9449 87.0812C68.0992 73.999 63.1637 62.9279 63.2487 49.3829ZM53.888 88.6984C49.883 88.6984 46.6365 85.4519 46.6365 81.4469C46.6365 77.442 49.883 74.1954 53.888 74.1954C57.8929 74.1954 61.1394 77.442 61.1394 81.4469C61.1394 85.4519 57.8929 88.6984 53.888 88.6984Z" fill="#FFB591"/>
<path d="M43.2363 27.5991C41.7386 27.1454 29.9577 27.912 24.2981 30.9833C18.6385 34.0708 17.8972 47.7353 19.5012 53.2582C21.0597 58.6302 45.3304 83.5348 28.1876 70.0395C28.1876 70.0547 28.1876 70.0547 28.2028 70.0699C28.2028 70.0699 28.1876 70.0547 28.1724 70.0395C27.8088 69.6455 27.4615 69.2679 27.1132 68.8891C24.7072 66.2563 19.0324 59.8251 17.3372 56.0571C15.1732 51.2146 14.9768 43.3151 15.2644 38.579C15.5672 33.8429 13.2968 25.7469 14.19 24.3546C15.0679 22.9774 24.1624 11.2197 32.0609 11.9154C35.2689 12.203 38.0385 14.049 40.323 16.7882C43.6667 20.8134 46.015 27.5586 47.0145 33.2485C46.1142 29.4461 44.7198 28.0537 43.2363 27.5991Z" fill="#F5A782"/>
<path d="M49.3727 64.699C45.1966 64.9562 44.0463 60.1897 41.1714 58.4034C41.1411 58.3883 41.1259 58.3882 41.1259 58.3882C40.5203 58.0095 39.855 57.7675 39.0682 57.7371C37.5401 57.5558 36.1933 57.2379 35.0126 56.8136C27.6579 54.1808 26.7658 47.4315 28.7475 43.4975C31.7742 37.4602 45.2726 34.0547 45.2726 34.0547H46.589C46.665 34.3727 46.7409 34.6906 46.8159 35.0228C47.2543 36.8688 47.6786 38.9123 47.9966 40.576C48.2994 42.1193 48.5262 43.3304 48.6021 43.7385C48.6173 43.8448 48.6325 43.9046 48.6325 43.9046C48.6325 43.9046 47.6341 47.3242 47.8153 50.8198C47.8457 51.3191 47.9065 51.7879 47.9966 52.2274C48.4806 54.3914 49.8123 55.9195 52.0826 58.4926C54.8055 61.5821 54.7751 64.3506 49.3727 64.699Z" fill="#F0A27D"/>
<path d="M48.6031 43.7404C48.5271 43.8164 48.4674 43.8923 48.4066 43.9673C46.031 46.752 44.8655 51.8962 40.7947 51.8658C40.4312 51.8658 40.0383 51.8202 39.6291 51.7301C37.3143 51.2157 36.1791 50.1413 35.7548 48.9008C35.0136 46.8128 36.1933 44.2548 36.9507 43.0599C39.2211 39.4732 47.1965 36.4009 47.1965 36.4009C47.1965 36.4009 49.1327 43.1652 48.6031 43.7404Z" fill="#FFBC9C"/>
<path d="M28.1871 70.0403C28.1871 70.0555 28.1871 70.0554 28.2023 70.0706C28.2023 70.0706 28.1871 70.0555 28.1719 70.0403H28.1871Z" fill="#E4926C"/>
<path d="M40.3265 16.7953C38.9341 16.6889 37.3301 16.6596 35.56 16.7953C35 16.8408 34.4248 16.9016 33.8345 16.9765C31.9125 17.2337 29.8548 17.7026 27.6908 18.4742C26.9344 18.7314 26.1628 19.0342 25.3911 19.3825C21.0024 21.3349 19.1564 23.3926 18.4303 25.6922C18.0668 26.8274 17.9767 28.0223 18.0212 29.2942C18.0212 29.6577 18.0364 30.0354 18.0668 30.4294C18.1883 32.8202 18.5204 35.453 17.9756 38.4342C16.5235 46.5302 15.7205 56.1239 27.1157 68.8962C24.7096 66.2634 19.0349 59.8321 17.3397 56.0641C15.1757 51.2217 14.9793 43.3222 15.2669 38.5861C15.3732 36.9517 15.1757 34.9092 14.8881 32.8961C14.8426 32.5326 14.797 32.1852 14.7524 31.8369C14.6005 30.8081 14.4497 29.8238 14.314 28.9013C13.996 26.7069 13.8147 24.952 14.1924 24.3617C15.0704 22.9845 24.1649 11.2268 32.0634 11.9225C33.1226 12.0288 34.1362 12.286 35.0901 12.7093C35.9377 13.0576 36.7549 13.5265 37.5265 14.1016C37.7686 14.2829 38.0106 14.4804 38.2526 14.692C38.9938 15.3128 39.6754 16.0236 40.3265 16.7953Z" fill="#E8976F"/>
<path d="M46.1148 31.0655C46.1148 31.0655 34.2498 31.7946 28.975 34.2928C22.4101 37.4025 20.3949 39.6941 19.5008 53.2583C17.1636 45.4034 19.4846 33.1272 24.2105 30.7192C29.9471 27.7947 43.1214 26.8803 44.6201 27.3339C45.0313 28.0964 46.1148 31.0655 46.1148 31.0655Z" fill="#FFBC9C"/>
<path d="M39.0945 18.5693C39.0945 18.5693 28.9946 20.2817 28.309 22.4214C27.6245 24.5611 41.9006 24.6471 42.2945 23.9626C42.6904 23.2771 40.4646 18.7405 39.0945 18.5693Z" fill="#FFBC9C"/>
<path d="M35.3154 40.7742C30.791 45.2987 28.1126 52.2443 35.0126 56.8143C27.6579 54.1814 26.7657 47.4323 28.7475 43.4982C31.7742 37.4609 40.5598 34.7116 45.2726 34.0554C46.5921 33.8721 47.5075 34.1536 47.5075 34.1536C47.5834 34.4716 47.0032 35.8265 47.0781 36.1597C44.5212 36.7348 38.9325 37.1581 35.3154 40.7742Z" fill="#E8976F"/>
<path d="M48.6022 43.7404C48.5262 43.8164 48.4665 43.8923 48.4057 43.9673C46.0301 46.752 44.8645 51.8962 40.7938 51.8658C40.4302 51.8658 40.0373 51.8202 39.6282 51.7301C37.3133 51.2157 36.1782 50.1413 35.7539 48.9008C37.9797 49.7362 40.9355 48.8633 42.2368 46.7145C43.7051 44.2933 46.7247 42.7724 48.6012 41.5623C48.9039 43.1055 48.5262 43.3323 48.6022 43.7404Z" fill="#FFBC9C"/>
<path d="M49.3732 64.699C45.1971 64.9562 44.0467 60.1898 41.1719 58.4035C41.4747 58.5098 43.6387 59.3564 46.393 61.9143C49.3742 64.699 53.127 62.7011 52.5974 61.5507C52.083 60.4156 47.4219 54.7104 47.997 52.2295C48.4811 54.3935 49.8127 55.9215 52.083 58.4946C54.806 61.5821 54.7756 64.3507 49.3732 64.699Z" fill="#E8976F"/>
<path d="M46.1945 36.3371C46.1945 36.3371 47.7752 36.6662 48.0729 35.9392C48.3706 35.2121 45.1849 20.7264 40.3242 16.7903C40.3242 16.7903 46.6279 32.1853 46.8851 33.1463C47.2415 34.4769 46.1945 36.3371 46.1945 36.3371Z" fill="#E8976F"/>
<path d="M34.1398 47.9308C34.1398 47.9308 33.923 54.2912 39.1988 54.5079C44.4747 54.7246 44.8676 51.557 46.1151 53.2593C47.0822 54.5787 47.6958 58.367 46.743 58.7538C45.6787 59.1852 43.5977 55.7797 41.1715 55.881C39.1229 55.967 33.9382 54.9484 33.1393 51.9054C32.3403 48.8635 33.9058 45.8002 34.1398 47.9308Z" fill="#FFBC9C"/>
<path d="M64.9446 87.0801C64.8089 88.8654 59.2546 98.8378 48.0873 94.7073C41.172 92.1504 39.326 83.298 34.3469 80.9365C26.5081 77.2293 21.0601 71.9028 17.3984 66.8933C24.1021 72.7342 34.5433 79.0297 37.6764 80.6641C41.2024 82.5101 42.8064 90.8178 51.7793 93.2238C58.3766 94.9797 62.977 89.8942 64.9446 87.0801Z" fill="#F5A782"/>
<path d="M41.1973 32.5366C41.1973 32.5366 31.7393 33.1108 27.8822 37.2757C26.6073 38.6529 22.0727 45.5844 22.0393 48.7144C21.9705 55.0505 35.7504 60.5662 36.1189 58.7901C36.44 57.2418 26.9091 55.1183 27.1491 49.3818C27.2685 46.511 27.8022 41.0417 30.3226 39.2139C34.0866 36.4859 42.6109 33.0389 41.1973 32.5366Z" fill="#FFD1BA"/>
<path d="M29.907 8.38251C29.907 8.38251 16.4005 10.8401 13.9814 16.7904C11.5632 22.7406 13.5257 29.4159 11.5632 29.4159C9.59971 29.4159 7.63115 21.5629 13.9814 14.1029C20.3316 6.64178 33.1788 4.71779 29.907 8.38251Z" fill="#FFD1BA"/>
<path d="M52.8718 58.4699C52.8718 58.4699 54.9639 61.0279 54.17 63.6961C53.3761 66.3654 46.1368 64.1356 46.1135 64.7098C46.0912 65.2829 48.0263 67.4216 50.9539 66.893C53.8814 66.3654 55.1796 64.8506 55.1077 62.2531C55.0358 59.6568 53.0166 57.6467 52.8718 58.4699Z" fill="#FFD1BA"/>
<path d="M53.8626 73.3091C49.4506 73.3091 45.875 76.8857 45.875 81.2967C45.875 85.7088 49.4516 89.2844 53.8626 89.2844C58.2747 89.2844 61.8503 85.7078 61.8503 81.2967C61.8503 76.8847 58.2737 73.3091 53.8626 73.3091ZM53.8626 85.7017C51.4293 85.7017 49.4577 83.7291 49.4577 81.2967C49.4577 78.8634 51.4303 76.8918 53.8626 76.8918C56.296 76.8918 58.2676 78.8644 58.2676 81.2967C58.2676 83.7301 56.295 85.7017 53.8626 85.7017Z" fill="#E8976F"/>
<path d="M53.8623 73.8958C49.7743 73.8958 46.4609 77.209 46.4609 81.297C46.4609 85.385 49.7743 88.6984 53.8623 88.6984C57.9503 88.6984 61.2636 85.385 61.2636 81.297C61.2636 77.209 57.9493 73.8958 53.8623 73.8958ZM53.8623 85.379C51.6082 85.379 49.7804 83.5512 49.7804 81.297C49.7804 79.0429 51.6082 77.2151 53.8623 77.2151C56.1164 77.2151 57.9442 79.0429 57.9442 81.297C57.9432 83.5512 56.1164 85.379 53.8623 85.379Z" fill="#1C5866"/>
<path d="M53.8624 85.5511C51.5172 85.5511 49.6094 83.6423 49.6094 81.297C49.6094 78.9518 51.5172 77.0439 53.8624 77.0439C56.2077 77.0439 58.1155 78.9518 58.1155 81.297C58.1155 83.6423 56.2087 85.5511 53.8624 85.5511ZM53.8624 77.8024C51.9364 77.8024 50.3688 79.37 50.3688 81.296C50.3688 83.2231 51.9364 84.7906 53.8624 84.7906C55.7885 84.7906 57.356 83.2231 57.356 81.296C57.357 79.37 55.7895 77.8024 53.8624 77.8024Z" fill="#113640"/>
<path d="M54.3867 50.3713C54.3867 51.6432 53.3558 52.674 52.084 52.674C50.8121 52.674 49.7812 51.6432 49.7812 50.3713C49.7812 49.0994 50.8121 48.0686 52.084 48.0686C53.3558 48.0686 54.3867 49.0994 54.3867 50.3713Z" fill="#6E6E6E"/>
<path d="M53.5428 50.0635L54.0299 49.8965C53.9519 49.5744 53.7949 49.2869 53.5823 49.0469L53.2188 49.4154C53.3757 49.5997 53.4921 49.8185 53.5428 50.0635Z" fill="#B5B5B5"/>
<path d="M51.4069 51.6909L51.1406 52.1314C51.3107 52.2236 51.491 52.2985 51.6864 52.338L51.7998 51.8327C51.6601 51.8054 51.5305 51.7547 51.4069 51.6909Z" fill="#BFBFBF"/>
<path d="M50.8194 51.1501L50.3516 51.3668C50.3961 51.4448 50.4448 51.5188 50.4994 51.5897L50.9338 51.3081C50.8933 51.2575 50.8538 51.2058 50.8194 51.1501Z" fill="#BFBFBF"/>
<path d="M52.0841 48.8807V48.3643C51.9008 48.3643 51.7277 48.3966 51.5586 48.4422L51.6821 48.9425C51.8107 48.907 51.9444 48.8807 52.0841 48.8807Z" fill="#B3B3B3"/>
<path d="M53.0781 51.4733L53.4619 51.8237C53.6037 51.689 53.7212 51.532 53.8184 51.3609L53.3495 51.1462C53.2756 51.2678 53.1845 51.3771 53.0781 51.4733Z" fill="#C2C2C2"/>
<path d="M53.5352 50.6984L54.0526 50.746V50.7409L53.5361 50.6943L53.5352 50.6984Z" fill="#C9C9C9"/>
<path d="M53.1221 49.302L53.4482 48.9041L53.4462 48.9031L53.1211 49.301L53.1221 49.302Z" fill="#C9C9C9"/>
<path d="M51.1997 49.1787L50.9202 48.7422C50.6782 48.9164 50.4807 49.1442 50.3359 49.4065L50.7663 49.691C50.8716 49.4895 51.0184 49.3144 51.1997 49.1787Z" fill="#BABABA"/>
<path d="M51.418 49.0447L52.0833 50.5636L51.418 49.0447Z" fill="#DEDEDE"/>
<path d="M53.5381 50.6984L53.5391 50.6943L52.0859 50.5637L53.5381 50.6984Z" fill="#DEDEDE"/>
<path d="M53.0814 51.4728C53.1867 51.3776 53.2788 51.2673 53.3538 51.1457L52.0859 50.5645L53.0814 51.4728Z" fill="#DEDEDE"/>
<path d="M50.8203 51.15C50.8547 51.2057 50.8942 51.2574 50.9347 51.308L52.0851 50.5637L50.8203 51.15Z" fill="#DEDEDE"/>
<path d="M52.0859 50.5639L53.5431 50.0636C53.4915 49.8186 53.375 49.5999 53.2191 49.4146L52.0859 50.5639Z" fill="#DEDEDE"/>
<path d="M51.199 49.1785C51.0177 49.3131 50.8709 49.4883 50.7656 49.6908L52.0841 50.5637L51.199 49.1785Z" fill="#DEDEDE"/>
<path d="M52.0846 48.8809C51.9448 48.8809 51.8112 48.9061 51.6836 48.9426L52.0846 50.5638V48.8809Z" fill="#DEDEDE"/>
<path d="M51.4062 51.6908C51.5298 51.7546 51.6594 51.8052 51.7992 51.8325L52.0847 50.5637L51.4062 51.6908Z" fill="#DEDEDE"/>
<path d="M53.1209 49.302L53.1198 49.301L52.0859 50.5638L53.1209 49.302Z" fill="#DEDEDE"/>
<path d="M53.1188 49.3009L53.4449 48.903C53.0874 48.5718 52.6115 48.3643 52.0859 48.3643V48.8807C52.4869 48.8807 52.8505 49.0417 53.1188 49.3009Z" fill="#969696"/>
<path d="M53.1198 49.3008C52.8515 49.0416 52.488 48.8816 52.0859 48.8816V50.5646L53.1198 49.3008Z" fill="#A6A6A6"/>
<path d="M54.0273 49.8965L53.5402 50.0635C53.5615 50.1628 53.5726 50.2661 53.5726 50.3714C53.5726 50.4828 53.5584 50.5901 53.5352 50.6944L54.0516 50.741C54.0739 50.6205 54.0891 50.498 54.0891 50.3714C54.0901 50.2074 54.0648 50.0494 54.0273 49.8965Z" fill="#919191"/>
<path d="M53.538 50.6943C53.5613 50.59 53.5755 50.4827 53.5755 50.3713C53.5755 50.266 53.5634 50.1627 53.5431 50.0635L52.0859 50.5637L53.538 50.6943Z" fill="#A6A6A6"/>
<path d="M51.4211 49.0449L51.2135 48.572C51.1112 48.6216 51.013 48.6773 50.9219 48.7421L51.2014 49.1786C51.2692 49.128 51.3431 49.0844 51.4211 49.0449Z" fill="#D6D6D6"/>
<path d="M51.419 49.0447C51.341 49.0842 51.2681 49.1277 51.1992 49.1784L52.0853 50.5636L51.419 49.0447Z" fill="#E3E3E3"/>
<path d="M50.5946 50.3713C50.5946 50.1252 50.6604 49.8954 50.7657 49.6908L50.3353 49.4062C50.1763 49.6938 50.0781 50.0199 50.0781 50.3713C50.0781 50.7358 50.1824 51.072 50.3525 51.3667L50.8204 51.15C50.6796 50.9232 50.5946 50.6579 50.5946 50.3713Z" fill="#E6E6E6"/>
<path d="M50.7649 49.6909C50.6585 49.8955 50.5938 50.1243 50.5938 50.3714C50.5938 50.658 50.6788 50.9233 50.8185 51.1501L52.0843 50.5638L50.7649 49.6909Z" fill="#F2F2F2"/>
<path d="M53.2193 49.4145L53.5828 49.0458C53.5393 48.9962 53.4947 48.9486 53.4472 48.9031L53.1211 49.301C53.1555 49.3365 53.1869 49.377 53.2193 49.4145Z" fill="#E0E0E0"/>
<path d="M53.2201 49.4144C53.1877 49.3759 53.1573 49.3364 53.1209 49.302L52.0859 50.5638L53.2201 49.4144Z" fill="#F2F2F2"/>
<path d="M50.9344 51.3081L50.5 51.5896C50.6721 51.8134 50.8899 51.9967 51.14 52.1324L51.4063 51.6919C51.222 51.5967 51.063 51.4661 50.9344 51.3081Z" fill="#949494"/>
<path d="M50.9336 51.308C51.0622 51.466 51.2222 51.5966 51.4045 51.6908L52.0839 50.5637L50.9336 51.308Z" fill="#A6A6A6"/>
<path d="M52.0826 51.862C51.9843 51.862 51.8892 51.8508 51.797 51.8326L51.6836 52.3379C51.8132 52.3643 51.9469 52.3784 52.0836 52.3784C52.6193 52.3784 53.1033 52.1648 53.4628 51.8235L53.079 51.4731C52.8137 51.7121 52.4674 51.862 52.0826 51.862Z" fill="#ABABAB"/>
<path d="M51.8008 51.8325C51.8929 51.8508 51.9891 51.8619 52.0863 51.8619C52.4711 51.8619 52.8174 51.7121 53.0817 51.4731L52.0863 50.5637L51.8008 51.8325Z" fill="#BDBDBD"/>
<path d="M53.3516 51.145L53.8204 51.3598C53.9287 51.1704 54.0108 50.9669 54.0533 50.7451L53.5359 50.6975C53.4994 50.8595 53.4356 51.0094 53.3516 51.145Z" fill="#B0B0B0"/>
<path d="M53.3538 51.1449C53.4378 51.0082 53.5016 50.8584 53.5381 50.6974L52.0859 50.5637L53.3538 51.1449Z" fill="#BDBDBD"/>
<path d="M51.6857 48.9424L51.5622 48.4421C51.4417 48.4745 51.3252 48.5171 51.2148 48.5718L51.4224 49.0447C51.5044 49.0022 51.5936 48.9687 51.6857 48.9424Z" fill="#A8A8A8"/>
<path d="M51.6823 48.9426C51.5901 48.969 51.502 49.0024 51.418 49.0449L52.0833 50.5639L51.6823 48.9426Z" fill="#BDBDBD"/>
<path d="M8.29622 40.4111C7.28865 42.5943 4.70442 43.5472 2.5303 42.5447C0.347061 41.5371 -0.605815 38.9519 0.401754 36.7696C0.540484 36.4689 0.712639 36.1945 0.90909 35.9423C2.11615 34.3646 4.29128 33.7824 6.17275 34.6502C8.04511 35.514 9.01316 37.5473 8.59697 39.4886C8.53216 39.8015 8.43495 40.1103 8.29622 40.4111Z" fill="#AFB3D4"/>
<path d="M8.5959 39.4886C7.38884 41.0663 5.21371 41.6486 3.34135 40.7848C1.45988 39.917 0.491822 37.8836 0.908014 35.9414C2.11507 34.3637 4.2902 33.7814 6.17167 34.6492C8.04403 35.514 9.01209 37.5464 8.5959 39.4886Z" fill="#E2E4F7"/>
<path d="M6.85613 36.9338C6.5817 37.5282 5.71591 37.7125 4.92301 37.3459C4.12911 36.9793 3.70787 36.2016 3.98229 35.6072C4.25672 35.0128 5.1215 34.8285 5.91541 35.1951C6.70931 35.5617 7.13055 36.3393 6.85613 36.9338Z" fill="#ECEFFF"/>
<path d="M52.5033 6.16449C51.4957 8.34772 48.9114 9.3006 46.7373 8.2981C44.5541 7.29053 43.6012 4.70629 44.6088 2.52305C44.7475 2.2223 44.9196 1.94789 45.1161 1.69575C46.3231 0.118067 48.4983 -0.464198 50.3797 0.403628C52.2521 1.2674 53.2202 3.30075 52.804 5.24197C52.7382 5.55487 52.642 5.86374 52.5033 6.16449Z" fill="#AFB3D4"/>
<path d="M52.8029 5.24201C51.5959 6.81969 49.4207 7.40195 47.5484 6.53818C45.6669 5.67035 44.6989 3.637 45.115 1.69477C46.3221 0.11709 48.4972 -0.465175 50.3787 0.402651C52.2521 1.26744 53.2191 3.29978 52.8029 5.24201Z" fill="#E2E4F7"/>
<path d="M51.0632 2.68718C50.7888 3.28059 49.924 3.46591 49.1301 3.09934C48.3362 2.73277 47.9149 1.95505 48.1893 1.36064C48.4637 0.767236 49.3285 0.581942 50.1224 0.948515C50.9153 1.31407 51.3366 2.09277 51.0632 2.68718Z" fill="#ECEFFF"/>
<path d="M38.255 14.692L35.5614 16.7952L18.0682 30.4293L14.8906 32.896C14.845 32.5325 14.7994 32.1852 14.7549 31.8368C14.603 30.808 14.4521 29.8237 14.3164 28.9012L18.4328 25.6932L27.6933 18.4752L35.0926 12.7092C35.9402 13.0576 36.7574 13.5264 37.529 14.1016C37.771 14.2839 38.013 14.4803 38.255 14.692Z" fill="#CDD3F5"/>
<path d="M38.2541 14.6919L35.5605 16.7952L18.0672 30.4293L14.8896 32.896C14.844 32.5325 14.7985 32.1852 14.7539 31.8368L18.0227 29.2941L33.8359 16.9764L37.528 14.1016C37.77 14.2838 38.012 14.4803 38.2541 14.6919Z" fill="#B4BDE6"/>
</svg>
