<svg width="164" height="95" viewBox="0 0 164 95" fill="none" xmlns="http://www.w3.org/2000/svg">
<path d="M81.6637 0.0173935C53.289 -0.4361 2.52346 7.82951 0.0768717 42.332C-2.36972 76.8345 54.1866 96.8499 83.7097 94.6866C113.233 92.5232 164 77.1414 164 45.4668C164 10.1436 115.54 0.558572 81.6637 0.0173935Z" fill="#FFB591"/>
<path d="M16.4141 45.0833C16.4141 45.0833 35.168 66.8906 55.8265 70.6844C76.485 74.4781 102.962 73.8849 111.276 70.6844C129.802 63.5545 145.179 45.0833 145.179 45.0833H16.4141Z" fill="#F5A27A"/>
<path d="M150.267 40.9237C150.267 40.9237 150.138 41.0608 149.849 41.28C148.917 42.0458 146.54 44.0434 143.197 46.6438C134.715 53.2119 120.095 63.6656 107.951 67.9073C102.104 69.9597 82.5682 72.4778 59.3071 68.8376C41.026 65.9371 23.1938 51.2144 16.4138 45.0833C14.6154 43.4406 13.5859 42.4021 13.5859 42.4021C13.5859 42.4021 14.6138 42.2651 16.4459 42.0184C26.9835 40.6223 63.5794 35.9709 70.8098 37.0108C79.2273 38.2699 96.1282 37.8041 100.177 36.7094C104.033 35.6421 146.926 40.5401 150.074 40.8964C150.202 40.9238 150.267 40.9237 150.267 40.9237Z" fill="#F06461"/>
<path d="M150.272 40.9237C150.272 40.9237 115.605 44.864 98.8972 46.726C82.1572 48.5865 65.0648 46.2342 59.0891 45.3847C53.1134 44.5366 18.5088 43.1679 18.5088 43.1679L16.4531 42.0184C26.9907 40.6223 63.5866 35.9709 70.817 37.0108C79.2344 38.2699 96.1354 37.8041 100.184 36.7094C104.04 35.6421 146.933 40.5401 150.081 40.8964C150.208 40.9238 150.272 40.9237 150.272 40.9237Z" fill="#E84F4C"/>
<path d="M151.21 40.2093C151.21 40.2093 148.442 40.719 143.214 39.5421C143.182 39.5421 143.15 39.5147 143.117 39.5147C129.977 38.0912 103.277 35.3003 100.256 36.121C96.2075 37.2157 79.3082 37.6815 70.8891 36.4224C63.6603 35.3825 26.7282 39.0173 16.5252 41.6616C13.8953 42.3439 12.668 41.8136 12.668 41.8136C12.668 41.8136 14.8041 41.4026 21.1192 37.7089C32.4868 31.06 54.8552 20.1392 62.5987 20.1392C73.3292 20.1392 77.1222 22.9848 82.4223 22.9848C87.7562 22.9848 93.0564 19.9199 97.6841 20.1392C109.796 20.6872 129.203 29.4981 140.77 35.3003C144.247 37.054 146.74 38.794 148.39 39.686C149.469 40.2682 151.21 40.2093 151.21 40.2093Z" fill="#F06461"/>
<path d="M64.6442 53.0409C75.0161 54.3301 89.6603 55.3303 102.241 53.119C104.103 52.7915 105.085 54.9247 103.499 55.8207C98.4799 58.6568 91.5181 60.4886 84.0384 60.3406C77.6027 60.2132 69.8816 58.2978 63.6872 55.981C61.7585 55.2576 62.558 52.7819 64.6442 53.0409Z" fill="#FF9492"/>
<path d="M140.768 35.2993V35.3267C140.768 35.3267 105.361 23.8058 99.7394 23.5044C94.1176 23.2029 88.0132 25.9403 82.9028 26.4596C77.7619 26.9802 72.0114 23.5044 61.7618 23.5044C51.48 23.5044 21.1172 37.7339 21.1172 37.7339V37.7065C32.7807 31.4398 54.8531 20.1367 62.5966 20.1367C73.3272 20.1367 77.1201 22.9823 82.4203 22.9823C87.7542 22.9823 93.0543 19.9175 97.6821 20.1367C109.796 20.6847 129.201 29.497 140.768 35.2993Z" fill="#FF9492"/>
<path d="M149.578 40.2451C138.499 40.4808 103.281 35.306 100.259 36.1198C88.0292 39.4107 79.9624 38.6818 69.1707 36.9542C61.9644 35.8019 25.7835 43.4141 13.1484 41.8344C13.1484 41.8344 60.4186 31.5493 68.5787 31.8781C76.7083 32.2343 81.5918 34.9977 87.1493 34.0674C92.7085 33.1646 97.7528 31.4684 105.014 32.3987C111.086 33.1906 141.931 38.7134 149.578 40.2451Z" fill="#E84F4C"/>
<path d="M149.577 40.2457C150.077 40.1978 151.716 39.5004 151.703 40.2745C151.695 40.7677 150.881 41.2226 149.276 41.2267C141.515 40.7006 124.278 37.959 107.354 37.8275C97.8655 37.7535 89.5735 40.4252 83.9452 40.0731C81.0176 39.8908 70.1729 37.5165 62.8234 38.1495C48.6651 39.3661 17.913 42.7351 12.9732 42.5214C12.0611 42.4816 12.0096 41.6692 12.3635 41.5925C12.6498 41.5295 13.2209 41.7775 13.6664 41.8117C28.0002 42.9242 62.7446 34.142 70.8886 36.4205C83.9436 40.0731 96.2071 37.2137 100.256 36.1191C104.111 35.0531 146.421 40.5499 149.577 40.2457Z" fill="#AF2324"/>
<path d="M93.8564 83.7165C93.8564 87.8185 89.9541 91.1436 85.1574 91.1436C80.3414 91.1436 76.4375 87.8199 76.4375 83.7165C76.4375 83.1507 76.5211 82.6026 76.6659 82.0724C77.5377 78.765 81.0042 76.3071 85.1574 76.3071C89.2881 76.3071 92.7561 78.765 93.628 82.0724C93.7743 82.6012 93.8564 83.1493 93.8564 83.7165Z" fill="#F5A27A"/>
<path d="M93.4204 82.7392C93.4204 86.6357 89.7128 89.7937 85.1574 89.7937C80.5827 89.7937 76.875 86.6357 76.875 82.7392C76.875 82.2021 76.9538 81.6815 77.0921 81.1774C77.9205 78.0358 81.2132 75.7012 85.1574 75.7012C89.0822 75.7012 92.3749 78.0358 93.2033 81.1774C93.3416 81.6815 93.4204 82.2021 93.4204 82.7392Z" fill="#AFB3D4"/>
<path d="M93.201 81.1774C92.3726 84.3189 89.0799 86.6535 85.1551 86.6535C81.2109 86.6535 77.9182 84.3189 77.0898 81.1774C77.9182 78.0358 81.2109 75.7012 85.1551 75.7012C89.0799 75.7012 92.3726 78.0358 93.201 81.1774Z" fill="#DDDFF2"/>
<path d="M88.1545 78.5967C88.1545 79.6572 86.8049 80.5162 85.1417 80.5162C83.4785 80.5162 82.1289 79.6572 82.1289 78.5967C82.1289 77.5363 83.4785 76.6772 85.1417 76.6772C86.8049 76.6772 88.1545 77.5363 88.1545 78.5967Z" fill="#ECEFFF"/>
</svg>
