<?xml version="1.0" encoding="utf-8"?><svg xmlns="http://www.w3.org/2000/svg" xmlns:xlink="http://www.w3.org/1999/xlink"><symbol viewBox="0 0 24 24" id="bag" xmlns="http://www.w3.org/2000/svg"><path d="M20.462 6.8h-3.847a4.9 4.9 0 0 0-1.351-3.394A4.527 4.527 0 0 0 12 2a4.527 4.527 0 0 0-3.264 1.406A4.9 4.9 0 0 0 7.385 6.8H3.538c-.408 0-.799.169-1.087.469A1.63 1.63 0 0 0 2 8.4v12c0 .424.162.831.45 1.131.29.3.68.469 1.088.469h16.924c.408 0 .799-.169 1.087-.469.289-.3.451-.707.451-1.131v-12c0-.424-.162-.831-.45-1.131-.29-.3-.68-.469-1.088-.469ZM12 3.6c.816 0 1.599.337 2.176.937.577.6.9 1.414.9 2.263H8.924c0-.849.324-1.663.901-2.263.577-.6 1.36-.937 2.176-.937Zm8.462 16.8H3.538v-12h3.847V10c0 .212.08.416.225.566.144.15.34.234.544.234.204 0 .4-.084.544-.234A.816.816 0 0 0 8.923 10V8.4h6.154V10c0 .212.081.416.225.566.145.15.34.234.544.234.204 0 .4-.084.544-.234a.817.817 0 0 0 .225-.566V8.4h3.847v12Z"/></symbol><symbol viewBox="0 0 22 24" id="basket" xmlns="http://www.w3.org/2000/svg"><g clip-path="url(#ba)"><path d="M10.363 18.443a2.046 2.046 0 0 0-2.045 2.042 2.046 2.046 0 0 0 4.09 0 2.046 2.046 0 0 0-2.045-2.042Zm6.134 0a2.046 2.046 0 0 0-2.045 2.042 2.046 2.046 0 0 0 4.089 0 2.046 2.046 0 0 0-2.044-2.042Zm3.978-8.199L7.413 6.891a.614.614 0 0 0-.75.73L8.67 16.4h-.786L5.482 5.895a.613.613 0 0 0-.474-.464l-4.27-.882A.614.614 0 0 0 .489 5.75l3.885.802L6.797 17.15a.613.613 0 0 0 .598.477h12.07a.615.615 0 0 0 .607-.53l.858-6.175a.613.613 0 0 0-.455-.678Zm-8.14 3.91a.613.613 0 0 1-1.227 0v-2.696a.613.613 0 0 1 1.227 0v2.696Zm2.625 0a.613.613 0 0 1-1.227 0v-1.88a.613.613 0 0 1 1.227 0v1.88Zm2.625 0a.613.613 0 0 1-1.227 0v-1.226a.613.613 0 0 1 1.227 0v1.226Z"/></g><path fill-rule="evenodd" clip-rule="evenodd" d="M16.268 4.568a2.996 2.996 0 0 0-1.693-.523c-.627 0-1.21.193-1.693.523-.28-.843-.492-1.752-.492-2.383C12.39.98 13.37 0 14.575 0s2.185.98 2.185 2.185c0 .631-.212 1.54-.492 2.383Zm-4.722 2.274.024.006v-.011l-.024.005Zm4.972 1.217c-1.333-.33-2.766-.681-4.129-1.013a2.185 2.185 0 1 1 4.129 1.013Zm4.436 1.103c-.866-.217-2.155-.538-3.618-.9a2.995 2.995 0 0 0 .243-1.425c.87.18 1.762.45 2.308.765.596.344.969.928 1.067 1.56ZM9.869 6.439c-.36-.086-.706-.167-1.03-.243a2.19 2.19 0 0 1-.376-2.667 2.188 2.188 0 0 1 3.147-.7c.098.738.338 1.599.61 2.353a3.01 3.01 0 0 0-.449.774c-.628.113-1.305.278-1.902.483Zm10.124.075a3.43 3.43 0 0 1-.217.114c-.696-.295-1.587-.526-2.397-.672a3.01 3.01 0 0 0-.449-.774c.262-.727.494-1.553.599-2.273.095-.067.189-.128.278-.18a2.188 2.188 0 0 1 2.986.8 2.188 2.188 0 0 1-.8 2.985Z"/><defs><clipPath id="ba"><path transform="translate(0 3.064)" d="M0 0h20.936v20.936H0z"/></clipPath></defs></symbol><symbol viewBox="0 0 24 24" id="box" xmlns="http://www.w3.org/2000/svg"><path d="m20 7-8 4-8-4"/><path d="m18.625 4.668-5-2.31a3.863 3.863 0 0 0-3.25 0l-5 2.31C3.931 5.335 3 6.823 3 8.466v7.068c0 1.643.93 3.131 2.375 3.798l5 2.31a3.863 3.863 0 0 0 3.25 0l5-2.31C20.069 18.665 21 17.177 21 15.534V8.466c0-1.643-.93-3.131-2.375-3.798Z"/><path d="m8 4 9 5v10.5M12 11v11"/></symbol><symbol viewBox="0 0 24 24" id="card" xmlns="http://www.w3.org/2000/svg"><path d="M2 7a4 4 0 0 1 4-4h12a4 4 0 0 1 4 4v10a4 4 0 0 1-4 4H6a4 4 0 0 1-4-4V7Z"/><path d="M2 7h20v4H2V7ZM8 17H6"/></symbol><symbol viewBox="0 0 344.96 344.96" id="check" xmlns="http://www.w3.org/2000/svg"><g data-name="Слой 2"><path class="ecls-1" d="m321.85 86.24-40-23.11-23.1-40H212.5L172.48 0l-40 23.11H86.24l-23.11 40-40 23.1v46.21L0 172.48l23.11 40v46.21l40 23.11 23.11 40h46.21l40 23.1 40-23.11h46.21l23.11-40 40-23.11V212.5l23.11-40-23.11-40V86.24ZM156.91 243.07a16.79 16.79 0 0 1-23.34 0l-50.45-50.44a16.19 16.19 0 0 1 0-22.89l13.35-13.35a16.19 16.19 0 0 1 22.89 0l25.87 25.87 80.34-80.35a16.19 16.19 0 0 1 22.89 0l13.35 13.35a16.19 16.19 0 0 1 0 22.89Z" data-name="Capa 1"/></g></symbol><symbol viewBox="0 0 14 19" id="chevron-left" xmlns="http://www.w3.org/2000/svg"><path d="M10 15.39 3.97 9.695 10 4"/></symbol><symbol viewBox="0 0 14 19" id="chevron-right" xmlns="http://www.w3.org/2000/svg"><path d="m4 15.39 6.03-5.695L4 4"/></symbol><symbol viewBox="0 0 24 24" id="fb" xmlns="http://www.w3.org/2000/svg"><path d="M13.397 20.997v-8.196h2.765l.411-3.209h-3.176V7.548c0-.926.258-1.56 1.587-1.56h1.684v-2.86A22.108 22.108 0 0 0 14.201 3c-2.444 0-4.122 1.492-4.122 4.231v2.355H7.332v3.21h2.753v8.201h3.312Z"/></symbol><symbol viewBox="0 0 24 22" id="heart" xmlns="http://www.w3.org/2000/svg"><path d="M7.05 1C3.709 1 1 3.87 1 7.41 1 13.817 8.15 19.644 12 21c3.85-1.355 11-7.182 11-13.59C23 3.87 20.291 1 16.95 1 14.904 1 13.095 2.076 12 3.723A6.165 6.165 0 0 0 9.84 1.72 5.772 5.772 0 0 0 7.05 1Z"/></symbol><symbol viewBox="0 0 24 24" id="heart-1" xmlns="http://www.w3.org/2000/svg"><path d="M12.765 4.702 12 5.524l-.765-.822c-2.113-2.27-5.538-2.27-7.65 0-2.113 2.27-2.113 5.95 0 8.22l6.885 7.397a2.06 2.06 0 0 0 3.06 0l6.886-7.397c2.112-2.27 2.112-5.95 0-8.22-2.113-2.27-5.538-2.27-7.651 0Z"/></symbol><symbol viewBox="0 0 30 30" id="insta" xmlns="http://www.w3.org/2000/svg"><path d="M15 10.72a4.282 4.282 0 0 0 0 8.564A4.29 4.29 0 0 0 19.284 15 4.286 4.286 0 0 0 15 10.72Z"/><path d="M21.46 3.333H8.541a5.216 5.216 0 0 0-5.208 5.208V21.46a5.213 5.213 0 0 0 5.208 5.208h12.917a5.21 5.21 0 0 0 5.208-5.208V8.54a5.213 5.213 0 0 0-5.208-5.208ZM15 22.56c-4.167 0-7.56-3.393-7.56-7.56S10.834 7.445 15 7.445c4.168 0 7.56 3.388 7.56 7.555s-3.392 7.56-7.56 7.56Zm7.72-13.743a1.6 1.6 0 0 1-1.601-1.596c0-.882.718-1.601 1.6-1.601.882 0 1.601.719 1.601 1.6a1.6 1.6 0 0 1-1.6 1.597Z"/></symbol><symbol viewBox="0 0 24 24" id="instagram" xmlns="http://www.w3.org/2000/svg"><path d="M11.999 7.377a4.624 4.624 0 1 0 0 9.248 4.624 4.624 0 0 0 0-9.248Zm0 7.627a3.004 3.004 0 1 1 0-6.008 3.004 3.004 0 0 1 0 6.008Zm4.807-6.719a1.078 1.078 0 1 0 0-2.156 1.078 1.078 0 0 0 0 2.156Z"/><path d="M20.533 6.11A4.605 4.605 0 0 0 17.9 3.48a6.607 6.607 0 0 0-2.186-.42c-.963-.042-1.268-.054-3.71-.054s-2.755 0-3.71.054a6.554 6.554 0 0 0-2.184.42 4.6 4.6 0 0 0-2.633 2.63 6.585 6.585 0 0 0-.419 2.186c-.043.962-.056 1.267-.056 3.71 0 2.442 0 2.753.056 3.71.015.748.156 1.486.419 2.187a4.61 4.61 0 0 0 2.634 2.632 6.583 6.583 0 0 0 2.185.45c.963.042 1.268.055 3.71.055s2.755 0 3.71-.055a6.616 6.616 0 0 0 2.186-.42 4.613 4.613 0 0 0 2.633-2.632c.263-.7.404-1.438.419-2.186.043-.962.056-1.267.056-3.71s0-2.753-.056-3.71a6.583 6.583 0 0 0-.421-2.217Zm-1.218 9.533a5.046 5.046 0 0 1-.311 1.688 2.987 2.987 0 0 1-1.712 1.71c-.535.2-1.1.305-1.67.312-.95.044-1.218.055-3.654.055-2.438 0-2.687 0-3.655-.055a4.961 4.961 0 0 1-1.67-.311 2.984 2.984 0 0 1-1.718-1.711 5.08 5.08 0 0 1-.311-1.67c-.043-.95-.053-1.217-.053-3.653 0-2.437 0-2.686.053-3.655a5.038 5.038 0 0 1 .311-1.687c.305-.79.93-1.41 1.719-1.712a5.01 5.01 0 0 1 1.669-.311c.95-.043 1.218-.055 3.655-.055s2.687 0 3.654.055a4.96 4.96 0 0 1 1.67.31 2.99 2.99 0 0 1 1.712 1.713 5.06 5.06 0 0 1 .311 1.669c.043.95.054 1.218.054 3.655 0 2.436 0 2.698-.043 3.654h-.011v-.001Z"/></symbol><symbol viewBox="0 0 24 24" id="location" xmlns="http://www.w3.org/2000/svg"><circle cx="12" cy="11" r="3"/><path d="M21 10.889C21 15.799 15.375 22 12 22s-9-6.202-9-11.111C3 5.979 7.03 2 12 2s9 3.98 9 8.889Z"/></symbol><symbol viewBox="0 0 39 39" id="location-2" xmlns="http://www.w3.org/2000/svg"><path d="M29.841 28.216 19.5 38.559 9.159 28.217a14.625 14.625 0 1 1 20.682 0ZM19.5 24.375a6.5 6.5 0 1 0 0-13 6.5 6.5 0 0 0 0 13Zm0-3.25a3.25 3.25 0 1 1 0-6.5 3.25 3.25 0 0 1 0 6.5Z"/><path d="M29.841 28.216 19.5 38.559 9.159 28.217a14.625 14.625 0 1 1 20.682 0ZM19.5 24.375a6.5 6.5 0 1 0 0-13 6.5 6.5 0 0 0 0 13Zm0-3.25a3.25 3.25 0 1 1 0-6.5 3.25 3.25 0 0 1 0 6.5Z"/></symbol><symbol viewBox="0 0 38 39" id="phone" xmlns="http://www.w3.org/2000/svg"><path d="m31.621 35.265-2.792-5.1c-.6-1.088-1.377-1.881-2.718-1.398l-2.645.864c-2.118.864-3.173 0-4.235-1.302l-4.763-9.534c-.6-1.09-.286-2.114 1.055-2.598l3.7-1.302c1.341-.49 1.129-1.508.528-2.597l-3.173-5.196c-.6-1.09-1.831-1.354-3.172-.87-2.682.973-4.902 2.5-6.346 4.763-1.758 2.766-.879 6.614-.527 8.232.352 1.618 1.583 4.454 3.172 7.361 1.59 2.914 2.983 5.202 4.236 6.498 1.245 1.296 4.235 4.84 7.935 5.634 3.033.644 6.308.103 8.99-.87 1.349-.465 1.349-1.49.755-2.585Z"/></symbol><symbol viewBox="0 0 17 17" id="search" xmlns="http://www.w3.org/2000/svg"><path d="m15.677 16.385-6.262-6.262a5.49 5.49 0 0 1-1.725.989c-.65.233-1.303.35-1.96.35-1.601 0-2.957-.554-4.066-1.663C.554 8.69 0 7.335 0 5.734c0-1.601.554-2.957 1.662-4.067C2.77.557 4.125.001 5.726 0c1.601-.001 2.957.553 4.068 1.664 1.11 1.11 1.666 2.466 1.666 4.067 0 .695-.123 1.367-.369 2.017a5.474 5.474 0 0 1-.97 1.668l6.262 6.261-.706.708Zm-9.946-5.924c1.327 0 2.447-.457 3.36-1.37.913-.913 1.37-2.034 1.37-3.361 0-1.327-.457-2.447-1.37-3.36C8.178 1.457 7.058 1 5.731 1s-2.447.456-3.361 1.37C1.456 3.284 1 4.404 1 5.73s.457 2.446 1.37 3.36c.913.914 2.033 1.37 3.36 1.37"/></symbol><symbol viewBox="0 0 24 24" id="settings" xmlns="http://www.w3.org/2000/svg"><path d="m20.744 15.72-.64-.391.64.392Zm-.955 1.56.64.391-.64-.392Zm-16.533-9-.64-.392.64.391Zm.955-1.56.64.392-.64-.391Zm2.608-.658.358-.659-.358.659Zm-2.864 4.676-.359.659.359-.659Zm13.226 7.2-.358.659.358-.659Zm2.864-4.676-.359.658.36-.658ZM4.211 17.279l-.64.392.64-.392Zm-.955-1.558.64-.392-.64.392Zm16.533-9 .64-.392-.64.392Zm.955 1.558-.64.392.64-.392Zm-.699 2.46.359.658-.359-.659Zm-2.864-4.677.36.658-.36-.658Zm-13.226 7.2.358.659-.358-.66Zm2.864 4.676-.36-.659.36.66ZM17.08 6.117l-.359-.659.359.659Zm-10.16 0-.359.659.359-.659Zm10.16 11.766.359-.659-.359.659Zm-10.16 0 .359.659-.359-.659ZM11.046 3.75h1.909v-1.5h-1.91v1.5Zm1.909 16.5h-1.91v1.5h1.91v-1.5Zm-1.91 0c-.682 0-1.159-.511-1.159-1.05h-1.5c0 1.45 1.233 2.55 2.66 2.55v-1.5Zm3.069-1.05c0 .539-.477 1.05-1.16 1.05v1.5c1.427 0 2.66-1.1 2.66-2.55h-1.5Zm-1.16-15.45c.683 0 1.16.511 1.16 1.05h1.5c0-1.45-1.233-2.55-2.66-2.55v1.5Zm-1.909-1.5c-1.426 0-2.659 1.1-2.659 2.55h1.5c0-.539.477-1.05 1.16-1.05v-1.5Zm9.06 13.079-.955 1.559 1.279.783.955-1.559-1.28-.783ZM3.894 8.67l.955-1.559-1.279-.783-.955 1.559 1.28.783Zm.955-1.559c.309-.504 1.03-.707 1.61-.392l.717-1.317c-1.247-.679-2.86-.292-3.606.926l1.28.783Zm-.537 2.967c-.556-.302-.709-.932-.417-1.408l-1.28-.783c-.762 1.246-.29 2.818.98 3.509l.717-1.318Zm14.837 6.809c-.309.504-1.03.707-1.61.391l-.717 1.318c1.247.679 2.86.292 3.606-.926l-1.28-.783Zm2.234-.776c.762-1.246.29-2.817-.98-3.509l-.718 1.317c.556.303.71.933.418 1.409l1.28.783Zm-16.534.776-.954-1.56-1.28.784.955 1.56 1.28-.784Zm14.3-9.776.954 1.56 1.28-.784-.955-1.56-1.28.784Zm.954 1.56c.292.475.139 1.105-.418 1.407l.718 1.318c1.27-.691 1.742-2.263.98-3.51l-1.28.784ZM17.54 6.72c.58-.315 1.301-.112 1.61.392l1.279-.783c-.746-1.218-2.36-1.605-3.606-.926l.717 1.317ZM3.896 15.33c-.292-.476-.139-1.106.417-1.409l-.717-1.317c-1.27.691-1.742 2.263-.98 3.51l1.28-.784Zm-.326 2.34c.746 1.218 2.36 1.605 3.606.926l-.717-1.318c-.58.316-1.301.113-1.61-.391l-1.279.783ZM17.439 6.776l.101-.056-.717-1.317-.102.055.718 1.318ZM6.459 6.72l.102.056.718-1.318-.102-.055L6.46 6.72ZM17.54 17.28l-.101-.056-.718 1.318.102.055.717-1.318Zm-10.979-.056-.101.055.717 1.318.102-.055-.718-1.318Zm-2.965-5.827a.687.687 0 0 1 0 1.206l.717 1.318c1.522-.829 1.522-3.013 0-3.841l-.717 1.317Zm3.683 7.145a.75.75 0 0 1 1.107.658h1.5c0-1.707-1.826-2.792-3.325-1.976l.718 1.318Zm8.335.658a.75.75 0 0 1 1.107-.658l.718-1.318c-1.5-.816-3.325.27-3.325 1.976h1.5Zm4.79-6.597a.687.687 0 0 1 0-1.206l-.718-1.318c-1.521.829-1.521 3.013 0 3.841l.718-1.317ZM6.56 6.776c1.5.816 3.325-.27 3.325-1.976h-1.5a.75.75 0 0 1-1.107.658L6.56 6.776Zm10.16-1.318a.75.75 0 0 1-1.107-.658h-1.5c0 1.707 1.826 2.792 3.325 1.976l-.718-1.318ZM14.25 12A2.25 2.25 0 0 1 12 14.25v1.5A3.75 3.75 0 0 0 15.75 12h-1.5ZM12 14.25A2.25 2.25 0 0 1 9.75 12h-1.5A3.75 3.75 0 0 0 12 15.75v-1.5ZM9.75 12A2.25 2.25 0 0 1 12 9.75v-1.5A3.75 3.75 0 0 0 8.25 12h1.5ZM12 9.75A2.25 2.25 0 0 1 14.25 12h1.5A3.75 3.75 0 0 0 12 8.25v1.5Z"/></symbol><symbol viewBox="0 0 16 16" id="telegram" xmlns="http://www.w3.org/2000/svg"><path d="m14.629 3.698-2.012 9.618c-.152.679-.548.848-1.11.528l-3.066-2.29-1.48 1.442c-.163.166-.3.305-.616.305l.22-3.165 5.683-5.204c.247-.223-.054-.347-.384-.123L4.839 9.29l-3.024-.959c-.658-.208-.67-.667.137-.986L13.78 2.727c.548-.208 1.027.124.849.971Z"/></symbol><symbol viewBox="0 0 30 30" id="tg" xmlns="http://www.w3.org/2000/svg"><path d="m28 4.564-4.113 20.733s-.574 1.438-2.156.747l-9.532-7.295A7041.824 7041.824 0 0 0 23.854 8.256c.672-.627.255-1-.526-.526L8.647 17.053l-5.665-1.907s-.891-.316-.977-1.006c-.086-.69 1.006-1.064 1.006-1.064l23.091-9.058S28 3.184 28 4.564Z"/></symbol><symbol viewBox="0 0 25 25" id="user" xmlns="http://www.w3.org/2000/svg"><path d="M12.5 1C6.149 1 1 6.149 1 12.5S6.149 24 12.5 24 24 18.851 24 12.5 18.851 1 12.5 1Z"/><path d="M3.61 19.797s2.563-3.273 8.888-3.273c6.325 0 8.89 3.273 8.89 3.273m-8.89-7.298a3.45 3.45 0 1 0 0-6.9 3.45 3.45 0 0 0 0 6.9Z"/></symbol><symbol viewBox="0 0 24 24" id="user-no-border" xmlns="http://www.w3.org/2000/svg"><ellipse cx="12" cy="17.5" rx="7" ry="3.5"/><circle cx="12" cy="7" r="4"/></symbol><symbol viewBox="0 0 16 16" id="viber" xmlns="http://www.w3.org/2000/svg"><path d="M8 1.335c-1.071.013-3.374.19-4.662 1.37-.958.948-1.292 2.35-1.331 4.084-.033 1.728-.072 4.973 3.058 5.856v1.346s-.02.538.337.648c.438.14.688-.275 1.105-.72l.778-.879c2.142.178 3.782-.232 3.97-.293.435-.139 2.883-.451 3.283-3.696.41-3.351-.2-5.463-1.301-6.418h-.007c-.332-.306-1.668-1.279-4.652-1.29 0 0-.222-.014-.578-.008Zm.037.942a7.02 7.02 0 0 1 .488.011c2.527.007 3.732.767 4.017 1.023.927.794 1.405 2.697 1.055 5.495-.332 2.713-2.317 2.885-2.685 3.002-.156.05-1.6.406-3.42.289 0 0-1.356 1.634-1.78 2.055-.067.074-.146.095-.196.085-.071-.018-.093-.107-.089-.229l.013-2.233c-2.655-.733-2.498-3.5-2.47-4.946.033-1.446.304-2.628 1.113-3.43 1.088-.982 3.043-1.115 3.953-1.122Zm.2 1.446a.166.166 0 1 0 0 .332 3.136 3.136 0 0 1 2.242.883c.606.588.9 1.378.912 2.411 0 .092.074.167.167.167V7.51a.167.167 0 0 0 .168-.165 3.588 3.588 0 0 0-1.009-2.646c-.66-.645-1.496-.977-2.48-.977Zm-2.198.382a.523.523 0 0 0-.342.067H5.69a2.61 2.61 0 0 0-.637.523 1.003 1.003 0 0 0-.256.525.71.71 0 0 0 .026.302l.01.006c.172.504.396.988.67 1.444a8.48 8.48 0 0 0 1.29 1.762l.015.022.024.017.015.018.017.015c.532.505 1.127.94 1.769 1.295.734.4 1.18.588 1.447.667v.004c.078.024.15.034.221.034.228-.016.444-.109.613-.262a2.53 2.53 0 0 0 .517-.638v-.004c.128-.241.085-.469-.1-.623-.37-.323-.77-.61-1.195-.857-.285-.155-.574-.061-.69.095l-.25.315c-.129.156-.361.134-.361.134l-.007.004C7.093 8.527 6.63 6.772 6.63 6.772s-.022-.239.139-.36l.312-.252c.15-.122.254-.41.094-.695a7.498 7.498 0 0 0-.856-1.194.475.475 0 0 0-.28-.167Zm2.486.495c-.221 0-.221.334.003.334A2.098 2.098 0 0 1 10 5.572 1.94 1.94 0 0 1 10.5 7a.168.168 0 0 0 .167.165l.007.009a.169.169 0 0 0 .167-.167c.015-.662-.191-1.218-.595-1.663C9.84 4.9 9.273 4.65 8.549 4.6h-.024Zm.274.898c-.228-.006-.236.335-.01.341.55.029.816.306.851.877a.166.166 0 0 0 .165.163h.007a.168.168 0 0 0 .16-.178c-.039-.744-.445-1.164-1.166-1.202H8.8Z"/></symbol><symbol viewBox="0 0 30 30" id="vk" xmlns="http://www.w3.org/2000/svg"><g clip-path="url(#wa)"><path d="M29.733 21.709c-.081-.135-.58-1.219-2.98-3.447-2.513-2.332-2.175-1.954.851-5.987 1.844-2.456 2.58-3.956 2.35-4.598-.22-.611-1.575-.45-1.575-.45l-4.508.026s-.334-.045-.583.104c-.242.146-.398.483-.398.483s-.714 1.902-1.667 3.518c-2.008 3.411-2.813 3.591-3.14 3.38-.764-.494-.572-1.985-.572-3.042 0-3.306.5-4.684-.977-5.04-.492-.119-.852-.198-2.106-.21-1.61-.018-2.972.005-3.743.382-.514.251-.91.812-.668.844.299.039.974.182 1.332.67.463.627.446 2.041.446 2.041s.266 3.891-.62 4.375c-.61.332-1.444-.345-3.235-3.441-.917-1.585-1.611-3.338-1.611-3.338s-.133-.326-.371-.5c-.289-.212-.694-.28-.694-.28l-4.287.026s-.643.02-.88.299c-.21.249-.016.763-.016.763s3.357 7.85 7.156 11.81c3.486 3.628 7.442 3.39 7.442 3.39h1.793s.542-.06.817-.359c.255-.273.246-.787.246-.787s-.036-2.406 1.082-2.76c1.1-.35 2.514 2.325 4.013 3.354 1.132.779 1.993.608 1.993.608l4.007-.056s2.097-.13 1.103-1.778Z"/></g><defs><clipPath id="wa"><path d="M0 0h30v30H0z"/></clipPath></defs></symbol><symbol viewBox="0 0 30 30" id="whatsapp" xmlns="http://www.w3.org/2000/svg"><g clip-path="url(#xa)"><path fill-rule="evenodd" clip-rule="evenodd" d="M15 2.583C8.096 2.583 2.5 8.366 2.5 15.5c0 2.441.656 4.727 1.798 6.675l-1.115 3.917a1.346 1.346 0 0 0-.013.69c.056.227.17.435.331.6a1.224 1.224 0 0 0 1.249.33l3.79-1.153A12.146 12.146 0 0 0 15 28.417c6.904 0 12.5-5.783 12.5-12.917 0-7.134-5.596-12.917-12.5-12.917Zm-2.828 15.84c2.53 2.612 4.943 2.957 5.796 2.989 1.296.05 2.558-.974 3.05-2.161a.927.927 0 0 0-.11-.908c-.686-.904-1.612-1.554-2.517-2.2a.866.866 0 0 0-1.216.204l-.75 1.182c-.04.064-.1.11-.172.128a.278.278 0 0 1-.21-.03c-.508-.3-1.25-.812-1.782-1.362s-.997-1.282-1.258-1.774a.302.302 0 0 1 .083-.376l1.155-.886a.943.943 0 0 0 .15-1.214c-.56-.847-1.212-1.924-2.159-2.639a.852.852 0 0 0-.854-.097c-1.15.51-2.146 1.814-2.098 3.156.031.88.365 3.375 2.893 5.988Z"/></g><defs><clipPath id="xa"><path d="M0 0h30v30H0z"/></clipPath></defs></symbol></svg>