<svg width="24" height="24" viewBox="0 0 24 24" fill="none" xmlns="http://www.w3.org/2000/svg">
<path d="M22.1538 5.76H17.5385C17.5385 4.23235 16.9549 2.76727 15.9163 1.68706C14.8776 0.606855 13.4689 0 12 0C10.5311 0 9.12238 0.606855 8.08372 1.68706C7.04505 2.76727 6.46154 4.23235 6.46154 5.76H1.84615C1.35652 5.76 0.886947 5.96229 0.540726 6.32236C0.194505 6.68243 0 7.17078 0 7.68V22.08C0 22.5892 0.194505 23.0776 0.540726 23.4376C0.886947 23.7977 1.35652 24 1.84615 24H22.1538C22.6435 24 23.1131 23.7977 23.4593 23.4376C23.8055 23.0776 24 22.5892 24 22.08V7.68C24 7.17078 23.8055 6.68243 23.4593 6.32236C23.1131 5.96229 22.6435 5.76 22.1538 5.76ZM12 1.92C12.9793 1.92 13.9184 2.32457 14.6109 3.04471C15.3033 3.76485 15.6923 4.74157 15.6923 5.76H8.30769C8.30769 4.74157 8.6967 3.76485 9.38914 3.04471C10.0816 2.32457 11.0207 1.92 12 1.92ZM22.1538 22.08H1.84615V7.68H6.46154V9.6C6.46154 9.85461 6.55879 10.0988 6.7319 10.2788C6.90501 10.4589 7.1398 10.56 7.38462 10.56C7.62943 10.56 7.86422 10.4589 8.03733 10.2788C8.21044 10.0988 8.30769 9.85461 8.30769 9.6V7.68H15.6923V9.6C15.6923 9.85461 15.7896 10.0988 15.9627 10.2788C16.1358 10.4589 16.3706 10.56 16.6154 10.56C16.8602 10.56 17.095 10.4589 17.2681 10.2788C17.4412 10.0988 17.5385 9.85461 17.5385 9.6V7.68H22.1538V22.08Z" fill="#ABA7A7"/>
</svg>
