<svg width="24" height="24" viewBox="0 0 24 24" fill="none" xmlns="http://www.w3.org/2000/svg">
<path d="M20.4615 6.8H16.6154C16.6154 5.52696 16.1291 4.30606 15.2636 3.40589C14.398 2.50571 13.2241 2 12 2C10.7759 2 9.60198 2.50571 8.73643 3.40589C7.87088 4.30606 7.38462 5.52696 7.38462 6.8H3.53846C3.13044 6.8 2.73912 6.96857 2.4506 7.26863C2.16209 7.56869 2 7.97565 2 8.4V20.4C2 20.8243 2.16209 21.2313 2.4506 21.5314C2.73912 21.8314 3.13044 22 3.53846 22H20.4615C20.8696 22 21.2609 21.8314 21.5494 21.5314C21.8379 21.2313 22 20.8243 22 20.4V8.4C22 7.97565 21.8379 7.56869 21.5494 7.26863C21.2609 6.96857 20.8696 6.8 20.4615 6.8ZM12 3.6C12.8161 3.6 13.5987 3.93714 14.1757 4.53726C14.7527 5.13737 15.0769 5.95131 15.0769 6.8H8.92308C8.92308 5.95131 9.24725 5.13737 9.82429 4.53726C10.4013 3.93714 11.1839 3.6 12 3.6ZM20.4615 20.4H3.53846V8.4H7.38462V10C7.38462 10.2122 7.46566 10.4157 7.60992 10.5657C7.75418 10.7157 7.94983 10.8 8.15385 10.8C8.35786 10.8 8.55352 10.7157 8.69777 10.5657C8.84203 10.4157 8.92308 10.2122 8.92308 10V8.4H15.0769V10C15.0769 10.2122 15.158 10.4157 15.3022 10.5657C15.4465 10.7157 15.6421 10.8 15.8462 10.8C16.0502 10.8 16.2458 10.7157 16.3901 10.5657C16.5343 10.4157 16.6154 10.2122 16.6154 10V8.4H20.4615V20.4Z" fill="#ABA7A7"/>
</svg>
