<svg width="17" height="16" viewBox="0 0 17 16" fill="none" xmlns="http://www.w3.org/2000/svg">
<path d="M12.2349 3.54018L8.46828 1.51352C8.06828 1.30018 7.59495 1.30018 7.19495 1.51352L3.43495 3.54018C3.16161 3.69352 2.98828 3.98685 2.98828 4.30685C2.98828 4.63352 3.15495 4.92685 3.43495 5.07352L7.20161 7.10018C7.40161 7.20685 7.62161 7.26018 7.83495 7.26018C8.04828 7.26018 8.27495 7.20685 8.46828 7.10018L12.2349 5.07352C12.5083 4.92685 12.6816 4.63352 12.6816 4.30685C12.6816 3.98685 12.5083 3.69352 12.2349 3.54018Z" fill="#F71F2C"/>
<path d="M6.58065 7.80673L3.08065 6.06006C2.80732 5.92006 2.50065 5.94006 2.24065 6.09339C1.98732 6.25339 1.83398 6.52673 1.83398 6.82673V10.1334C1.83398 10.7067 2.15398 11.2201 2.66732 11.4801L6.16732 13.2267C6.28732 13.2867 6.42065 13.3201 6.55398 13.3201C6.70732 13.3201 6.86732 13.2734 7.00732 13.1934C7.26065 13.0334 7.41398 12.7601 7.41398 12.4601V9.15339C7.40732 8.58006 7.08732 8.06673 6.58065 7.80673Z" fill="#F71F2C"/>
<path d="M13.8331 6.82673V8.46673C13.5131 8.37339 13.1731 8.33339 12.8331 8.33339C11.9264 8.33339 11.0398 8.64673 10.3398 9.20673C9.37977 9.96006 8.8331 11.1001 8.8331 12.3334C8.8331 12.6601 8.8731 12.9867 8.95977 13.3001C8.85977 13.2867 8.75977 13.2467 8.66643 13.1867C8.4131 13.0334 8.25977 12.7601 8.25977 12.4601V9.15339C8.25977 8.58006 8.57977 8.06673 9.08643 7.80673L12.5864 6.06006C12.8598 5.92006 13.1664 5.94006 13.4264 6.09339C13.6798 6.25339 13.8331 6.52673 13.8331 6.82673Z" fill="#F71F2C"/>
<path d="M14.9529 10.2134C14.3596 9.6201 13.5729 9.3201 12.7929 9.33343C12.0396 9.3401 11.2863 9.6401 10.7129 10.2134C10.3129 10.6068 10.0529 11.1001 9.92627 11.6134C9.85294 11.8934 9.82627 12.1801 9.84627 12.4668V12.5001C9.84627 12.5468 9.85294 12.5868 9.85961 12.6401C9.85961 12.6401 9.85961 12.6401 9.86627 12.6468V12.6668C9.92627 13.3201 10.2063 13.9534 10.7129 14.4534C11.4863 15.2268 12.5729 15.4868 13.5529 15.2401C13.8463 15.1668 14.1329 15.0468 14.3996 14.8868C14.5996 14.7734 14.7863 14.6268 14.9529 14.4534C15.4529 13.9534 15.7396 13.3201 15.7996 12.6601C15.8063 12.6601 15.8063 12.6468 15.8063 12.6401C15.8196 12.5934 15.8196 12.5401 15.8196 12.4934C15.8196 12.4868 15.8263 12.4734 15.8263 12.4601C15.8663 11.6534 15.5729 10.8268 14.9529 10.2134ZM13.9863 13.4734C13.7929 13.6668 13.4796 13.6668 13.2796 13.4734L12.8396 13.0334L12.3863 13.4868C12.1863 13.6868 11.8729 13.6868 11.6796 13.4868C11.4796 13.2934 11.4796 12.9801 11.6796 12.7801L12.1329 12.3268L11.6929 11.8868C11.4996 11.6868 11.4996 11.3734 11.6929 11.1801C11.8929 10.9801 12.2063 10.9801 12.4063 11.1801L12.8396 11.6201L13.2596 11.1934C13.4596 11.0001 13.7729 11.0001 13.9729 11.1934C14.1663 11.3934 14.1663 11.7068 13.9729 11.9068L13.5463 12.3268L13.9863 12.7601C14.1863 12.9601 14.1863 13.2734 13.9863 13.4734Z" fill="#F71F2C"/>
</svg>
