<svg width="18" height="17" viewBox="0 0 18 17" fill="none" xmlns="http://www.w3.org/2000/svg">
<path d="M13.1994 3.76132L8.96187 1.60799C8.51187 1.38132 7.97937 1.38132 7.52938 1.60799L3.29938 3.76132C2.99188 3.92424 2.79688 4.2359 2.79688 4.5759C2.79688 4.92299 2.98438 5.23465 3.29938 5.39049L7.53688 7.54382C7.76188 7.65715 8.00938 7.71382 8.24937 7.71382C8.48938 7.71382 8.74437 7.65715 8.96187 7.54382L13.1994 5.39049C13.5069 5.23465 13.7019 4.92299 13.7019 4.5759C13.7019 4.2359 13.5069 3.92424 13.1994 3.76132Z" fill="#1E960A"/>
<path d="M6.84 8.29483L2.9025 6.439C2.595 6.29025 2.25 6.3115 1.9575 6.47441C1.6725 6.64441 1.5 6.93483 1.5 7.25358V10.7669C1.5 11.3761 1.86 11.9215 2.4375 12.1977L6.375 14.0536C6.51 14.1173 6.66 14.1527 6.81 14.1527C6.9825 14.1527 7.1625 14.1032 7.32 14.0182C7.605 13.8482 7.7775 13.5577 7.7775 13.239V9.72566C7.77 9.1165 7.41 8.57108 6.84 8.29483Z" fill="#1E960A"/>
<path d="M15.0005 7.25358V8.99608C14.6405 8.89691 14.258 8.85441 13.8755 8.85441C12.8555 8.85441 11.858 9.18733 11.0705 9.78233C9.99047 10.5827 9.37547 11.794 9.37547 13.1044C9.37547 13.4515 9.42047 13.7986 9.51797 14.1315C9.40547 14.1173 9.29297 14.0748 9.18797 14.0111C8.90297 13.8482 8.73047 13.5577 8.73047 13.239V9.72566C8.73047 9.1165 9.09047 8.57108 9.66047 8.29483L13.598 6.439C13.9055 6.29025 14.2505 6.3115 14.543 6.47441C14.828 6.64441 15.0005 6.93483 15.0005 7.25358Z" fill="#1E960A"/>
<path d="M16.485 11.0994C15.87 10.384 14.9325 9.93066 13.875 9.93066C13.08 9.93066 12.345 10.1927 11.7675 10.6319C10.9875 11.2127 10.5 12.1123 10.5 13.1182C10.5 13.7132 10.68 14.2798 10.9875 14.7615C11.19 15.0802 11.445 15.3565 11.745 15.5832H11.7525C12.33 16.0365 13.0725 16.3057 13.875 16.3057C14.73 16.3057 15.5025 16.0082 16.095 15.5123C16.3575 15.2998 16.5825 15.0448 16.7625 14.7615C17.07 14.2798 17.25 13.7132 17.25 13.1182C17.25 12.3532 16.965 11.6448 16.485 11.0994ZM15.57 12.7215L13.77 14.294C13.665 14.3861 13.5225 14.4357 13.3875 14.4357C13.245 14.4357 13.1025 14.3861 12.99 14.2798L12.1575 13.4936C11.94 13.2882 11.94 12.9482 12.1575 12.7427C12.375 12.5373 12.735 12.5373 12.9525 12.7427L13.4025 13.1677L14.805 11.9423C15.03 11.744 15.39 11.7582 15.6 11.9707C15.8175 12.1902 15.8025 12.5232 15.57 12.7215Z" fill="#1E960A"/>
</svg>
