<svg width="11" height="12" viewBox="0 0 11 12" fill="none" xmlns="http://www.w3.org/2000/svg">
<path d="M2.41714 5.4H3.62571V6.6H2.41714V5.4ZM10.8771 2.4V10.8C10.8771 11.46 10.3333 12 9.66857 12H1.20857C0.888038 12 0.580633 11.8736 0.353982 11.6485C0.127331 11.4235 0 11.1183 0 10.8L0.00604285 2.4C0.00604285 1.74 0.537814 1.2 1.20857 1.2H1.81286V0H3.02143V1.2H7.85571V0H9.06429V1.2H9.66857C10.3333 1.2 10.8771 1.74 10.8771 2.4ZM1.20857 3.6H9.66857V2.4H1.20857V3.6ZM9.66857 10.8V4.8H1.20857V10.8H9.66857ZM7.25143 6.6H8.46V5.4H7.25143V6.6ZM4.83429 6.6H6.04286V5.4H4.83429V6.6Z" fill="#555555"/>
</svg>
