<svg width="20" height="20" viewBox="0 0 20 20" fill="none" xmlns="http://www.w3.org/2000/svg">
<path d="M6.84447 5.60024L8.7523 3.23529V2.37471H6.38206V1H14.6813C15.0352 1 15.3435 1.08569 15.6061 1.25706C15.8687 1.42843 16 1.62961 16 1.86059V2.634L14.4844 4.61112H11.191V3.44988L8.02958 5.60024H6.84447ZM5 20V13.5042C5 13.385 5.03311 13.2487 5.09933 13.0952C5.16669 12.9409 5.23862 12.8068 5.31512 12.6928L11.1893 5.47059H14.4844C14.7298 5.63153 14.9233 5.81259 15.0649 6.01376C15.2054 6.21494 15.2756 6.42804 15.2756 6.65306V20H5ZM6.7126 18.8824H13.563V6.58824H12.2254L6.71088 13.3835L6.7126 18.8824Z" fill="black"/>
</svg>
