<svg width="13" height="13" viewBox="0 0 13 13" fill="none" xmlns="http://www.w3.org/2000/svg">
<path d="M6.55272 0.838135C3.17756 0.838135 0.431641 3.55832 0.431641 6.90186C0.431641 10.2454 3.17756 12.9656 6.55272 12.9656C9.92788 12.9656 12.6738 10.2454 12.6738 6.90186C12.6738 3.55832 9.92788 0.838135 6.55272 0.838135ZM6.55272 11.7528C3.85271 11.7528 1.65586 9.57656 1.65586 6.90186C1.65586 4.22715 3.85271 2.05088 6.55272 2.05088C9.25273 2.05088 11.4496 4.22715 11.4496 6.90186C11.4496 9.57656 9.25273 11.7528 6.55272 11.7528Z" fill="#555555"/>
<path d="M7.16562 3.87012H5.94141V7.15302L7.95708 9.1498L8.8226 8.29239L7.16562 6.65094V3.87012Z" fill="#555555"/>
</svg>
