<svg width="18" height="16" viewBox="0 0 18 16" fill="none" xmlns="http://www.w3.org/2000/svg">
<path d="M6.00046 10.1791C6.66558 10.1789 7.31188 10.3931 7.83776 10.7879C8.36363 11.1828 8.73923 11.7359 8.90551 12.3603H17.2487C17.4361 12.36 17.6168 12.4277 17.7553 12.5501C17.8938 12.6725 17.98 12.8407 17.9969 13.0217C18.0139 13.2026 17.9603 13.3832 17.8468 13.5277C17.7333 13.6723 17.5681 13.7704 17.3837 13.8028L17.2487 13.8144L8.90551 13.8159C8.73979 14.4408 8.36443 14.9946 7.8385 15.39C7.31258 15.7854 6.66597 16 6.00046 16C5.33495 16 4.68834 15.7854 4.16242 15.39C3.63649 14.9946 3.26113 14.4408 3.09541 13.8159L0.751267 13.8144C0.563877 13.8148 0.383148 13.7471 0.24467 13.6247C0.106192 13.5023 0.0200005 13.334 0.00306887 13.1531C-0.0138627 12.9721 0.0396925 12.7916 0.153188 12.647C0.266684 12.5024 0.431895 12.4043 0.616288 12.3719L0.751267 12.3603H3.09541C3.26169 11.7359 3.63729 11.1828 4.16316 10.7879C4.68904 10.3931 5.33534 10.1789 6.00046 10.1791ZM6.00046 11.6332C5.6027 11.6332 5.22123 11.7864 4.93996 12.0591C4.6587 12.3318 4.50069 12.7017 4.50069 13.0874C4.50069 13.473 4.6587 13.8429 4.93996 14.1156C5.22123 14.3883 5.6027 14.5415 6.00046 14.5415C6.39822 14.5415 6.7797 14.3883 7.06096 14.1156C7.34222 13.8429 7.50023 13.473 7.50023 13.0874C7.50023 12.7017 7.34222 12.3318 7.06096 12.0591C6.7797 11.7864 6.39822 11.6332 6.00046 11.6332ZM11.9995 9.39987e-08C12.6647 -0.000163807 13.311 0.214016 13.8368 0.608862C14.3627 1.00371 14.7383 1.55682 14.9046 2.18123H17.2487C17.4361 2.18089 17.6168 2.2486 17.7553 2.37101C17.8938 2.49342 17.98 2.66166 17.9969 2.84261C18.0139 3.02356 17.9603 3.20409 17.8468 3.34867C17.7333 3.49324 17.5681 3.59138 17.3837 3.62375L17.2487 3.63538L14.9046 3.63684C14.7389 4.26178 14.3635 4.81553 13.8376 5.21094C13.3117 5.60634 12.665 5.82093 11.9995 5.82093C11.334 5.82093 10.6874 5.60634 10.1615 5.21094C9.63557 4.81553 9.26021 4.26178 9.09449 3.63684L0.751267 3.63538C0.563877 3.63572 0.383148 3.56801 0.24467 3.4456C0.106192 3.32319 0.0200005 3.15495 0.00306887 2.974C-0.0138627 2.79305 0.0396925 2.61252 0.153188 2.46794C0.266684 2.32337 0.431895 2.22523 0.616288 2.19286L0.751267 2.18123H9.09449C9.26076 1.55682 9.63637 1.00371 10.1622 0.608862C10.6881 0.214016 11.3344 -0.000163807 11.9995 9.39987e-08ZM11.9995 1.45415C11.6018 1.45415 11.2203 1.60736 10.939 1.88006C10.6578 2.15277 10.4998 2.52264 10.4998 2.9083C10.4998 3.29397 10.6578 3.66384 10.939 3.93655C11.2203 4.20925 11.6018 4.36246 11.9995 4.36246C12.3973 4.36246 12.7788 4.20925 13.06 3.93655C13.3413 3.66384 13.4993 3.29397 13.4993 2.9083C13.4993 2.52264 13.3413 2.15277 13.06 1.88006C12.7788 1.60736 12.3973 1.45415 11.9995 1.45415Z" fill="#7E6C6C"/>
</svg>
