<svg width="30" height="30" viewBox="0 0 30 30" fill="none" xmlns="http://www.w3.org/2000/svg">
<path d="M15 10.7207C12.6387 10.7207 10.7207 12.6387 10.7207 15C10.7207 17.3614 12.6387 19.284 15 19.284C17.3614 19.284 19.284 17.3614 19.284 15C19.284 12.6387 17.3614 10.7207 15 10.7207Z" fill="#111111"/>
<path d="M21.4593 3.33337H8.54198C5.67198 3.33337 3.33398 5.67137 3.33398 8.54137V21.4587C3.33398 24.3334 5.67198 26.6667 8.54198 26.6667H21.4593C24.334 26.6667 26.6673 24.3334 26.6673 21.4587V8.54137C26.6673 5.67137 24.334 3.33337 21.4593 3.33337ZM15.0007 22.56C10.8333 22.56 7.44065 19.1674 7.44065 15C7.44065 10.8327 10.8333 7.44471 15.0007 7.44471C19.168 7.44471 22.5607 10.8327 22.5607 15C22.5607 19.1674 19.168 22.56 15.0007 22.56ZM22.7193 8.81671C21.8373 8.81671 21.1187 8.10271 21.1187 7.22071C21.1187 6.33871 21.8373 5.62004 22.7193 5.62004C23.6013 5.62004 24.32 6.33871 24.32 7.22071C24.32 8.10271 23.6013 8.81671 22.7193 8.81671Z" fill="#111111"/>
</svg>
