<svg width="20" height="20" viewBox="0 0 20 20" fill="none" xmlns="http://www.w3.org/2000/svg">
<path d="M10.5227 18.5388C10.3701 18.6471 10.1874 18.7053 10 18.7053C9.81259 18.7053 9.62986 18.6471 9.47732 18.5388C4.97012 15.3443 0.186646 8.7733 5.02239 4.02513C6.34949 2.72589 8.13763 1.99839 10 2C11.8667 2 13.6578 2.72856 14.9776 4.0242C19.8134 8.77238 15.0299 15.3424 10.5227 18.5388Z" stroke="black" stroke-width="1.5" stroke-linecap="round" stroke-linejoin="round"/>
<path d="M9.99953 10.353C10.4946 10.353 10.9694 10.1575 11.3195 9.80937C11.6696 9.46126 11.8663 8.98913 11.8663 8.49683C11.8663 8.00454 11.6696 7.5324 11.3195 7.1843C10.9694 6.83619 10.4946 6.64063 9.99953 6.64062C9.50445 6.64063 9.02964 6.83619 8.67956 7.1843C8.32948 7.5324 8.13281 8.00454 8.13281 8.49683C8.13281 8.98913 8.32948 9.46126 8.67956 9.80937C9.02964 10.1575 9.50445 10.353 9.99953 10.353Z" stroke="black" stroke-width="1.5" stroke-linecap="round" stroke-linejoin="round"/>
</svg>
