<svg width="20" height="20" viewBox="0 0 20 20" fill="none" xmlns="http://www.w3.org/2000/svg">
<path d="M7.49921 9.99994L9.16587 11.6666L12.4992 8.33327M6.52816 3.91414C7.1261 3.86643 7.69375 3.6313 8.1503 3.24223C9.21571 2.3343 10.7827 2.3343 11.8481 3.24223C12.3047 3.6313 12.8723 3.86643 13.4703 3.91414C14.8656 4.0255 15.9737 5.13353 16.085 6.52889C16.1327 7.12683 16.3678 7.69449 16.7569 8.15104C17.6648 9.21644 17.6648 10.7834 16.7569 11.8488C16.3678 12.3054 16.1327 12.873 16.085 13.471C15.9737 14.8664 14.8656 15.9744 13.4703 16.0857C12.8723 16.1334 12.3047 16.3686 11.8481 16.7576C10.7827 17.6656 9.21571 17.6656 8.1503 16.7576C7.69375 16.3686 7.1261 16.1334 6.52816 16.0857C5.13279 15.9744 4.02476 14.8664 3.91341 13.471C3.8657 12.873 3.63057 12.3054 3.2415 11.8488C2.33356 10.7834 2.33356 9.21644 3.2415 8.15104C3.63057 7.69449 3.8657 7.12683 3.91341 6.52889C4.02476 5.13353 5.13279 4.0255 6.52816 3.91414Z" stroke="#2A2A2A" stroke-width="2" stroke-linecap="round" stroke-linejoin="round"/>
</svg>
