<svg width="39" height="39" viewBox="0 0 39 39" fill="none" xmlns="http://www.w3.org/2000/svg">
<path d="M29.8415 28.2165L19.5 38.558L9.15851 28.2165C7.11318 26.1711 5.7203 23.5652 5.15601 20.7283C4.59171 17.8913 4.88135 14.9507 5.98829 12.2783C7.09522 9.60598 8.96975 7.32187 11.3748 5.71487C13.7799 4.10786 16.6075 3.25012 19.5 3.25012C22.3926 3.25012 25.2201 4.10786 27.6252 5.71487C30.0303 7.32187 31.9048 9.60598 33.0117 12.2783C34.1187 14.9507 34.4083 17.8913 33.844 20.7283C33.2797 23.5652 31.8868 26.1711 29.8415 28.2165ZM19.5 24.375C21.2239 24.375 22.8772 23.6902 24.0962 22.4712C25.3152 21.2522 26 19.5989 26 17.875C26 16.1511 25.3152 14.4978 24.0962 13.2788C22.8772 12.0598 21.2239 11.375 19.5 11.375C17.7761 11.375 16.1228 12.0598 14.9038 13.2788C13.6848 14.4978 13 16.1511 13 17.875C13 19.5989 13.6848 21.2522 14.9038 22.4712C16.1228 23.6902 17.7761 24.375 19.5 24.375ZM19.5 21.125C18.6381 21.125 17.8114 20.7826 17.2019 20.1731C16.5924 19.5636 16.25 18.7369 16.25 17.875C16.25 17.013 16.5924 16.1864 17.2019 15.5769C17.8114 14.9674 18.6381 14.625 19.5 14.625C20.362 14.625 21.1886 14.9674 21.7981 15.5769C22.4076 16.1864 22.75 17.013 22.75 17.875C22.75 18.7369 22.4076 19.5636 21.7981 20.1731C21.1886 20.7826 20.362 21.125 19.5 21.125Z" fill="black"/>
<path d="M29.8415 28.2165L19.5 38.558L9.15851 28.2165C7.11318 26.1711 5.7203 23.5652 5.15601 20.7283C4.59171 17.8913 4.88135 14.9507 5.98829 12.2783C7.09522 9.60598 8.96975 7.32187 11.3748 5.71487C13.7799 4.10786 16.6075 3.25012 19.5 3.25012C22.3926 3.25012 25.2201 4.10786 27.6252 5.71487C30.0303 7.32187 31.9048 9.60598 33.0117 12.2783C34.1187 14.9507 34.4083 17.8913 33.844 20.7283C33.2797 23.5652 31.8868 26.1711 29.8415 28.2165ZM19.5 24.375C21.2239 24.375 22.8772 23.6902 24.0962 22.4712C25.3152 21.2522 26 19.5989 26 17.875C26 16.1511 25.3152 14.4978 24.0962 13.2788C22.8772 12.0598 21.2239 11.375 19.5 11.375C17.7761 11.375 16.1228 12.0598 14.9038 13.2788C13.6848 14.4978 13 16.1511 13 17.875C13 19.5989 13.6848 21.2522 14.9038 22.4712C16.1228 23.6902 17.7761 24.375 19.5 24.375ZM19.5 21.125C18.6381 21.125 17.8114 20.7826 17.2019 20.1731C16.5924 19.5636 16.25 18.7369 16.25 17.875C16.25 17.013 16.5924 16.1864 17.2019 15.5769C17.8114 14.9674 18.6381 14.625 19.5 14.625C20.362 14.625 21.1886 14.9674 21.7981 15.5769C22.4076 16.1864 22.75 17.013 22.75 17.875C22.75 18.7369 22.4076 19.5636 21.7981 20.1731C21.1886 20.7826 20.362 21.125 19.5 21.125Z" fill="#898989"/>
</svg>
