<svg width="38" height="39" viewBox="0 0 38 39" fill="none" xmlns="http://www.w3.org/2000/svg">
<path d="M31.621 35.2647L28.8293 30.1659C28.2285 29.0765 27.4518 28.2837 26.111 28.7671L23.4659 29.6309C21.3483 30.4946 20.2932 29.6309 19.2308 28.3288L14.4681 18.7951C13.8673 17.7058 14.1824 16.6809 15.5232 16.1974L19.2235 14.8953C20.5643 14.4054 20.3518 13.3869 19.751 12.2976L16.5784 7.10209C15.9775 6.01272 14.7466 5.74843 13.4057 6.23188C10.724 7.20523 8.50384 8.73293 7.06039 10.9955C5.30188 13.7608 6.18114 17.6091 6.53284 19.227C6.88454 20.845 8.1155 23.6812 9.70549 26.5884C11.2955 29.502 12.6876 31.7903 13.9406 33.0859C15.1862 34.3816 18.1757 37.9269 21.8759 38.7197C24.9093 39.3643 28.1845 38.8229 30.8663 37.8495C32.2145 37.3854 32.2145 36.3605 31.621 35.2647Z" fill="#898989"/>
</svg>
