<svg width="20" height="20" viewBox="0 0 20 20" fill="none" xmlns="http://www.w3.org/2000/svg">
<path fill-rule="evenodd" clip-rule="evenodd" d="M9.78125 0.4375C7.30313 0.4375 4.92651 1.42193 3.17422 3.17422C1.42193 4.92651 0.4375 7.30313 0.4375 9.78125C0.4375 12.2594 1.42193 14.636 3.17422 16.3883C4.92651 18.1406 7.30313 19.125 9.78125 19.125C12.2594 19.125 14.636 18.1406 16.3883 16.3883C18.1406 14.636 19.125 12.2594 19.125 9.78125C19.125 7.30313 18.1406 4.92651 16.3883 3.17422C14.636 1.42193 12.2594 0.4375 9.78125 0.4375ZM9.78125 17.6875C7.68438 17.6875 5.6734 16.8545 4.19069 15.3718C2.70798 13.8891 1.875 11.8781 1.875 9.78125C1.875 7.68438 2.70798 5.6734 4.19069 4.19069C5.6734 2.70798 7.68438 1.875 9.78125 1.875C11.8781 1.875 13.8891 2.70798 15.3718 4.19069C16.8545 5.6734 17.6875 7.68438 17.6875 9.78125C17.6875 11.8781 16.8545 13.8891 15.3718 15.3718C13.8891 16.8545 11.8781 17.6875 9.78125 17.6875ZM12.0094 5.58375C11.7621 5.32389 11.4635 5.11829 11.1325 4.98C10.7171 4.81366 10.2716 4.73535 9.82438 4.75C9.39041 4.74379 8.95981 4.82698 8.55937 4.99438C8.21581 5.13812 7.9125 5.3595 7.66813 5.64125C7.43036 5.90039 7.24488 6.20302 7.12188 6.5325C7.00782 6.86735 6.9354 7.21496 6.90625 7.5675H8.67437C8.68252 7.33935 8.75518 7.11818 8.88392 6.92965C9.01266 6.74112 9.19221 6.59294 9.40175 6.50231C9.54038 6.44669 9.68966 6.42263 9.83875 6.43188C9.96739 6.41236 10.0982 6.41236 10.2269 6.43188C10.3458 6.47496 10.4537 6.54367 10.5431 6.63312C10.643 6.71954 10.7217 6.82774 10.7731 6.94938C10.8333 7.08501 10.8628 7.23227 10.8594 7.38062C10.8594 7.62931 10.8062 7.87369 10.7013 8.09937C10.5968 8.33353 10.4667 8.55531 10.3131 8.76062L9.81 9.36438C9.6375 9.55125 9.465 9.7525 9.30688 9.95375C9.15324 10.1539 9.02302 10.3709 8.91875 10.6006C8.8199 10.8271 8.77087 11.0723 8.775 11.3194V12.2681H10.5V11.5637C10.5049 11.3529 10.559 11.1462 10.6581 10.96C10.7758 10.7528 10.9104 10.5556 11.0606 10.3706L11.5781 9.73812C11.7677 9.52141 11.9406 9.29076 12.0956 9.04812C12.2607 8.8015 12.3958 8.53609 12.4981 8.2575C12.6032 7.96218 12.6567 7.65097 12.6562 7.3375C12.6583 7.01096 12.6099 6.68607 12.5125 6.37438C12.4048 6.07714 12.233 5.80722 12.0094 5.58375ZM8.775 13.1306H10.4569V14.8125H8.775V13.1306Z" fill="#8C7E7E"/>
</svg>
