<svg width="20" height="20" viewBox="0 0 20 20" fill="none" xmlns="http://www.w3.org/2000/svg">
<path d="M17 12.875C17 14.7647 16.2625 16.5769 14.9497 17.9131C13.637 19.2493 11.8565 20 10 20C8.14348 20 6.36301 19.2493 5.05025 17.9131C3.7375 16.5769 3 14.7647 3 12.875C3.00071 11.4866 3.40012 10.1287 4.14908 8.9683C4.89805 7.80791 5.96391 6.89565 7.21556 6.34375L7.48933 6.56067L8.69333 7.51225C7.51476 7.80825 6.46728 8.49689 5.7175 9.46864C4.96773 10.4404 4.55873 11.6394 4.55556 12.875C4.55556 15.9308 6.99778 18.4167 10 18.4167C13.0022 18.4167 15.4444 15.9308 15.4444 12.875C15.4413 11.6394 15.0323 10.4404 14.2825 9.46864C13.5327 8.49689 12.4852 7.80825 11.3067 7.51225L12.7844 6.34375C14.0361 6.89565 15.102 7.80791 15.8509 8.9683C16.5999 10.1287 16.9993 11.4866 17 12.875ZM10 6.54167L13.8889 3.46208L12.3333 1H7.66667L6.11111 3.46208L8.44444 5.30983L10 6.54167Z" fill="#FFD114"/>
</svg>
