<svg width="17" height="14" viewBox="0 0 17 14" fill="none" xmlns="http://www.w3.org/2000/svg">
<path d="M14.834 9.0415C15.0207 9.0415 15.1673 9.16984 15.1673 9.33317V9.9165C15.1673 10.8848 14.274 11.6665 13.1673 11.6665C13.1673 10.704 12.2673 9.9165 11.1673 9.9165C10.0673 9.9165 9.16732 10.704 9.16732 11.6665H7.83398C7.83398 10.704 6.93398 9.9165 5.83398 9.9165C4.73398 9.9165 3.83398 10.704 3.83398 11.6665C2.72732 11.6665 1.83398 10.8848 1.83398 9.9165V8.74984C1.83398 8.429 2.13398 8.1665 2.50065 8.1665H8.83398C9.75398 8.1665 10.5007 7.51317 10.5007 6.70817V3.49984C10.5007 3.179 10.8007 2.9165 11.1673 2.9165H11.7273C12.2073 2.9165 12.6473 3.144 12.8873 3.50567L13.314 4.159C13.374 4.25234 13.294 4.37484 13.1673 4.37484C12.2473 4.37484 11.5007 5.02817 11.5007 5.83317V7.58317C11.5007 8.38817 12.2473 9.0415 13.1673 9.0415H14.834Z" fill="#694C11"/>
<path d="M5.83333 12.8333C6.56971 12.8333 7.16667 12.311 7.16667 11.6667C7.16667 11.0223 6.56971 10.5 5.83333 10.5C5.09695 10.5 4.5 11.0223 4.5 11.6667C4.5 12.311 5.09695 12.8333 5.83333 12.8333Z" fill="#694C11"/>
<path d="M11.1673 12.8333C11.9037 12.8333 12.5007 12.311 12.5007 11.6667C12.5007 11.0223 11.9037 10.5 11.1673 10.5C10.4309 10.5 9.83398 11.0223 9.83398 11.6667C9.83398 12.311 10.4309 12.8333 11.1673 12.8333Z" fill="#694C11"/>
<path d="M15.1667 7.30917V8.16667H13.1667C12.8 8.16667 12.5 7.90417 12.5 7.58333V5.83333C12.5 5.5125 12.8 5.25 13.1667 5.25H14.0267L14.9933 6.73167C15.1067 6.90667 15.1667 7.105 15.1667 7.30917Z" fill="#694C11"/>
<path d="M9.2187 1.1665H4.29203C3.0987 1.1665 2.0987 1.91317 1.8787 2.90484H4.79203C5.04536 2.90484 5.24536 3.08567 5.24536 3.30734C5.24536 3.529 5.04536 3.704 4.79203 3.704H1.83203V4.509H3.56536C3.8187 4.509 4.02536 4.68984 4.02536 4.9115C4.02536 5.13317 3.8187 5.30817 3.56536 5.30817H1.83203V6.11317H2.34536C2.5987 6.11317 2.80536 6.294 2.80536 6.51567C2.80536 6.73734 2.5987 6.91234 2.34536 6.91234H1.83203V7.0465C1.83203 7.36734 2.13203 7.62984 2.4987 7.62984H8.5987C9.2787 7.62984 9.83203 7.14567 9.83203 6.55067V1.70317C9.83203 1.40567 9.5587 1.1665 9.2187 1.1665Z" fill="#694C11"/>
<path d="M1.87935 2.90479H1.77935H1.12602C0.872682 2.90479 0.666016 3.08562 0.666016 3.30729C0.666016 3.52895 0.872682 3.70395 1.12602 3.70395H1.73268H1.83268V3.31895C1.83268 3.17895 1.85268 3.03895 1.87935 2.90479Z" fill="#694C11"/>
<path d="M1.73268 4.50879H1.12602C0.872682 4.50879 0.666016 4.68962 0.666016 4.91129C0.666016 5.13296 0.872682 5.30796 1.12602 5.30796H1.73268H1.83268V4.50879H1.73268Z" fill="#694C11"/>
<path d="M1.73268 6.11328H1.12602C0.872682 6.11328 0.666016 6.29411 0.666016 6.51578C0.666016 6.73745 0.872682 6.91245 1.12602 6.91245H1.73268H1.83268V6.11328H1.73268Z" fill="#694C11"/>
</svg>
