<svg width="25" height="25" viewBox="0 0 25 25" fill="none" xmlns="http://www.w3.org/2000/svg">
<path d="M12.5 1C6.14855 1 1 6.14855 1 12.5C1 18.8514 6.14855 24 12.5 24C18.8514 24 24 18.8514 24 12.5C24 6.14855 18.8514 1 12.5 1Z" stroke="#ABA7A7" stroke-width="1.5" stroke-linecap="round" stroke-linejoin="round"/>
<path d="M3.60938 19.797C3.60938 19.797 6.17273 16.5241 12.4977 16.5241C18.8227 16.5241 21.3872 19.797 21.3872 19.797M12.4977 12.4991C13.4127 12.4991 14.2902 12.1356 14.9372 11.4886C15.5842 10.8416 15.9477 9.96412 15.9477 9.04912C15.9477 8.13412 15.5842 7.2566 14.9372 6.6096C14.2902 5.9626 13.4127 5.59912 12.4977 5.59912C11.5827 5.59912 10.7052 5.9626 10.0582 6.6096C9.41121 7.2566 9.04772 8.13412 9.04772 9.04912C9.04772 9.96412 9.41121 10.8416 10.0582 11.4886C10.7052 12.1356 11.5827 12.4991 12.4977 12.4991Z" stroke="#ABA7A7" stroke-width="1.5" stroke-linecap="round" stroke-linejoin="round"/>
</svg>
