<svg width="26" height="26" viewBox="0 0 26 26" fill="none" xmlns="http://www.w3.org/2000/svg">
<path d="M12.9991 1.04004C6.39355 1.04004 1.03906 6.39453 1.03906 13C1.03906 19.6055 6.39355 24.96 12.9991 24.96C19.6046 24.96 24.9591 19.6055 24.9591 13C24.9591 6.39453 19.6046 1.04004 12.9991 1.04004Z" stroke="#ABA7A7" stroke-width="1.5" stroke-linecap="round" stroke-linejoin="round"/>
<path d="M3.75195 20.5891C3.75195 20.5891 6.41784 17.1852 12.9958 17.1852C19.5738 17.1852 22.2409 20.5891 22.2409 20.5891M12.9958 12.9992C13.9474 12.9992 14.8601 12.6212 15.5329 11.9483C16.2058 11.2755 16.5838 10.3628 16.5838 9.41124C16.5838 8.45965 16.2058 7.54702 15.5329 6.87414C14.8601 6.20126 13.9474 5.82324 12.9958 5.82324C12.0442 5.82324 11.1316 6.20126 10.4587 6.87414C9.78586 7.54702 9.40784 8.45965 9.40784 9.41124C9.40784 10.3628 9.78586 11.2755 10.4587 11.9483C11.1316 12.6212 12.0442 12.9992 12.9958 12.9992Z" stroke="#ABA7A7" stroke-width="1.5" stroke-linecap="round" stroke-linejoin="round"/>
</svg>
