<svg width="30" height="30" viewBox="0 0 30 30" fill="none" xmlns="http://www.w3.org/2000/svg">
<g clip-path="url(#clip0_3001_3717)">
<path fill-rule="evenodd" clip-rule="evenodd" d="M15 2.58337C8.09625 2.58337 2.5 8.36617 2.5 15.5C2.5 17.9413 3.15625 20.2275 4.2975 22.1754L3.1825 26.0917C3.11848 26.3166 3.11427 26.5551 3.17031 26.7822C3.22634 27.0093 3.34056 27.2167 3.50095 27.3824C3.66134 27.5481 3.86198 27.6662 4.08177 27.7241C4.30156 27.782 4.5324 27.7776 4.75 27.7115L8.54 26.5593C10.4883 27.7774 12.7228 28.4199 15 28.4167C21.9037 28.4167 27.5 22.6339 27.5 15.5C27.5 8.36617 21.9037 2.58337 15 2.58337ZM12.1725 18.4231C14.7012 21.0348 17.115 21.3797 17.9675 21.412C19.2637 21.4611 20.5262 20.4381 21.0175 19.251C21.0795 19.1034 21.102 18.9412 21.0827 18.7815C21.0633 18.6217 21.0028 18.4703 20.9075 18.343C20.2225 17.4388 19.2963 16.7891 18.3913 16.1433C18.2023 16.0083 17.9701 15.9541 17.7433 15.9922C17.5166 16.0302 17.3129 16.1575 17.175 16.3474L16.425 17.5292C16.3856 17.5928 16.3241 17.6383 16.2532 17.6566C16.1824 17.6748 16.1074 17.6644 16.0438 17.6274C15.535 17.3265 14.7938 16.815 14.2613 16.2647C13.7288 15.7145 13.2638 14.9834 13.0025 14.4912C12.9701 14.4287 12.9607 14.3562 12.9761 14.2871C12.9915 14.218 13.0307 14.157 13.0862 14.1154L14.2412 13.2293C14.4061 13.0812 14.5125 12.8756 14.5401 12.6517C14.5678 12.4278 14.5148 12.2013 14.3912 12.0151C13.8312 11.1678 13.1788 10.0905 12.2325 9.37625C12.1104 9.2848 11.9673 9.22778 11.8174 9.2108C11.6675 9.19381 11.5159 9.21745 11.3775 9.27937C10.2275 9.78829 9.2325 11.0929 9.28 12.4349C9.31125 13.3158 9.645 15.81 12.1725 18.4231Z" fill="black"/>
</g>
<defs>
<clipPath id="clip0_3001_3717">
<rect width="30" height="30" fill="white"/>
</clipPath>
</defs>
</svg>
